<?xml version="1.0" standalone="no"?>
<!DOCTYPE svg PUBLIC "-//W3C//DTD SVG 1.1//EN" "http://www.w3.org/Graphics/SVG/1.1/DTD/svg11.dtd" >
<svg xmlns="http://www.w3.org/2000/svg" xmlns:xlink="http://www.w3.org/1999/xlink" version="1.1">
<metadata>
Created by FontForge 20170924 at Sun Aug  6 14:26:47 2006
 By www-data
Copyright (c) Alexandra Gophmann, 2006. All rights reserved.
</metadata>
<defs>
<font id="AvalonMedium" horiz-adv-x="275" >
  <font-face 
    font-family="Avalon Medium"
    font-weight="400"
    font-stretch="normal"
    units-per-em="1000"
    panose-1="2 0 4 0 0 0 0 0 0 0"
    ascent="800"
    descent="-200"
    x-height="278"
    cap-height="698"
    bbox="-442.13 -393 1373.2 862"
    underline-thickness="20"
    underline-position="-143"
    unicode-range="U+0020-F002"
  />
<missing-glyph horiz-adv-x="500" 
d="M63 0v665h375v-665h-375zM125 63h250v540h-250v-540z" />
    <glyph glyph-name=".notdef" horiz-adv-x="500" 
d="M63 0v665h375v-665h-375zM125 63h250v540h-250v-540z" />
    <glyph glyph-name="NULL" horiz-adv-x="0" 
 />
    <glyph glyph-name="nonmarkingreturn" horiz-adv-x="200" 
 />
    <glyph glyph-name="space" unicode=" " horiz-adv-x="200" 
 />
    <glyph glyph-name="exclam" unicode="!" horiz-adv-x="134" 
d="M209 458q4 -2 -11 -30q-33 -61 -70 -141q-54 -118 -78 -184q-12 -32 -22 -31q-8 2 1 47q16 79 57 167q39 85 75 133q11 14 27 27t21 12zM42 18q-3 -27 -29 -29q-12 -1 -19.5 5.5t-6.5 18.5q2 27 29 29q12 1 19.5 -6t6.5 -18z" />
    <glyph glyph-name="quotedbl" unicode="&#x22;" horiz-adv-x="169" 
d="M247 454q-10 -24 -65 -69q9 24 28 75q9 24 24 21q25 -5 13 -27zM172 454q-10 -26 -66 -69q9 24 28 75q9 24 24 21q26 -5 14 -27z" />
    <glyph glyph-name="numbersign" unicode="#" horiz-adv-x="320" 
d="M295 183q-2 -5 -16 -4q-48 3 -60 3q-3 -6 -9 -17q-6 -15 -16 -36q46 -4 60 -6q8 -1 14 -5.5t5 -6.5q-3 -5 -19 -4q-22 2 -67 4q-5 -11 -34 -88q-10 -27 -22 -27q-7 0 -1 26q10 42 28 90q-16 1 -44 1q-23 0 -34 -1q-11 -28 -34 -89q-10 -27 -22 -27q-7 0 -1 26
q10 42 28 90q-31 0 -59 -3q-4 0 -8 4q0 6 23 10q20 4 50 5l16 37q3 7 8 18q-20 0 -65 -3q-6 -1 -9 4q0 6 24 10t59 7q59 111 72 104q9 -2 -3 -26t-38 -77q7 1 27 1q33 0 49 -1q21 38 45 75q19 29 25 26q3 -1 2 -9q0 -9 -4 -17q-12 -23 -38 -77q23 -1 50 -6q6 -1 12.5 -5.5
t5.5 -5.5zM188 183q-19 1 -48 1q-20 0 -28 -1q-3 -7 -8.5 -18t-16.5 -35q11 1 34 1q28 0 44 -1q7 19 14 34q4 9 9 19z" />
    <glyph glyph-name="dollar" unicode="$" horiz-adv-x="185" 
d="M200 288q5 -24 -27 -41q9 13 9 28t-9 22q-19 -32 -60 -98v-41q-2 -75 -41 -119q-33 -37 -75 -37h-5q-13 -19 -22 -35l-2 11l13 24q-29 8 -33 33q-4 29 20.5 50.5t28.5 14.5q1 -1 -6 -6q-9 -8 -17 -17q-13 -16 -8 -37t21 -26q27 49 83 146q1 36 3 53q5 31 16 50
q27 45 71 45h9q11 17 21 31l2 -10q-3 -4 -14 -23q19 -3 22 -18zM164 301h-6q-29 0 -41 -35q-7 -20 -5 -47q3 5 52 82zM71 138q-26 -45 -74 -127q6 0 5 0q67 3 69 127z" />
    <glyph glyph-name="percent" unicode="%" horiz-adv-x="368" 
d="M312 322q1 0 -12 -13q-1 -2 -23 -29q-47 -60 -119 -162.5t-112 -168.5q-16 -25 -19 -23q-6 1 5 27q30 69 99 171q38 57 91 122q17 21 52 56q-35 -15 -80 -14q-31 1 -48 13q14 -27 14 -54q0 -23 -10 -44q-18 -39 -49 -62.5t-53 -19.5q-34 7 -34 55q0 18 7 37q19 55 87 85
q16 7 17 4q0 -1 -6 -4t-10 -7q-44 -43 -63 -112q-12 -44 5 -50q16 -5 41 26q30 36 45 93q8 30 0 50q-2 7 -14 19q-2 3 -1 4q4 4 7 0.5t7 -7.5q16 -15 60 -15q58 0 83 10q6 4 15 9q16 8 18 4zM307 78q-16 -38 -48 -62.5t-55 -19.5q-34 7 -34 56q0 17 7 36q13 38 43 64t57 26
q39 0 39 -55q0 -22 -9 -45zM293 124q5 19 4 29q-1 14 -12 17q-17 5 -43.5 -31.5t-39.5 -84.5q-12 -45 5 -50t42 27q29 36 44 93z" />
    <glyph glyph-name="ampersand" unicode="&#x26;" horiz-adv-x="442" 
d="M470 277q2 -18 -16 -30t-46 -12q-23 0 -47 14q10 -25 10 -46q-1 -76 -56 -131q-35 -35 -66 -50q13 -41 37 -78q35 -54 76 -54q8 0 15 3q4 1 5 0q4 -6 -11.5 -9.5t-26.5 -3.5q-54 0 -92 49q-28 36 -39 75q-43 -16 -92 -16q-111 0 -119 82q-8 78 64 139q40 34 128 71
q9 49 35 90q65 103 166 100q42 -1 45 -36q4 -44 -82 -95q-20 -12 -57 -27q-58 -23 -65 -26q-13 -71 -9 -138q4 -57 18 -111q21 12 54 44q23 22 39 58t17 66q1 29 -4 47q-11 7 -31 27q-6 10 -1 14q18 11 34 -22q22 -17 54 -17q47 0 54 23q2 5 -3 9.5t-4 5.5q3 3 9 -2t7 -13z
M429 433q-1 27 -34 27q-39 0 -77.5 -30.5t-56.5 -68.5q-12 -24 -22 -63q34 15 104 52q87 54 86 83zM208 17q-18 53 -22 120q-4 65 6 131q-60 -35 -88 -63q-63 -63 -58 -136q5 -70 75 -71q46 -1 87 19z" />
    <glyph glyph-name="quotesingle" unicode="'" horiz-adv-x="95" 
d="M172 454q-10 -26 -66 -69q9 24 28 75q9 24 24 21q26 -5 14 -27z" />
    <glyph glyph-name="parenleft" unicode="(" horiz-adv-x="339" 
d="M526 663q1 -3 -12 -9q-58 -29 -133 -94q-158 -137 -237 -312q-47 -104 -47 -231q0 -99 44 -181q9 -18 10 -17q-6 -5 -16 8q-73 97 -73 223q0 118 52 225q39 80 108 162q63 75 129 126q86 66 159 97q15 6 16 3z" />
    <glyph glyph-name="parenright" unicode=")" horiz-adv-x="339" 
d="M284 429q0 -118 -52 -225q-80 -166 -237 -288q-84 -66 -159 -97q-15 -6 -16 -3t12 9q60 30 133 94q158 138 237 312q47 105 47 229q0 94 -44 183q-9 18 -10 17q6 5 16 -8q73 -94 73 -223z" />
    <glyph glyph-name="asterisk" unicode="*" horiz-adv-x="347" 
d="M354 441q0 -14 -35.5 -21t-74.5 -14q23 -14 64 -41q22 -17 22 -30q0 -14 -15 -14q-12 0 -29 21q-31 37 -46 59q-2 -30 -6 -78q-5 -38 -23 -35q-13 2 -13 15q0 9 6 29q9 34 28 71q-24 -13 -70 -36q-16 -7 -26 -7q-13 0 -16 11q-5 19 33 26l77 13q-23 14 -64 41
q-24 17 -24 28q0 15 15 15q11 0 29 -21q23 -27 48 -57q0 34 5 77q4 37 23 34q13 -2 13 -16q0 -9 -6 -27q-13 -33 -27 -71q19 12 68 35q18 8 28 8q16 0 16 -15z" />
    <glyph glyph-name="plus" unicode="+" horiz-adv-x="273" 
d="M245 157q0 -1 -12 2q-21 4 -46.5 6t-54.5 2q-1 -3 -4 -10q-11 -31 -20 -64q-4 -15 -8 -31q-1 -6 -6 -6q-9 0 -7 26q2 32 15 72q3 8 5 13q-28 0 -63 -2q-38 -2 -38 -1q-3 11 25 18q32 8 72 9h12q12 26 26 47q29 43 40 36q-10 -16 -28 -52q-5 -11 -13 -31q39 -3 57 -7
q48 -10 48 -27z" />
    <glyph glyph-name="comma" unicode="," horiz-adv-x="100" 
d="M29 19q-14 -33 -78 -69q26 38 41 75q10 25 24 22q26 -5 13 -28z" />
    <glyph glyph-name="hyphen" unicode="-" horiz-adv-x="171" 
d="M143 179q8 -18 -33 -27q-25 -6 -58 -6q-37 0 -50 8q15 1 46 13q36 13 48 16q41 10 47 -4z" />
    <glyph glyph-name="hyphen" unicode="&#x2010;" horiz-adv-x="171" 
d="M143 179q8 -18 -33 -27q-25 -6 -58 -6q-37 0 -50 8q15 1 46 13q36 13 48 16q41 10 47 -4z" />
    <glyph glyph-name="period" unicode="." horiz-adv-x="95" 
d="M31 20q-2 -26 -28 -28q-12 -1 -19.5 5t-6.5 18q2 28 28 30q12 1 19.5 -6.5t6.5 -18.5z" />
    <glyph glyph-name="slash" unicode="/" horiz-adv-x="150" 
d="M323 530q2 -2 -13 -22q-68 -90 -170 -263q-109 -186 -180 -341q-15 -32 -17 -31q-6 4 4 38q48 161 150 334q84 143 201 267q21 22 25 18z" />
    <glyph glyph-name="zero" unicode="0" horiz-adv-x="236" 
d="M214 223q0 -39 -16 -78q-28 -69 -80 -113q-46 -39 -79 -33q-20 4 -34 24q-16 24 -16 60q0 28 10 61q31 97 131 149q27 14 32 9l-8 -5q-11 -6 -19 -14q-75 -73 -104 -187q-7 -28 -7 -48q0 -31 20 -38q26 -9 68 45q47 62 70 157q12 48 -1 82q-11 23 -23 33t-10 12
q4 2 17 -8q26 -19 37.5 -47t11.5 -61z" />
    <glyph glyph-name="one" unicode="1" horiz-adv-x="139" 
d="M133 286q-19 -37 -51 -105q-44 -98 -61 -155q-11 -35 -21 -33q-12 2 -7 38q8 63 44 144q30 67 63 112q-22 -10 -48 -28q-7 -5 -18.5 -15.5t-12.5 -9.5q-3 3 9.5 17t31 25t57.5 33q11 6 16 6q13 0 -2 -29z" />
    <glyph glyph-name="two" unicode="2" horiz-adv-x="220" 
d="M133 125q-47 -45 -93 -72l-20 -12q25 2 41 2q52 -1 88 -19q9 -5 16 -12.5t6 -9.5q-4 2 -16 5q-29 8 -101 8q-46 0 -80 -6q-24 -4 -24 -3q-1 4 11 14q16 13 41 19q10 6 27 19q39 30 75 74q51 64 51 112q0 45 -41 44q-40 -1 -60 -35q-15 -26 -12 -54q2 -21 15 -37
q-18 10 -25 34q-8 28 7 62q25 55 84 58q36 2 56 -17t20 -51q0 -60 -66 -123z" />
    <glyph glyph-name="three" unicode="3" horiz-adv-x="203" 
d="M183 252q0 -47 -48 -84q-30 -23 -60 -31q59 -10 59 -70q0 -28 -24.5 -64.5t-66.5 -58t-87 -20.5q-27 1 -45 15t-19 38q13 -39 65 -39q74 0 114 73q21 39 21 71q0 39 -24 52q-8 -4 -27 -11q-10 -3 -13 -1q0 11 12.5 16t23.5 3q26 13 47 38q30 36 30 69q0 45 -43 47
q-34 2 -51 -18q-14 -16 -13 -34q1 -16 10 -28q-15 7 -19 25q-5 21 7 40q24 38 75 37q35 0 55.5 -18t20.5 -47z" />
    <glyph glyph-name="four" unicode="4" horiz-adv-x="244" 
d="M253 308q-12 -1 -30 -5q-53 -19 -115 -87q-9 -10 -73 -87q-32 -38 -45 -48q26 3 61 4q21 0 53 -2q6 17 19 51q29 69 66 117q22 29 32 25q7 -3 -9 -36q-12 -24 -42 -93q-15 -36 -26 -66q26 -2 41.5 -6.5t13.5 -8.5q-2 -1 -10 0q-22 3 -49 3q-23 -57 -41 -117
q-9 -31 -19 -31t-6 37q5 46 25 110q-21 0 -98 -8q-35 -4 -36 0q-3 6 7 12q21 20 47.5 58.5t81.5 108.5q67 72 128 75q13 -1 24 -6z" />
    <glyph glyph-name="five" unicode="5" horiz-adv-x="191" 
d="M213 277q-3 -13 -8 -10q0 1 1 3.5t1 5.5q0 12 -61 12q-28 0 -43 -3q-8 -22 -23 -48q-30 -53 -50 -81q18 9 38 9q32 0 51 -21t19 -53q0 -37 -28 -78q-60 -88 -161 -87q-24 0 -40 11t-16 27q13 -27 57 -26q77 1 120 83q24 45 25 78q2 54 -43 54q-15 0 -29 -7
q-12 -16 -16 -21q-9 -9 -13 -7q-5 3 1.5 13.5t20.5 18.5q25 43 45 96q11 29 11 40q0 2 -4 4.5t-3 4.5q2 5 9 11q17 7 52 6q42 -1 72 -13q18 -7 15 -22z" />
    <glyph glyph-name="six" unicode="6" horiz-adv-x="236" 
d="M290 360q2 2 -7 4.5t-23 2.5q-68 -1 -148 -108q-57 -77 -77 -157q-6 -25 -6 -45q0 -49 32 -51q22 -2 44.5 25t36.5 76q9 31 9 52q0 41 -30 53q-18 7 -19 6q4 6 26 0q61 -18 61 -84q0 -18 -6 -36q-15 -45 -51.5 -73.5t-71.5 -26.5q-26 1 -44 23q-21 24 -21 65q0 28 11 62
q21 66 71 126q37 45 86.5 73t92.5 28q20 0 28 -6.5t6 -8.5z" />
    <glyph glyph-name="seven" unicode="7" horiz-adv-x="215" 
d="M258 301q3 -4 -17 -15q-12 -7 -27 -23q-56 -62 -107 -134q-62 -88 -94 -173l-7 -18q-8 -21 -13 -21t-5 17q-1 18 3 36q15 69 60 143q48 80 138 155q7 6 19 14q-9 0 -73 -1q-46 -1 -65 -10q-10 -5 -21 -23l16 6l-22 -24q-7 -14 -14 -10q-3 1 6 18q8 14 23 44q7 16 12 20
t28 5q61 4 123 -14q5 4 15 9q18 8 22 -1z" />
    <glyph glyph-name="eight" unicode="8" horiz-adv-x="211" 
d="M282 294q-9 7 -24 7q-31 -1 -78 -35q-18 -13 -51 -38q3 -12 9 -28q18 -49 17 -81q-1 -35 -20 -63q-40 -61 -95 -59q-53 2 -54 61q-1 30 14 60q21 43 92 96q-14 43 -6 78q7 32 36.5 52t66.5 18q28 -2 44.5 -18.5t11.5 -19.5l-17 13t-39 12q-48 -2 -63 -50q-8 -27 0 -60
l40 30q64 46 95 45q12 0 17.5 -7t3.5 -13zM116 115q0 25 -21 88q-51 -46 -74 -100q-11 -26 -11 -55q0 -42 30 -44q38 -2 64 54q12 26 12 57z" />
    <glyph glyph-name="nine" unicode="9" horiz-adv-x="234" 
d="M203 237q4 -66 -38 -148q-39 -76 -101 -119t-126 -43q-16 0 -27 4q-6 2 -10.5 6.5t-2.5 6.5q6 3 19.5 -2.5t18.5 -5.5q113 0 190 165q48 103 48 159q0 43 -28 44q-40 2 -74 -71q-18 -39 -18 -81q0 -40 32 -54q4 -2 12 -3q5 0 5 -1q0 -7 -24 -2q-62 12 -63 77q-1 33 14 64
q19 41 57 63q32 19 60 17q52 -4 56 -76z" />
    <glyph glyph-name="colon" unicode=":" horiz-adv-x="98" 
d="M80 185q-3 -26 -29 -28q-12 -1 -19.5 5t-6.5 18q2 28 29 30q12 1 19.5 -6.5t6.5 -18.5zM28 20q-2 -26 -28 -28q-12 -1 -19.5 5t-6.5 18q2 28 28 30q12 1 19.5 -6.5t6.5 -18.5z" />
    <glyph glyph-name="semicolon" unicode=";" horiz-adv-x="103" 
d="M80 185q-3 -26 -29 -28q-12 -1 -19.5 5t-6.5 18q2 28 29 30q12 1 19.5 -6.5t6.5 -18.5zM27 19q-14 -33 -78 -69q28 42 41 75q9 25 24 22q26 -5 13 -28z" />
    <glyph glyph-name="less" unicode="&#x3c;" horiz-adv-x="355" 
d="M350 250q1 -2 -15 -7q-187 -55 -259 -86q69 -51 166 -99q21 -10 20 -12q-3 -5 -26 3q-114 40 -211 102q-11 7 -10 9q0 1 20 8q146 49 296 83q18 4 19 -1z" />
    <glyph glyph-name="equal" unicode="=" horiz-adv-x="255" 
d="M229 178q0 1 -52 3q-42 2 -59 2t-64 -3q-33 -2 -34 0q-2 8 22 16q38 9 72 9q40 0 75 -7q44 -9 40 -20zM211 126q0 -2 -11 -1q-10 1 -41 3q-42 2 -59 2q4 0 -64 -2l-34 -1q-3 9 22 16q30 8 71 9q42 1 76 -7q44 -10 40 -19z" />
    <glyph glyph-name="greater" unicode="&#x3e;" horiz-adv-x="355" 
d="M299 149q0 -1 -20 -8q-146 -49 -296 -83q-18 -4 -19 1q-1 2 15 7q187 55 259 86q-69 51 -166 99q-21 10 -20 12q3 5 26 -3q116 -41 211 -102q11 -7 10 -9z" />
    <glyph glyph-name="question" unicode="?" horiz-adv-x="224" 
d="M284 384q0 -61 -79 -128q-34 -24 -103 -78q-54 -46 -68 -78q-9 -21 0 -23q6 -1 23 17q11 11 12 17q10 -11 -2 -24q-19 -20 -35 -15q-16 7 -8 35q11 37 57 82q35 30 93 81q66 61 66 111q0 25 -14.5 41t-37.5 15q-40 -2 -64 -41q-14 -28 -11 -53t13 -40q-19 13 -24 34
q-7 31 6 63q8 19 28 36q26 21 61 23q38 2 62.5 -18.5t24.5 -56.5zM42 18q-3 -27 -29 -29q-12 -1 -19.5 5.5t-6.5 18.5q2 27 29 29q12 1 19.5 -6t6.5 -18z" />
    <glyph glyph-name="at" unicode="@" horiz-adv-x="589" 
d="M566 222q-24 -85 -108 -148q-52 -39 -103 -39q-27 0 -35.5 12.5t-3.5 38.5q6 30 44 122q-35 -61 -81 -111.5t-72 -49.5q-31 2 -31 45q0 30 20 76q23 53 76.5 100t91.5 45q27 -1 29 -22q4 6 12 17.5t19 9.5q15 -3 10 -15q-35 -82 -56 -138q-23 -60 -29 -90q-4 -19 4 -25
q4 -3 24 -1q34 4 72 34q63 50 89 149q9 35 9 66q0 134 -153 137q-159 3 -264 -133q-66 -86 -69 -193q-2 -90 48 -138.5t147 -48.5q51 0 105 22q51 21 84 53l24 23q6 -4 -20 -30q-34 -34 -85 -56q-55 -25 -108 -25q-108 0 -169 49q-65 53 -62 149q4 120 81 208
q57 65 133.5 98.5t155.5 31.5q85 -2 134 -48q46 -43 46 -113q0 -30 -9 -62zM381 273q2 6 2 11q0 19 -20 19q-32 0 -72 -49q-37 -45 -67 -114q-17 -39 -17 -59q0 -15 10 -16q20 -1 62 45q36 41 69 95q20 33 33 68z" />
    <glyph glyph-name="A" unicode="A" horiz-adv-x="800" 
d="M931 526q-1 -5 -23 -1q-43 7 -75 14q-2 -16 -7 -46q-27 -142 -58 -238q-28 -85 -85 -200q48 53 84 66q8 3 8 -2q0 -2 -5 -4t-7 -4q-34 -22 -76 -72q-20 -23 -47 -59q-14 -18 -26 -18q-9 0 -2 13q7 15 17 39q45 100 91 244q44 137 61 223q9 43 12 66q-11 2 -38 7
q-106 -167 -227 -295q22 -6 56 -14q54 -12 109 -16q11 -1 10 -2q0 -5 -17 -5q-71 -2 -136 10q-16 3 -39 10q-81 -80 -174 -149q-213 -159 -352 -170q-90 -7 -97 32q-4 23 22 45q23 21 60 32q13 4 15 2q1 -2 -8 -6q-53 -21 -53 -59q0 -39 63 -36q125 7 327 168q85 68 167 150
q-15 5 -31 12q-21 9 -16 20q3 6 10 6q9 0 33 -10q8 -3 22 -9q120 121 241 288l-164 33q-143 30 -171 35q-86 17 -166 25q-24 3 -48 3q-179 0 -172 -107q2 -26 37 -61q29 -28 63 -48q9 -7 8 -7q-2 -2 -14 3q-116 51 -130 106q-3 12 -3 23q0 58 85 83q59 18 148 18q22 0 40 -1
q111 -7 332 -54q46 -10 163 -39q19 26 35.5 52.5t19.5 48.5q1 7 1 24q0 10 4 10q15 0 22 -36q9 -48 4 -120q31 -8 76 -17q21 -4 21 -6zM803 642q-2 -6 -12 -25q-19 -35 -29 -50q6 -1 16.5 -4t15.5 -5q5 33 9 84z" />
    <glyph glyph-name="B" unicode="B" horiz-adv-x="738" 
d="M697 161q-28 -109 -163 -176q-123 -61 -274 -61q-99 0 -169 33q-82 38 -80 107q1 43 43 78q38 32 87 39q7 0 7 -4q0 -3 -7 -3q-40 -9 -69 -40.5t-30 -67.5q-2 -63 69 -100q62 -32 150 -32q138 0 242 59q111 63 140 169q7 26 7 50q0 60 -39 106q-34 39 -83 55
q-46 -18 -88 -28t-88 -12q0 -1 -37 -73q-47 -93 -94 -156q-49 -66 -72 -65q-19 1 -14 25q3 13 12 21.5t13 5.5q3 -2 1 -7q-4 -11 -6 -19q-3 -14 2 -14q11 0 22 27q29 49 128 256q-64 4 -59 27q6 26 91 39q59 119 111 209q-69 -5 -184 -5q-149 0 -139 56q5 27 63 44
q55 16 106 12q25 -2 25 -5q0 -2 -16 -2q-41 1 -82 -9q-59 -15 -59 -47q0 -40 102 -40q18 0 191 8q19 29 37 43q25 15 28 11q1 -2 -11 -15q-7 -11 -21 -37q21 2 36 2q77 1 120 -22.5t43 -72.5q0 -48 -54 -95q-36 -31 -84 -54q66 -23 106 -66q46 -48 46 -110q0 -21 -6 -44z
M636 529q5 41 -25.5 62t-82.5 21q-31 0 -43 -1q-36 -73 -99 -208q7 1 21 1q63 0 121 -15q39 17 68 51q34 39 40 89zM510 379q-41 14 -104 16q-14 0 -25 -1l-24 -51q59 1 153 36zM333 390q-56 -11 -57 -33q-3 -15 34 -15q8 16 23 48z" />
    <glyph glyph-name="C" unicode="C" horiz-adv-x="743" 
d="M290 -73q-137 -3 -210 43q-84 52 -76 164q7 92 71 188q55 82 139 148q91 72 202 117q99 40 184 48q18 2 37 2q137 0 152 -69q2 -10 2 -19q0 -55 -65 -92q-60 -35 -133 -35q-48 0 -82 15q-25 12 -39 30q-11 15 -8 19l12 -12q16 -17 39 -27q33 -15 78 -15q60 0 105 29
q51 33 51 83q0 11 -3 22q-14 60 -119 60q-15 0 -31 -1q-69 -6 -156 -45q-104 -46 -191 -121q-78 -67 -127 -149q-56 -91 -61 -177q-6 -100 59 -149q60 -44 174 -42q154 3 280 73q106 59 120 147q2 15 0 29q-3 19 -4 18q8 4 21 -14q9 -15 8 -33q-3 -82 -141 -158
q-134 -74 -288 -77z" />
    <glyph glyph-name="D" unicode="D" horiz-adv-x="945" 
d="M944 277q-34 -144 -154 -254q-106 -97 -270 -97q-139 0 -260 104q-45 39 -79 74q-25 -33 -58 -89.5t-43 -84.5l-6 -17q-8 0 0 27q21 72 86 185q-27 34 -50 57q-15 -11 -28 -43q-37 -92 -38 -153q-1 -54 15 -81l6 -11q-9 2 -16 15q-20 32 -20 79q0 91 33 168q18 43 31 44
q9 1 30 -5.5t56 -41.5q48 89 124 198q27 38 189 235q-79 -8 -158 -17q-98 -10 -176 -11q-52 -1 -92 13q-47 17 -47 47q0 38 68 58q53 15 99 12q40 -2 36 -10q0 1 -26 2q-41 2 -83 -10q-57 -16 -57 -50q0 -44 111 -44q118 0 334 22l16 24l-26 -5q22 18 49 42q18 13 20 12
q4 -2 -4 -18.5t-33 -52.5q40 4 78 4q156 0 245 -54q107 -64 107 -201q0 -36 -9 -72zM888 280q13 45 13 91q0 114 -74 166.5t-235 52.5q-37 0 -77 -3q-117 -187 -179 -272q-48 -61 -135 -182q2 -2 79 -71q138 -124 244 -124q75 0 127.5 22t108.5 81q84 88 128 239z" />
    <glyph glyph-name="E" unicode="E" horiz-adv-x="628" 
d="M841 481q1 1 -13 9q-50 30 -226 83q-27 -58 -85 -176q-17 -36 -51 -101q35 -8 78 -16q76 -14 114 -15q9 0 8 -3q-1 -5 -17 -5q-85 -2 -193 20q-86 -153 -156 -221q23 -17 71 -51q103 -72 166 -103q76 -37 140 -37q84 0 119 62q5 9 7 8q4 -2 -2 -13q-9 -26 -37 -47
q-37 -27 -91 -27q-143 0 -319 126q-28 20 -80 58q-95 -78 -180 -75q-46 2 -69 25q-16 16 -16 34q0 5 2 6l9 -12t24 -20q23 -12 56 -14q55 -3 99 21q31 17 58 47q-45 34 -89 67q-71 51 -93 56q-20 5 -20 -5q0 -18 36 -54q42 -41 90 -53q-62 3 -103 39q-34 30 -34 60
q0 13 8 18q19 13 42 7q61 -16 186 -108q50 58 132 218q-16 5 -40 13q-18 9 -13 19q4 6 28 -1l34 -12q9 17 48 93q67 132 95 182q-128 38 -244 38q-178 0 -182 -116q-1 -29 31 -68q26 -32 57 -53q7 -7 7 -8q-1 -3 -13 4q-107 61 -116 114q-2 10 -2 18q0 70 90 102
q64 22 153 22q21 0 36 -1q101 -9 195 -32q28 49 55 74q17 16 32 23t18 4l-17 -20q-26 -32 -52 -90q139 -37 218 -97q16 -12 11 -16z" />
    <glyph glyph-name="F" unicode="F" horiz-adv-x="605" 
d="M844 481q1 1 -13 9q-55 33 -225 82q-22 -48 -74 -158q-36 -75 -60 -118q50 -13 84 -18q45 -8 128 -17q9 0 8 -3t-17 -4q-72 -3 -153 11q-29 5 -59 12q-74 -136 -165 -234q-127 -135 -241 -135q-37 0 -58.5 15.5t-20.5 40.5q2 55 86 96q26 13 26 6l-22 -14
q-56 -36 -57 -77q-1 -23 16 -38t45 -15q100 0 208 142q58 76 136 225q-55 15 -49 32q5 7 38 -7q6 -2 21 -6q17 31 58 112q31 61 84 163q-131 38 -246 38q-177 0 -181 -116q-1 -29 31 -68q26 -32 57 -53q7 -7 7 -8q-1 -3 -13 4q-107 60 -116 114q-2 10 -2 18q0 70 90 102
q64 22 153 22q21 0 36 -1q107 -10 194 -32q20 34 48 65q11 12 33 22q19 10 22 7l-13 -17q-26 -33 -53 -87q141 -38 218 -96q16 -12 11 -16z" />
    <glyph glyph-name="G" unicode="G" horiz-adv-x="777" 
d="M794 576q0 -45 -59 -74q-51 -25 -109 -25q-40 0 -62 12q-26 14 -20 20q1 1 10 -5t12 -7q27 -10 59 -9q45 1 83 22q45 26 45 64q0 30 -47 45q-39 13 -99 12q-77 -1 -172 -37q-112 -42 -194 -115q-176 -157 -176 -330q0 -80 51.5 -124t146.5 -44q16 0 32 1q142 11 262 97
q65 47 110 114q19 29 37 73q11 29 20 25q18 -5 18 -27q0 -13 -8.5 -28.5t-17.5 -28.5q-22 -57 -61 -152q15 8 30 15q24 11 42 15q5 2 6 -1q0 -3 -3 -5q-16 -7 -44 -20q-20 -10 -38 -22q-34 -78 -66 -133t-79 -95q-41 -35 -61 -35q-18 0 -13 30q8 49 64 120q47 59 110 107
q25 54 55 130q-33 -50 -95 -95q-134 -96 -304 -96q-109 0 -176 44q-73 49 -73 136q0 97 59 192q50 81 133 147q87 69 214 113q109 37 194 40q184 6 184 -66zM594 11q-45 -33 -92 -94q-32 -41 -46 -96q-6 -24 0 -27q11 -4 28 16q25 30 48 72q28 51 62 129z" />
    <glyph glyph-name="H" unicode="H" horiz-adv-x="918" 
d="M997 547q-47 -145 -101 -264q-5 -11 -9 -19q14 -6 40 -17q10 -5 9 -7q-1 -3 -13 2q-25 10 -40 14q-37 -80 -119 -198q55 56 101 73q8 3 8 -2l-19 -12q-36 -23 -85.5 -72.5t-67.5 -72.5q-14 -14 -15 -14q-5 2 0 11l27 47q62 108 128 254q-53 16 -115 26q-52 9 -112 12
q-89 -146 -197 -249q-67 -64 -143 -103q-87 -45 -162 -45q-107 0 -107 96q0 64 44.5 130t122.5 113q61 37 155 58q91 20 181 19q29 0 65 -2q33 54 55 100q44 92 66 153q-46 10 -106 26.5t-95 24.5q-63 14 -119 19t-99 -17q-61 -31 -57 -108q2 -29 27 -67q20 -30 43 -49
q7 -7 6 -9q-1 -3 -10 4q-91 66 -100 113q-3 15 -3 28q0 73 82 101q49 17 119 16q73 -1 209 -38q70 -19 107 -32q4 14 6 30q1 7 5 8q5 1 9 -16t3 -30q21 -6 61 -17q16 -4 16 -5q-1 -3 -17 -2q-26 5 -61 14q-9 -72 -47 -155q-28 -61 -51 -96q49 -4 104 -13q59 -9 118 -30
q4 7 8 16q50 109 102 242q12 25 32 71q7 16 32 22q3 1 5 -1q1 -3 -2 -10.5t-24 -70.5zM565 310q-10 0 -27 1h-24q-80 0 -170 -22q-100 -23 -158 -61q-166 -108 -168 -224q-1 -83 96 -83q116 0 272 150q83 80 179 239z" />
    <glyph glyph-name="I" unicode="I" horiz-adv-x="425" 
d="M572 564q-1 -5 -17 -3q-10 2 -31 6q-7 -77 -50 -180q-71 -169 -178 -306q-74 -94 -140 -147q-53 -42 -88 -34q-29 7 -28 44q1 57 51 108q16 17 27 22q-9 -11 -16 -24q-36 -72 -36 -122q0 -20 13 -20q24 0 52 26q59 56 125 152q98 142 170 305q43 97 69 184
q-63 13 -124 30q-129 35 -212 43q-57 5 -98 -17q-59 -31 -53 -108q2 -29 29 -67q21 -30 44 -49l7 -9q-1 -3 -11 4q-93 62 -104 113q-4 17 -4 32q0 70 81 98q48 16 110 15q75 -1 171 -26l166 -48q3 20 0 33q-2 8 1 9q6 3 16 -14t11 -36q3 -1 30 -9z" />
    <glyph glyph-name="J" unicode="J" horiz-adv-x="574" 
d="M702 562q-1 -2 -4 -2l-42 9q-9 -81 -52 -179q-49 -112 -101 -205q-32 -56 -58 -94q31 11 91 39q8 5 15 12q4 4 5 3q9 -6 -22 -25q-40 -25 -101 -46q-46 -65 -97 -113q-66 -63 -158 -112q-107 -57 -184 -57q-69 0 -70 38q-1 65 174 145q77 35 285 99q26 36 66 107
q53 92 106 211q49 108 68 184q-74 15 -103 19q-67 10 -135 12q-114 3 -168 -20q-84 -35 -84 -137q0 -13 1 -26q6 -62 69 -116q8 -6 6 -8q-1 -2 -9 2q-31 17 -60 45q-37 36 -44 69q-4 21 -4 40q0 101 118 143q77 27 188 26q88 -1 227 -37q1 19 6 42q5 2 13.5 -13t11.5 -36
q19 -5 33.5 -10t12.5 -9zM372 58q-88 -32 -265 -105q-168 -78 -165 -123q2 -30 53 -30q14 0 33 3q58 9 133 52.5t131 103.5q44 47 80 99z" />
    <glyph glyph-name="K" unicode="K" horiz-adv-x="699" 
d="M618 663q1 -1 -5 -7q-10 -9 -17 -17q-21 -26 -36 -57q14 -6 19 -9q15 -7 13 -10q-1 -2 -3 -1q-11 4 -33 11q-30 -71 -125 -271q-89 -175 -187 -281q-109 -118 -202 -120q-34 -1 -50 21q-14 17 -9 26q0 -1 13 -12q20 -16 56 -16q83 0 164 104q58 75 165 283
q58 117 144 278q-55 19 -113 35q-106 29 -212 32q-60 2 -99 -19q-61 -31 -57 -111q1 -31 26 -71q20 -32 43 -52q8 -7 6 -9q-1 -2 -9 3q-92 63 -102 117q-3 15 -3 28q0 78 87 110q50 18 118 18q80 0 204 -30q53 -13 117 -41q12 21 29 38t35 25.5t23 4.5zM970 552
q1 -11 -3 -22t-8 -11q1 0 -4 21q-9 39 -58 39q-62 0 -176 -81q-79 -56 -197 -162q-14 -12 -15 -19q-1 -5 8 -30q36 -98 82 -188q65 -125 105 -175q64 -80 134 -80q41 0 68 24q24 21 31 55q3 15 4 15q3 0 7.5 -10.5t2.5 -22.5q-5 -34 -42 -53q-32 -18 -73 -18
q-149 0 -280 247q-57 106 -86 207q-7 23 -4 30q1 5 19 20q103 89 225 173q139 96 201 96q61 0 59 -55z" />
    <glyph glyph-name="L" unicode="L" horiz-adv-x="365" 
d="M774 580q-3 -43 -37 -75q-5 -5 -8 -1q1 -1 6 8q21 29 21 62q0 73 -85 73q-83 0 -162 -65q-65 -54 -160 -184q-100 -137 -170 -255q44 -60 115 -134q159 -166 266 -166q64 0 100 52q7 10 8 9q3 -2 -1 -11q-38 -77 -118 -77q-61 0 -122.5 35t-143.5 118q-59 59 -119 149
q-64 -106 -96 -187q-8 -21 -9 -21q-6 4 1 36q19 81 83 203q-21 37 -43 62q-16 -8 -35 -38q-55 -88 -56 -201q0 -31 7 -57q4 -12 12 -23q-14 6 -24 28q-18 40 -19 85q-2 109 59 185q25 31 43 33q12 1 31 -6q8 -2 37 -44q67 132 154 243q79 101 179 174q110 79 185 79
q51 0 79 -28q24 -25 22 -61z" />
    <glyph glyph-name="M" unicode="M" horiz-adv-x="993" 
d="M1065 579q10 -21 -10 -81q-27 -81 -88 -235q-42 -104 -102 -216q55 62 89 73q5 1 8 -2q-5 -3 -16 -10q-32 -21 -74 -76q-19 -25 -52 -61q-20 -22 -21 -22q-17 5 -9 20t20 38q21 43 108 258q37 92 113 261q7 15 12 31q4 13 2 13q-1 1 -8 -9.5t-20 -31.5q-48 -79 -153 -215
q-62 -80 -183 -206q-50 -52 -125 -116q-23 -36 -41 -31q-11 2 5 27q6 9 15 20q20 48 51 135q44 123 74 223l65 214l-10 1q-66 -110 -161 -230q-90 -112 -168 -188q-127 -123 -254 -192q-112 -61 -185 -62q-77 -1 -85 35q-6 26 22 51q23 21 56 30q16 4 17 2q0 -1 -8 -5
q-26 -10 -44 -31t-13 -40q7 -29 61 -29q158 0 454 289q158 154 296 372q-29 5 -95 16q-173 29 -183 30q-100 15 -179 17q-82 3 -139 -18q-84 -30 -78 -103q2 -28 36 -62q30 -31 63 -46q12 -5 11 -7q-1 -1 -14 3q-47 15 -87 43.5t-48 56.5q-4 15 -4 28q0 69 105 99
q76 21 167 16q163 -9 354 -40q1 0 99 -19q34 52 56 121q3 10 7 9q9 -2 10 -25q1 -26 -9 -74q-3 -15 -9 -40q78 -12 117 -13l23 -1q0 -6 -24 -6q-53 0 -119 7q-15 -69 -55 -218q-28 -94 -82 -223q-31 -74 -56 -117q60 56 97 95q63 66 87 92q53 59 99 117q90 114 151 209
q17 27 33 48q8 11 16 10q9 -2 12 -9zM740 629q-2 -3 -9 -16.5t-9 -17.5l7 -1q4 11 11 35z" />
    <glyph glyph-name="N" unicode="N" horiz-adv-x="795" 
d="M1054 587q-42 0 -73 -20q-36 -23 -89 -106q-34 -53 -81 -148q-56 -113 -95 -207q-13 -29 -41 -100q-23 -60 -37 -57q-12 2 -2 33q5 9 12 26q8 48 1 143q-7 93 -24 202q-13 82 -34 142q0 -12 -6 -34q-35 -126 -124 -258q-100 -148 -227 -231q-119 -78 -216 -71
q-40 3 -63.5 23.5t-21.5 53.5q3 38 32 49q-9 -13 -7 -45q3 -59 72 -65q192 -16 411 305q105 154 133 240q14 43 1 71q-69 152 -242 152q-78 0 -128.5 -51.5t-47.5 -129.5q5 -116 97 -155q11 -4 10 -6q-2 -3 -17 0q-124 43 -128 163q-3 81 63 135.5t161 54.5q202 0 281 -170
q34 -72 51 -183q16 -101 14 -189q-1 -71 -13 -129q14 47 31 90q25 65 90 213q53 113 86 165q42 66 85 93q23 14 48 15q31 1 38 -14z" />
    <glyph glyph-name="O" unicode="O" horiz-adv-x="619" 
d="M629 498q12 -44 12 -95q0 -135 -76 -261q-53 -88 -143 -149q-98 -66 -195 -66q-83 0 -138.5 49.5t-61.5 133.5q-7 106 45 213q29 61 65 101q-14 26 -16 60q-5 78 57 130.5t151 53.5q194 3 251 -164q8 -23 -4 -25q-8 -1 -16 22q-5 14 -18 38q-28 31 -81 33q-82 3 -145 -36
q-77 -47 -141 -136q29 -46 85 -68q11 -4 10 -6q-3 -4 -16 1q-59 21 -90 57q-15 -22 -43 -69q-60 -115 -60 -205q0 -149 128 -170q18 -3 35 -3q86 0 169 67q68 55 121 145q98 164 98 295q0 137 -125 215q-6 2 -3 5q3 2 9 -1q39 -20 75 -60q46 -49 61 -105zM536 557
q-30 45 -82 72q-59 31 -130 30q-76 -1 -128.5 -52t-46.5 -128q2 -21 7 -36q57 65 145 107q76 36 159 31q46 -3 76 -24z" />
    <glyph glyph-name="P" unicode="P" horiz-adv-x="618" 
d="M746 399q-25 -88 -117 -127q-73 -31 -179 -29q-79 2 -141 33q-143 -260 -236 -345q-38 -35 -59 -31q-34 6 -34 65q0 69 64 138q14 16 30 26t18 7l-10 -9q-14 -12 -26 -30q-45 -68 -48 -149q-1 -37 11 -39q14 -3 46 32.5t90 141.5q17 31 114 216q-23 16 -38 32t-15 24
q0 2 1 3q1 0 6 -6q6 -10 14 -16q13 -14 36 -29q15 31 48 94q70 135 102 188q-43 2 -151 9q-64 5 -89 11q-46 12 -43 37q3 26 63 40q49 11 95 8q24 -2 24 -5q0 -4 -16 -3q-123 5 -130 -39q-4 -28 99 -37q46 -2 154 -11q21 33 35 48q20 21 41 33.5t25 8.5l-15 -21
q-29 -40 -46 -72q13 -1 47 -5q236 -29 236 -153q0 -19 -6 -39zM694 401q8 26 8 48q0 108 -191 132q-31 4 -47 5q-26 -53 -91 -186q-33 -68 -59 -114q62 -30 134 -31q200 -2 246 146z" />
    <glyph glyph-name="Q" unicode="Q" horiz-adv-x="594" 
d="M669 511q3 -19 3 -40q0 -153 -146 -322q-83 -96 -223 -191q-35 -21 -102 -59q118 33 205 33q150 0 148 -81q-1 -19 -14 -34q-11 -11 -14 -8q1 -1 10 13q5 7 5 18q-1 32 -49 51q-41 17 -92 17q-136 0 -241 -35q-58 -45 -138 -84l-90 -42q-8 -4 -9 -3q-3 3 3 10
q30 37 68 60q67 40 173 76q56 33 90 58q120 88 221 213q156 193 156 326q0 59 -31 95.5t-89 37.5q-89 1 -188 -60q-115 -72 -200 -213q-98 -163 -100 -259q-2 -107 92 -107q75 0 175 74q63 46 104 101q31 41 39 70q5 16 1 31q-2 11 -1 11q12 4 12 -26q0 -10 -3 -22
q-8 -33 -34 -74q-38 -62 -101 -108q-91 -67 -189 -67q-120 0 -128 120q-8 125 83 265q89 136 217 212q106 63 221 61q54 -1 95 -26q51 -32 61 -92zM137 -134q-83 -30 -140 -64q-25 -15 -52 -37q98 41 192 101z" />
    <glyph glyph-name="R" unicode="R" horiz-adv-x="573" 
d="M826 -85q-5 -34 -43 -54q-33 -18 -74 -18q-150 0 -285 248q-32 68 -84 171q-31 7 -51 14q-137 -250 -237 -341q-42 -39 -67 -35q-26 4 -25 37q1 37 25.5 79.5t57.5 57.5q-6 -7 -17 -24q-41 -78 -41 -127q0 -13 6 -14q16 -3 47 30q44 47 211 358q-22 10 -31 18
q-31 22 -31 40q0 4 2 7q7 8 24 8q34 0 65 -19q22 44 34 67q79 151 114 204q-73 8 -154 7q-106 -1 -175 -23q-115 -36 -105 -124q3 -30 37 -63q30 -28 67 -45q8 -6 8 -7q-1 -2 -14 2q-49 15 -86 41q-42 30 -48 60q-3 14 -3 26q0 88 134 124q81 22 186 22q74 0 159 -10
q10 13 32 37q14 13 30 19.5t19 3.5q1 -1 -13.5 -17.5t-33.5 -48.5q42 -6 69 -15q171 -55 171 -162q0 -19 -6 -38q-24 -82 -121 -125q-81 -36 -175 -32q-11 0 -20 2q25 -44 85 -150q79 -138 112 -178q61 -74 130 -74q41 0 68 24q25 21 32 55l3 15q4 0 9 -10.5t3 -22.5z
M646 414q7 23 7 45q0 90 -125 139q-26 10 -67 18q-28 -58 -104 -213q-20 -40 -40 -76q36 -28 60 -61q16 -2 27 -2q85 -1 149 35q71 41 93 115zM270 338q-34 24 -55 24q-7 0 -12 -5q-1 -2 -1 -4q0 -13 24 -32q9 -7 27 -16q3 5 9 17zM335 273q-10 19 -27 38q-2 -4 -7 -13
t-7 -13q14 -6 41 -12z" />
    <glyph glyph-name="S" unicode="S" horiz-adv-x="808" 
d="M846 365q-2 -84 -67 -170q-59 -78 -160 -144q-193 -126 -426 -126q-89 0 -146 34q-69 42 -65 124q4 84 71.5 162t173.5 124q125 55 268 51q64 -2 105 -23q48 -24 44 -66q-4 -39 -43.5 -79t-95.5 -67q-91 -44 -184 -44q-40 0 -39 21q1 23 32 28q14 2 14 -3q0 -3 -13 -6
q-24 -6 -24 -18q0 -9 29 -9q63 0 170 52q136 66 141 128q5 64 -135 64q-122 0 -254 -58q-99 -43 -168 -110q-77 -75 -80 -148q-4 -75 61 -111q52 -29 138 -29q188 0 407 138q231 146 235 285q2 61 -58 79q-40 12 -143 9q-82 -2 -132 19q-55 23 -51 70q5 59 92 97
q78 33 164 31q38 -1 72.5 -11.5t32.5 -23.5q-1 -13 -24 -13q-11 0 -12 4q-1 3 8.5 7t9.5 7q0 7 -85 8t-161 -27q-84 -30 -88 -76q-3 -35 61 -45q27 -4 113 -4q215 0 212 -131z" />
    <glyph glyph-name="T" unicode="T" horiz-adv-x="599" 
d="M931 507l-30 11q-116 44 -196 64q-7 -86 -56 -194q-77 -170 -183 -297q-62 -75 -158 -126t-176 -51q-146 0 -166 82q-8 16 -8 38q0 26 10 43q6 11 10 10q1 0 -4 -18q-1 -6 -1 -14q0 -44 28 -79q43 -53 133 -53q69 0 148 49q73 45 133 117q100 121 185 302q59 125 76 199
q-179 44 -278 46q-76 1 -135 -21q-85 -33 -75 -107q7 -57 99 -116q8 -6 7 -9q-1 -2 -12 4q-119 59 -132 112q-4 14 -4 27q0 74 111 103q66 18 151 17q139 -2 272 -33q-2 20 1 40q3 1 12 -13t12 -34q94 -26 198 -79q30 -15 28 -20z" />
    <glyph glyph-name="U" unicode="U" horiz-adv-x="761" 
d="M967 600q-10 -2 -26 -8q-35 -17 -77 -80q-35 -53 -75 -140q-65 -142 -108 -246q-28 -67 -59 -146q26 29 57 40q5 1 8 -1q0 -2 -6 -5q-9 -4 -12 -6q-24 -17 -45 -43q-30 -37 -33 -39q-8 -9 -14 -7q-18 6 -11 24q38 103 75 191q-111 -182 -238 -182q-112 0 -218 99
q-71 -47 -136 -47q-18 0 -30 5.5t-9 10.5l12 -4q8 -3 18 -3q57 0 131 52q-9 8 -33 32q-27 28 -72 69q-18 14 -30 7q-19 -11 9 -43t48 -38q-40 0 -61 28q-11 15 -11 33t11 27q17 13 43 1q33 -16 78 -56q17 -14 47 -40q25 19 41 34q82 81 153 211q66 121 68 207
q3 110 -110 112q-77 1 -167.5 -91.5t-90.5 -170.5q0 -46 45 -46q34 0 65 17q12 7 13 6q3 -4 -11 -13q-36 -19 -67 -19q-56 0 -60 57q-6 89 82 183q83 88 195 87q61 -1 102.5 -34t44.5 -88q5 -96 -60 -218q-56 -104 -167 -202q-15 -13 -60 -47q114 -101 191 -103
q122 -3 253 216q34 81 70 155q59 120 96 172q30 42 69 68q33 23 58 26q7 1 11 0t3 -4z" />
    <glyph glyph-name="V" unicode="V" horiz-adv-x="629" 
d="M837 591q0 -26 -18 -64q-30 -66 -87 -144q10 -21 19 -36q-12 10 -24 29q-12 -16 -31 -38q-66 -76 -180 -184q-120 -113 -290 -217q-35 -21 -45 -18q-4 1 -4 7q0 14 18 41q110 162 179 341q55 141 55 226q0 129 -113 134q-90 4 -179 -62q-64 -47 -103 -107
q-43 -65 -39 -122q3 -44 48 -46q24 -1 64 15l14 5q3 -3 -11 -11q-32 -18 -66 -18q-26 0 -45 15t-21 42q-6 62 32 127q34 61 96 108q91 69 211 64q58 -3 100 -32q46 -33 55 -85q4 -25 4 -51q0 -79 -54 -216q-22 -56 -75 -149.5t-100 -159.5q-21 -30 -20 -32q2 -4 33 17
q121 82 238 193q75 71 179 198q18 22 33 43q-19 40 -19 82q0 44 20 78q15 26 43 43t51 17q32 0 32 -33zM805 614q-37 0 -77 -71q-18 -32 -18 -79q0 -26 7 -51q57 75 96 152q10 20 10 33q0 16 -18 16z" />
    <glyph glyph-name="W" unicode="W" horiz-adv-x="1096" 
d="M1277 518q4 -43 -26.5 -68t-81.5 -25q-54 0 -149 40q-14 6 -40 20l14 -14q77 -88 77 -200q0 -110 -72 -217q-81 -119 -185 -115q-79 3 -126 68q-51 69 -51 191t42 244q-23 -38 -61 -87q-54 -69 -181 -187q-39 -36 -117.5 -95.5t-121.5 -85.5q-19 -24 -58 -69
q-18 -19 -27 -16q-15 2 -5 22q17 35 60 69q129 167 201 315q38 78 53 123q24 72 20 134q-3 45 -31.5 72.5t-75.5 29.5q-88 3 -177 -58q-66 -45 -110 -106q-48 -68 -45 -126q2 -44 46 -46q30 -1 65 15q13 6 14 5q3 -4 -11 -11q-34 -18 -67 -18q-59 0 -64 57q-6 63 39 132
q39 62 103 106q95 66 208 60q62 -3 103 -33.5t47 -82.5q2 -18 2 -36q0 -87 -72 -231q-54 -108 -193 -275q119 78 210 163q116 109 178 184q38 47 80 118q15 48 37 88q14 25 25 20q14 -4 6 -26q-4 -11 -46 -77q-34 -122 -27 -289q5 -123 33 -183q31 -65 94 -68q99 -4 166 124
q57 107 57 218q0 106 -51 173q-18 23 -37 31q-22 8 -59 26q-8 5 -6 12q2 4 16 1q44 -8 71 -37q23 -11 51 -22q80 -30 145 -30q47 0 73.5 20.5t26.5 53.5q0 13 -5 26q-3 8 -1 9q5 1 8 -7q8 -13 9 -29z" />
    <glyph glyph-name="X" unicode="X" horiz-adv-x="638" 
d="M940 552l-13 14q-16 16 -44 18q-72 5 -149.5 -55t-175.5 -160q0 -97 -7 -165q-11 -110 -30 -166q29 55 73 69q9 5 9 -1q0 1 -17 -10q-24 -16 -53 -55q-11 -17 -37 -55q-12 -16 -19 -15q-16 2 -11 12q6 13 11 30q10 36 28 193q7 60 7 121q-45 -49 -149 -162
q-49 -52 -99 -94q-27 -23 -48 -36q35 -25 51 -34q35 -20 60 -21q69 -3 99 56q5 10 8 8t-5 -19q-31 -61 -108 -60q-62 1 -135 52q-57 -34 -102 -34q-17 0 -30.5 6t-9.5 12q0 1 11.5 -3.5t26.5 -4.5q37 0 92 33q-12 9 -32 25q-31 28 -77 69q-15 13 -23 13q-4 0 -7 -2
q-12 -8 9 -43q17 -29 37 -40q-25 4 -42.5 22t-17.5 42q0 19 10 25q13 10 43 -2q21 -9 90 -60q27 -20 40 -31q16 11 45 34q55 45 105 98q46 49 157 171q0 101 -9 157q-24 150 -135 150q-95 0 -192 -86q-111 -99 -111 -191q0 -45 45 -47q31 -2 65 14q15 7 15 6q3 -3 -12 -11
q-36 -18 -68 -17q-56 2 -61 56q-5 52 27 110q29 54 78 95q96 80 215 80q148 0 177 -143q13 -63 13 -131q91 97 161 152q95 74 164 68q28 -3 45 -23q13 -15 13 -29q0 -4 -1 -5z" />
    <glyph glyph-name="Y" unicode="Y" horiz-adv-x="695" 
d="M802 528q-15 -37 -44 -74q-43 -141 -89 -242q-120 -262 -285 -414q-178 -164 -353 -164q-38 0 -60 19q-17 13 -17 28q0 4 2 5q-2 -1 16 -11q23 -12 66 -14q90 -3 167 33q70 33 147 108q148 144 286 440q24 50 75 162q-99 -169 -249 -300q-131 -114 -217 -142
q-33 -11 -49 -3q-13 6 -13 24q0 14 8 30q6 13 73.5 118.5t102.5 176.5q79 162 73 257q-6 96 -103 100q-85 3 -174 -53q-70 -44 -118 -105q-56 -70 -53 -130q2 -44 46 -46q29 -1 66 16q13 6 13 5q2 -4 -11 -11q-36 -19 -68 -19q-57 0 -60 54q-3 64 41 133q40 62 96 100
q104 70 221 66q70 -2 110.5 -43.5t41.5 -104.5q1 -94 -73 -233q-33 -63 -175 -276q-21 -31 -15 -40q7 -11 36 2q80 35 197 137q151 132 266 331q14 39 37 86q16 32 33 27t6 -33z" />
    <glyph glyph-name="Z" unicode="Z" horiz-adv-x="440" 
d="M690 654q11 -13 -17 -38q-15 -14 -55 -50q25 -16 40 -31q11 -11 7 -13l-9 7q-21 15 -47 27q-77 -73 -196 -192q-143 -143 -210 -217q48 -76 95 -131q86 -102 156 -102q61 0 100 56q6 11 9 10q4 -3 -1 -12q-41 -70 -112 -71q-94 -2 -173 92q-29 34 -92 140
q-87 -85 -141 -171l-14 -22q-5 2 3 24q29 78 136 198q-15 28 -33 56q-18 -7 -41 -40q-86 -120 -92 -208q-1 -19 2 -35q2 -12 3 -11q-5 -5 -12 15q-8 16 -8 42q0 96 76 202q33 46 52 48q15 2 29.5 -2.5t39.5 -49.5q80 97 196 216q94 96 197 181q-49 23 -99 39q-54 18 -75 24
q-46 13 -94 19q-16 2 -33 2q-133 0 -135 -105q-1 -27 22 -62q19 -28 41 -47q7 -6 5 -8t-9 3q-80 53 -87 104q-1 9 -1 17q0 61 66 89q47 19 115 19q18 0 32 -1q82 -9 163 -36q49 -16 102 -46q9 8 34 27l-1 12q16 4 38 22q19 16 28 10z" />
    <glyph glyph-name="bracketleft" unicode="[" horiz-adv-x="339" 
d="M520 644q-1 -6 -14 -6h-111l-352 -793h113q22 0 22 -6t-18 -6h-127q-27 0 -27 14q0 10 11 33q65 140 330 740q9 21 17 25.5t35 4.5h103q19 0 18 -6z" />
    <glyph glyph-name="backslash" unicode="\" horiz-adv-x="150" 
d="M116 -130q-6 -3 -13 22q-42 145 -51 289q-3 39 -3 80q0 135 21 242q7 35 13 34q2 0 1 -33q-6 -150 5 -341q10 -164 26 -269q3 -22 1 -24z" />
    <glyph glyph-name="bracketright" unicode="]" horiz-adv-x="339" 
d="M400 603q-65 -140 -330 -740q-9 -21 -17 -25.5t-35 -4.5h-103q-19 0 -18 6t14 6h111l352 793h-113q-22 0 -22 6t18 6h127q27 0 27 -14q0 -10 -11 -33z" />
    <glyph glyph-name="asciicircum" unicode="^" horiz-adv-x="500" 
d="M391 194q-4 -3 -13 9q-29 40 -56 96q-68 -48 -178 -100q-26 -12 -29 -7q-2 4 12 12q88 51 186 127q15 12 24 12q7 0 12 -16q20 -70 42 -119q5 -12 0 -14z" />
    <glyph glyph-name="underscore" unicode="_" horiz-adv-x="500" 
d="M410 -237h-508v32h508v-32z" />
    <glyph glyph-name="grave" unicode="`" 
d="M277 314q-14 -1 -44 13t-46 29q-19 18 -19 30t12 12q14 0 31 -20l32 -36q20 -20 34 -28z" />
    <glyph glyph-name="a" unicode="a" horiz-adv-x="259" 
d="M245 264q-18 -44 -55 -139q-23 -60 -54 -117q26 33 54 55q23 18 35 22q6 3 7 1q2 -3 -5 -6q-16 -8 -42 -33t-50 -54q-16 -19 -28 -17q-14 2 -5 22q24 54 69 171q-37 -66 -85 -116q-44 -46 -68 -45q-30 2 -30 44q0 33 20 77q23 50 72 95q56 52 96 50q25 -1 28 -24
q7 13 11 19q9 12 20 10q15 -3 10 -15zM192 234q2 6 2 11q0 19 -20 19q-32 0 -72 -49q-35 -45 -66 -114q-17 -38 -17 -60q0 -14 10 -15q20 -1 61 46q35 40 69 94q20 33 33 68z" />
    <glyph glyph-name="b" unicode="b" horiz-adv-x="221" 
d="M264 514q0 -1 -5 -4q-9 -5 -18 -14q-15 -15 -52 -79q-41 -68 -73 -138q-64 -138 -85 -228q-10 -43 11 -46q20 -3 50 37q26 34 43.5 78.5t23.5 77.5q2 9 2 17q0 25 -22 39q-18 11 -5 23q3 2 6 2q10 0 21 -13q5 -5 14 -23q11 -11 25 -11q9 -1 20.5 4.5t10.5 6.5
q6 -4 -6.5 -12.5t-24.5 -8.5q-13 0 -21 5q7 -17 7 -41q0 -39 -15 -73q-23 -52 -61.5 -86t-69.5 -32q-42 3 -42 55q0 74 78 234q76 155 150 215q21 17 34 17q3 0 4 -2z" />
    <glyph glyph-name="c" unicode="c" horiz-adv-x="177" 
d="M196 268q1 -15 -16 -27q-10 -5 -11 -2q-1 1 2 9.5t3 16.5q0 10 -7 11q-29 4 -72 -57.5t-62 -130.5q-9 -34 -9 -52q0 -25 18 -25q23 0 56 42q24 29 40 62q11 22 10 22q6 -1 -4 -27q-19 -49 -57 -85q-28 -27 -55 -27q-44 0 -45 50q-1 45 25 98q29 58 73 97.5t83 40.5
q27 0 28 -16z" />
    <glyph glyph-name="d" unicode="d" horiz-adv-x="217" 
d="M283 273q-8 -8 -33 4q-15 7 -27 16q-12 -86 -58 -171q-28 -52 -69 -90q-44 -42 -72 -37q-37 6 -37 57q0 40 28 99q45 97 138 120q17 4 17 -1q0 -1 -16 -7q-62 -22 -106 -126q-30 -70 -30 -108q0 -21 11 -23q18 -4 52 39q39 51 69 133q14 39 22 63q12 42 17 75
q-8 8 -22 25q-35 47 -35 89q0 44 24 46q22 1 41 -25q23 -30 27 -78q3 -34 0 -68q12 -12 34 -24q8 -4 18 -6q7 -1 7 -2zM193 368q-2 49 -16 78q-12 23 -23 23q-5 0 -5 -23q0 -21 3 -36q9 -45 39 -82q3 19 2 40z" />
    <glyph glyph-name="e" unicode="e" horiz-adv-x="187" 
d="M215 268q0 -20 -19 -36q-31 -26 -71 -22q-16 2 -29 8q-18 -26 -28 -45q-29 -59 -42 -105q-5 -20 -5 -34q0 -23 13 -27q15 -4 38.5 14t40 46t25.5 63q3 12 6 12q4 0 3 -11q-1 -28 -24 -67q-47 -80 -98 -72q-39 6 -39 57q0 18 5 38q15 59 53 108q73 92 147 91q24 0 24 -18z
M186 265q0 10 -12 10q-17 0 -42 -19q-21 -16 -31 -31q13 -7 27 -7q21 -1 40 15.5t18 31.5z" />
    <glyph glyph-name="f" unicode="f" horiz-adv-x="167" 
d="M377 493q-3 -23 -38 -45q-13 -8 -14 -4l9 9q14 14 15 30q1 25 -25 25q-67 0 -133 -126q-24 -45 -55 -123q15 0 42 -2q39 -3 38 -8q0 -1 -37 -1q-17 0 -49 -2q-28 -71 -93 -232q-60 -143 -143 -227q-93 -95 -197 -95q-32 0 -51 18q-17 15 -12 22q0 1 15 -8q20 -11 51 -11
q114 0 187 87q47 57 112 213q39 93 57 147q6 18 4 42q-2 26 -22 37q-11 6 -10 9q3 7 26 9q15 1 42 1q30 76 61 124q91 140 190 140q34 0 30 -29zM90 245q-18 0 -34 -2q18 -20 9 -61z" />
    <glyph glyph-name="g" unicode="g" horiz-adv-x="242" 
d="M259 266q1 -7 -5.5 -12t-9.5 -4q1 2 -2 12.5t-20 10.5q-34 0 -71 -22q-73 -43 -118 -149q-16 -38 -17 -62q-1 -15 8 -17q16 -3 49 32q25 27 85 114q11 17 29 42q15 13 34 21q10 4 11 1q0 -1 -8 -9q-37 -75 -96 -235q12 7 27 14q12 6 28 8q10 2 10 -1q0 -2 -7.5 -4.5
t-28.5 -11.5q-12 -5 -34 -20q-30 -64 -71 -126q-22 -33 -56.5 -63.5t-51.5 -30.5q-16 0 -12 23q7 44 53 105q38 50 97 89q6 12 68 170q-38 -61 -72 -96q-37 -38 -59 -37q-32 2 -33 45q-1 33 17 73q39 87 129 131q51 25 91 25q35 0 36 -16zM77 -45q-44 -26 -82 -79
q-28 -39 -39 -86q-4 -16 2 -18q7 -1 21 11q24 21 48 65q27 49 50 107z" />
    <glyph glyph-name="h" unicode="h" horiz-adv-x="225" 
d="M277 527q1 -1 -4 -5q-10 -6 -19 -15q-34 -33 -68 -89q-42 -69 -86 -167q-29 -65 -57 -139q29 38 64 79q42 48 74 75q21 17 34 12t4 -26q-18 -40 -53 -126q-23 -60 -37 -108q-2 -13 2 -15t28 17q7 7 9 6q5 -3 -4 -10q-35 -39 -58 -36q-18 2 -13 32q8 48 38 121
q14 32 40 95q4 11 2 13q-4 2 -13 -7q-41 -41 -76 -84q-27 -33 -79 -122q-5 -6 -16 -21q-8 -11 -17 -8q-7 2 0 20l49 129q18 49 61 148q34 70 75 130q39 57 89 89q26 17 31 12z" />
    <glyph glyph-name="i" unicode="i" horiz-adv-x="142" 
d="M207 440q-20 -24 -45 -62q-9 -23 -17 -21q-7 1 -11.5 9t-1.5 16q5 16 32 35q24 17 43 23zM134 275q-30 -54 -58 -127q-26 -67 -43 -119q26 24 49 35q8 4 8 0l-17 -12.5t-38 -36.5q-32 -36 -37 -35q-13 0 -12 13q0 3 2 8q15 49 50 147q17 41 52 112q-11 -5 -17 -7
q-11 0 -11 3t14 7q23 7 48 21q10 5 12 3q3 -3 -2 -12z" />
    <glyph glyph-name="j" unicode="j" horiz-adv-x="137" 
d="M199 440q-20 -24 -45 -62q-9 -23 -18 -21q-7 1 -11.5 9t-1.5 16q5 16 32 35q24 17 44 23zM126 277q-16 -45 -48.5 -130t-65.5 -152q6 4 23 12q12 5 29 9q9 0 9 -2t-8.5 -4.5t-28 -11.5t-30.5 -17q-32 -69 -65 -120q-28 -44 -64.5 -76.5t-56.5 -32.5q-15 0 -11 27
q7 48 53 105q40 50 104 91q29 59 74 173q24 61 41 113q-9 -6 -16 -7q-12 0 -12 3q0 2 14 6q26 10 50 23q7 4 9 1q3 -2 0 -10zM-38 -38q-57 -38 -91.5 -87t-41.5 -89q-3 -16 3 -19q16 -8 70 81q38 62 60 114z" />
    <glyph glyph-name="k" unicode="k" horiz-adv-x="263" 
d="M432 -84q-2 -29 -32.5 -45.5t-70.5 -15.5q-52 1 -101 52q-45 46 -77 123q-39 93 -45 177q-46 -125 -88 -193q-5 -8 -14 -20q-6 -8 -14 -7q-10 3 -10 21q0 41 18 84q23 56 69 108q18 50 39 95q38 83 78.5 137t83.5 82q29 18 34 13l-22 -22q-35 -35 -70 -90
q-32 -50 -71 -131q-7 -16 -24 -54q63 60 123 60q40 0 40 -25q0 -22 -32 -38.5t-72 -17.5q-24 0 -36 3q9 -73 46 -171q66 -176 153 -179q71 -2 82 79l5 -1q9 -11 8 -24zM238 257q0 16 -23 16q-43 0 -98 -50q26 -7 57 -5q26 2 45 13.5t19 25.5zM61 184q-31 -39 -50.5 -86.5
t-19.5 -95.5q13 21 38 93q16 44 32 89z" />
    <glyph glyph-name="l" unicode="l" horiz-adv-x="137" 
d="M268 512q0 -1 -5 -4q-9 -5 -18 -14q-17 -17 -54 -79q-42 -72 -73 -141q-64 -144 -86 -228q-10 -37 -3 -39q15 -5 42 41q10 16 11 16q6 -2 -6 -23q-33 -55 -61 -54q-25 1 -22 39q2 26 11 54q35 113 79 205q70 148 147 212q20 17 34 17q3 0 4 -2z" />
    <glyph glyph-name="m" unicode="m" horiz-adv-x="353" 
d="M344 252q-17 -40 -52 -126q-14 -35 -38 -108q-3 -13 2 -15q8 -1 23 14q7 7 9 6q3 -3 -4 -10q-33 -36 -53 -33q-17 2 -14 30q4 31 40 123q12 30 39 95q5 13 2 14q-3 2 -13 -8q-45 -45 -75 -82.5t-81 -125.5q-3 -5 -14.5 -17.5t-19.5 -10.5q-5 2 4 25q12 33 42 110
q13 31 38 95q4 12 2 13q-4 2 -13 -7q-41 -41 -76 -84q-24 -29 -79 -120q-5 -6 -16 -21q-6 -12 -15 -9q-9 4 -2 21q11 28 49 127l42 111q4 10 -4 10q-5 0 -23 -10q-6 -4 -7 -2t4 7q30 27 55 30q13 1 17 -6q3 -6 0 -17q-7 -25 -27 -74q-27 -62 -35 -85q29 38 64 79
q42 48 74 75q21 17 34 12q11 -5 3 -26q-8 -20 -57 -139q31 41 63 78q41 47 74 75q21 17 34 12t4 -26z" />
    <glyph glyph-name="n" unicode="n" horiz-adv-x="234" 
d="M226 252q-17 -40 -52 -126q-14 -34 -37 -108q-3 -13 1 -15q6 -3 24 14q8 7 9 6q2 -2 -5 -10q-31 -36 -52 -33q-18 2 -14 30q7 45 39 123q14 32 40 95q4 10 1 12q-4 2 -12 -6q-41 -41 -76 -84q-19 -23 -79 -122q-5 -6 -16 -21q-7 -11 -15 -8q-8 4 -2 20l91 240q4 10 -4 10
q-5 0 -23 -10q-5 -5 -7 -2q-1 2 4 7q30 27 55 30q13 1 17 -6q3 -6 0 -17q-22 -54 -62 -159q29 38 64 79q42 48 74 75q21 17 34 12q12 -5 3 -26z" />
    <glyph glyph-name="o" unicode="o" horiz-adv-x="208" 
d="M222 259q1 -2 -9 -7t-20 -5q-11 0 -22 6q12 -23 12 -56q0 -37 -16 -74q-25 -56 -69 -93.5t-71 -30.5q-37 10 -37 64q0 28 12 61q31 90 110 129q18 9 20 7l-12 -12q-61 -64 -90 -164q-9 -31 -9 -49q0 -26 17 -26q23 0 58 52q39 57 57 123q7 25 7 42q0 27 -18 44
q-13 12 -15 17q-4 10 7 15q10 5 17 -8.5t18 -24.5q8 -9 24 -12q9 -1 19 1t10 1z" />
    <glyph glyph-name="p" unicode="p" horiz-adv-x="252" 
d="M232 248q-9 -73 -63 -175q7 1 22.5 4t16.5 2q1 -4 -16 -10q-6 -2 -28 -7q-16 -26 -52 -62q-9 -11 -17 -11q-15 0 -13 26q3 13 8 45l5 4q27 0 42 5q14 32 35 100q19 63 21 94q-32 -13 -119 -157q-37 -62 -70 -138q-23 -57 -69 -162q-28 -58 -65 -114q-15 -23 -25 -20
q-3 1 2 28q9 52 32 111q31 82 92 171q13 34 46 124q19 53 49 151q-10 3 -27 7q30 6 73 24q2 -1 5 -5q0 1 -6 -16q-29 -81 -83 -224q45 85 90 152q61 90 98 87q20 -1 16 -34zM131 58q-4 -1 -16 -3t-17 -4q0 -22 4 -42q12 12 29 49zM-37 -48q-46 -72 -75 -145
q-14 -34 -29 -107q17 37 47 104q3 6 57 148z" />
    <glyph glyph-name="q" unicode="q" horiz-adv-x="242" 
d="M249 273q0 -5 -4 -10q-8 -10 -13 -10q-1 0 0 12.5t-17 14.5q-35 4 -83 -40q-54 -50 -92 -139q-21 -50 -21 -77q0 -9 6 -11q16 -3 53.5 40.5t81.5 114.5q11 14 34 70q6 15 12 15q12 0 12 -31q0 -14 -35 -106q-20 -51 -55 -133q-65 -151 -121 -216q28 27 57 54q47 47 66 81
q8 15 10 14q6 -2 -9 -27q-20 -35 -61 -76q-29 -27 -57 -55q-6 -7 -22 -41q-14 -29 -18 -28q-9 1 -9 26q0 22 8 33q46 63 105 205q38 92 74 187q-27 -48 -65 -92q-44 -50 -68 -49q-30 1 -29 52q1 44 32 100q37 65 99 104q54 34 97 33q32 0 32 -15z" />
    <glyph glyph-name="r" unicode="r" horiz-adv-x="195" 
d="M220 252q-5 -31 -41 -53q-9 -6 -12 -3q-6 3 2 15q11 16 11 19q3 16 -7 18q-9 2 -18 -7q-19 -16 -31 -29q-27 -29 -51 -68q-26 -57 -71 -135q-3 -2 -10.5 -10t-20.5 -13q-12 -4 -16 1q1 -2 9 11q24 38 58 123t41 134q-10 -4 -19 -5q-7 0 -8 2q-1 4 6 6q40 12 58 26
q6 3 10 1q3 -3 1 -11q-14 -62 -44 -125q18 27 56 75q26 28 47 41q18 11 31 11q23 0 19 -24z" />
    <glyph glyph-name="s" unicode="s" horiz-adv-x="173" 
d="M192 268q3 -27 -34 -44q10 18 10 36q0 17 -10 19q-27 5 -36 -31q-5 -18 -5 -50q-2 -58 -2 -62q-4 -74 -51 -118q-39 -38 -80 -35q-43 3 -36 44q6 39 52 64q32 18 36 12q0 -1 -8 -5q-11 -7 -21 -15q-26 -22 -31 -53q-2 -7 -2 -13q0 -21 20 -24q32 -4 55 38t25 107
q2 72 17 105q21 47 69 45q30 -1 32 -20z" />
    <glyph glyph-name="t" unicode="t" horiz-adv-x="158" 
d="M206 243q2 3 -38 3q-36 0 -54 -1q-18 -41 -39 -94q-23 -59 -45 -121q27 25 48 35q7 7 7 -1q0 -1 -16 -12.5t-35 -34.5q-36 -42 -43 -40q-13 1 -7 17q26 93 72 206q7 17 19 43q-3 0 -17 -2q-22 -3 -24 1q-2 6 11 9.5t36 5.5q15 33 41 81q17 31 32 47q13 13 21 11
q5 -1 5 -5q0 -1 -12 -24q-16 -30 -48 -109q35 0 50 -2q38 -5 36 -13z" />
    <glyph glyph-name="u" unicode="u" horiz-adv-x="244" 
d="M246 294q1 -1 -3 -10q-32 -50 -66 -141q-12 -33 -40 -100q27 27 56 43q12 6 13 3q1 -2 -6.5 -7t-37 -29t-64.5 -60q-2 -4 -3 -7q-3 -6 -7 -5q-10 2 2 20q14 40 41 115q-31 -48 -49 -69q-41 -46 -63 -46q-28 0 -28 26q0 34 35 118q15 35 55 107q-8 -2 -14 -2q-8 1 -16 4
q2 1 20 5q36 9 48 17q4 2 6 1q1 -1 0 -5q-38 -72 -61 -127q-26 -62 -34 -95q-7 -27 4 -31q11 -3 40 30t67 98q4 5 6 14q22 52 37.5 82.5t36 43t25.5 7.5z" />
    <glyph glyph-name="v" unicode="v" horiz-adv-x="228" 
d="M243 269q0 -22 -17 -51q-24 -41 -91 -114q-39 -36 -102 -110q-7 -9 -12 -8q-15 2 -15 16q0 18 12 34q8 15 18 46q28 85 30 140q2 40 -26 40q-9 0 -18 -5l-19 -11q-4 11 27 24q27 11 40 11q39 0 36 -56q-3 -52 -43 -154q-11 -29 -22 -48q25 27 75 83q83 104 107 167
q0 1 1.5 13t3.5 12q4 0 9.5 -8.5t5.5 -20.5z" />
    <glyph glyph-name="w" unicode="w" horiz-adv-x="346" 
d="M348 253q0 -27 -21 -68q-20 -36 -59 -83q-34 -36 -95 -100q-5 -13 -18 -11q-9 2 -9 11q0 15 13 32q8 29 13 86q5 61 10 80q-16 -35 -58 -87q-38 -44 -96 -116q-8 -12 -17 -9q-13 6 -12 16q0 11 14 34q8 14 20 46q29 82 36 141q4 39 -24 40q-8 0 -19 -5q-4 -2 -11 -7.5
t-8 -3.5q-2 6 20 19.5t46 13.5q41 0 36 -54q-6 -60 -49 -154q-7 -21 -24 -52q30 35 86 104q35 45 61 94q10 19 19 31q14 19 30 19q4 0 6.5 -1.5t2.5 -4.5q0 -10 -18 -33q-3 -30 -12 -109q-6 -54 -23 -92q42 45 65 76q62 83 76 161q2 9 0 17q-2 5 0 5q19 0 19 -36z" />
    <glyph glyph-name="x" unicode="x" horiz-adv-x="212" 
d="M262 264q-11 4 -28 -2q-21 -7 -47 -28q-42 -34 -71 -63q0 -11 1 -40v-49q0 -40 1 -51q1 -15 8 -15q8 0 22 24q5 8 6 7q2 -1 1 -5q-3 -15 -19 -32.5t-29 -17.5q-21 1 -26 38q-1 7 -1 54v60q-33 -31 -62 -66q-47 -56 -62 -90q-8 -18 -7 -18q-7 0 -1 20q14 47 59 100
q30 35 73 75q-1 16 -4 48q-5 36 -19 43q-8 4 -18 2l-10 -2q-2 4 10 10q18 9 34 8q31 -2 39 -48q3 -17 4 -34q23 24 64 57q31 25 55 29q27 5 27 -14z" />
    <glyph glyph-name="y" unicode="y" horiz-adv-x="251" 
d="M240 256q0 -14 -5 -31q-17 -57 -46 -123q-57 -130 -124 -213q-70 -86 -160 -141q-93 -57 -166 -57q-29 0 -48 19q-12 14 -5 19q-1 -1 9 -8q17 -12 49 -12q79 0 144.5 42.5t146.5 146.5q67 87 130 236q-21 -32 -70 -77.5t-64 -67.5q-6 -9 -13 -7q-16 4 -10 23q18 43 25 65
q26 88 29 147q2 39 -21 39q-2 0 -14.5 -5.5t-13.5 -4.5q-3 4 14 14q27 15 45 15q33 0 29 -55q-6 -71 -37 -154q-12 -31 -29 -62q33 34 92 97q60 71 93 170q2 7 3 16q0 6 2 6q4 0 9 -9q6 -12 6 -28z" />
    <glyph glyph-name="z" unicode="z" horiz-adv-x="217" 
d="M238 277q1 -6 -12 -14q-25 -29 -90 -102q-9 -10 -78 -79q10 -15 32 -42.5t43 -29.5q33 -3 49 46q4 7 3 7q4 0 2 -11q-11 -63 -58 -62q-31 1 -54 25q-17 18 -34 50q-36 -33 -55 -60q-7 -7 -8 -7q-2 1 3 11q22 45 48 76q-3 8 -9 21q-3 -2 -11 -14q-24 -36 -33 -65
q-10 -32 -6 -32q-8 0 -2 36q5 31 27 71q13 17 14 17q16 0 31 -19q31 46 63.5 80t85.5 74q-58 -23 -92 -21q-51 2 -46 32q5 14 20 20q8 5 10 2q1 -3 -5 -5q-10 -4 -10 -12q0 -12 36 -14q60 -4 100 8q5 5 15 13q18 10 21 0z" />
    <glyph glyph-name="braceleft" unicode="{" horiz-adv-x="324" 
d="M575 639q-1 -4 -14 -1q-21 4 -40 4q-96 0 -145 -118q-5 -11 -31 -70q-71 -159 -197 -156q65 -30 65 -93q0 -48 -36 -127q-13 -29 -38 -86q-16 -41 -16 -71q0 -74 84 -85q15 -2 15 -4q-1 -5 -22 -3q-46 5 -76 29q-36 29 -36 78q0 34 17 74.5t49 115.5q29 70 29 102
q0 44 -54 68q-21 9 -21 10q1 2 29 2q57 0 90 26q30 24 60 86q24 51 36 79q63 152 193 152q22 0 46 -4q16 -3 13 -8z" />
    <glyph glyph-name="bar" unicode="|" horiz-adv-x="400" 
d="M255 -236h-22v900h22v-900z" />
    <glyph glyph-name="braceright" unicode="}" horiz-adv-x="324" 
d="M339 192q-1 -2 -29 -2q-57 0 -88.5 -25t-61.5 -87q-18 -37 -43 -98q-63 -152 -193 -152q-22 0 -46 4q-16 3 -13 8q1 4 14 1q21 -4 40 -4q96 0 145 118q23 56 38 89q72 161 199 156q-66 28 -66 96q0 49 36 124q6 12 30 67q18 41 18 73q0 72 -86 83q-15 2 -15 4q1 5 22 3
q46 -5 77 -29q36 -29 36 -78q0 -33 -18 -75q-14 -30 -43 -96q-29 -69 -29 -101q0 -45 55 -69q21 -9 21 -10z" />
    <glyph glyph-name="asciitilde" unicode="~" horiz-adv-x="500" 
d="M423 304q3 -1 -3 -14q-30 -65 -83 -60q-23 2 -66 20.5t-63 20.5q-44 4 -68 -26q-8 -10 -10 -9q-4 2 2 13q30 58 87 53q22 -2 65.5 -20t63.5 -20q38 -3 65 33q8 11 10 9z" />
    <glyph glyph-name="exclamdown" unicode="&#xa1;" horiz-adv-x="134" 
d="M118 268q0 -10 -8.5 -19t-19.5 -10q-12 -1 -19.5 6t-6.5 18q3 27 29 29q11 1 18 -5.5t7 -18.5zM78 209q8 -2 -1 -47q-15 -76 -57 -167q-34 -74 -76 -133q-10 -14 -26 -27t-21 -12t11 30q29 52 70 141q52 113 78 184q12 32 22 31z" />
    <glyph glyph-name="cent" unicode="&#xa2;" horiz-adv-x="174" 
d="M188 324l-32 -62q13 -4 15 -15q3 -14 -14 -22q-10 -6 -21 -2l-43 -84q-18 -34 -52 -96q3 -1 7 -1q20 0 45 28q20 24 33 55l8 18q4 -1 -2 -22q-10 -33 -38 -62q-31 -31 -56 -27h-3l-35 -64l-3 10l30 56q-33 12 -33 58q0 21 8 45q17 50 57.5 88.5t81.5 38.5h7l37 69z
M143 254q-1 0 -1 1h-2q-28 3 -61.5 -46t-46.5 -106q-11 -46 1 -56q14 30 48 97q22 41 62 110z" />
    <glyph glyph-name="sterling" unicode="&#xa3;" 
d="M254 227q-5 -2 -6 -1q-1 2 2 5q19 19 19 42q0 27 -30 28q-27 1 -45 -14q-29 -23 -57 -95q-3 -8 -8 -20q57 -6 76 -18q-23 2 -83 2q-30 -68 -70 -115q16 -8 42 -17q20 -7 61 -15q60 -3 60 49q0 4 2 4q3 0 3 -7q3 -28 -16.5 -46t-53.5 -18q-30 0 -68 13q-32 11 -47 18
q-22 -23 -52 -22q-28 1 -28 35q0 8 2 17q10 17 25 16q7 -1 58 -22q11 16 22 48q20 59 21 62q-50 0 -50 4q2 11 57 13l4 10q29 70 82 105q39 27 74 27q39 0 39 -36q0 -26 -35 -52zM25 27q-20 10 -50 23q-10 2 -13 -3q0 -35 23 -37q21 -2 40 17z" />
    <glyph glyph-name="currency" unicode="&#xa4;" horiz-adv-x="208" 
d="M62 148q-12 -30 -18 -51q-9 -33 -9 -51q0 -25 22 -25q19 0 44.5 27.5t40.5 56.5q11 21 12 21q8 -2 -5 -27q-17 -33 -41 -59q-33 -36 -66 -34q-43 3 -44 54q-1 39 19 88q-29 0 -28 4q2 13 36 13q2 3 5.5 9t4.5 9q-32 0 -31 5q2 12 43 12q67 98 137 99q27 0 29 -17
q1 -11 -11 -22.5t-17 -6.5q-3 3 1 10q12 26 -3 27q-40 8 -96 -92q53 -6 69 -17q-18 2 -77 2q-6 -10 -10 -20q54 -6 72 -17q-38 2 -79 2z" />
    <glyph glyph-name="yen" unicode="&#xa5;" horiz-adv-x="237" 
d="M300 284q-12 7 -27 7q-27 0 -57 -27q-63 -56 -100 -112q43 -2 69 -18q-23 2 -77 2q-23 -44 -46 -104q-15 -38 -27 -38q-13 0 -4 36q9 37 38 106q-60 0 -59 4q2 13 63 13q5 46 3 78q-3 58 -20 66q-10 5 -22 1q-10 -4 -11 -2q-2 4 10 10q22 15 40 14q37 -3 41 -75
q2 -49 -4 -87q34 58 95 117q41 39 69 39q27 0 27 -25q0 -4 -1 -5z" />
    <glyph glyph-name="brokenbar" unicode="&#xa6;" horiz-adv-x="684" 
d="M658 102q4 -7 4 -15q0 -18 -27 -38q-24 -15 -48 -31q-19 -14 -33 -18q1 -1 2 -2.5t2.5 -3.5t9 -7t7.5 -7q0 -7 -10 -7q-14 0 -26 17l-3 6q-9 -3 -31 -6q1 -3 3 -11q2 -22 -7 -24q-5 -1 -6.5 8.5t-2.5 18.5q0 1 -1 3.5t-2 4.5q-17 -1 -34 0q0 -37 -1 -43q-2 -13 -16 -13
q-6 0 -4 9q3 9 5 17q2 21 5 30q-16 0 -59 15.5t-60 15.5q-27 1 -70.5 -15t-70.5 -16q3 -9 6 -31q4 -27 -4 -27q-11 0 -13 14q1 -6 1 44q-13 0 -37 2q0 -3 -2.5 -12t-4 -18t-7.5 -8q-12 3 -7 24l4 16q-10 1 -31 7q-2 -4 -7 -12q-17 -26 -30 -14q-3 2 -3 5q0 -2 14 14l11 11
q-32 14 -44 54.5t-12 39.5q0 8 4 16q14 27 47 27q11 0 51 -6q-14 11 -14 25q0 13 13 34q-5 -1 -16.5 -7t-15.5 -6q-1 0 -2 1q-4 7 17 17q12 8 28 12q3 3 12 14q-5 2 -19 5q-9 1 -16.5 1.5t-6.5 5.5q1 4 10 4q20 5 39 -10q2 3 10 9q-14 24 -26 33q-6 5 -23 9q-10 3 -7 9
q5 10 36 -9q11 -6 25 -37q12 12 23.5 20.5t40.5 30.5q-8 -1 -19 -6t-16 -5q-10 0 -17.5 9t-7.5 19q0 16 20 53.5t20 50.5q0 10 -5.5 14.5t-5.5 14.5q0 11 8.5 20t18.5 9q24 0 27 -21q19 1 37.5 -8t29.5 -9q12 0 35 8t33 8q4 0 8 -1q4 24 30 24q13 0 23 -8.5t7 -22.5
q-1 -4 -5.5 -15.5t-4.5 -21.5q0 -20 15 -54t15 -45q0 -24 -27 -24q-11 0 -28 7q-20 10 -22 10q5 -13 24 -20q25 -10 33 -16.5t21 -17.5q11 9 32 32q2 2 8 12q4 7 7 7q2 0 4.5 -2.5t2.5 -6.5q0 -14 -49 -47q4 -3 15 -16q7 3 23 7q22 5 25 -4q1 -6 -7.5 -6.5t-17.5 -0.5
q-2 0 -17 -3q5 -5 16 -21q41 0 47 -1q13 -2 13 -13q0 -5 -4 -5q-3 0 -11 3t-11 4q-10 2 -29 5q18 -33 18 -49q0 -12 -10 -18q80 11 85 11q23 0 43 -35zM444 452q-1 9 -8 14.5t-12 3.5q-9 -1 -14.5 -8t-3.5 -12q2 -19 21 -17q9 1 14 7.5t3 11.5zM245 449q-1 9 -8.5 15
t-12.5 4q-9 -1 -15 -8.5t-4 -12.5q1 -8 9 -13.5t13 -3.5q9 1 14.5 7.5t3.5 11.5zM411 343q-24 -11 -53 -11q-14 0 -38 3t-34 3q-9 0 -41 -7q30 2 58 -3q32 -6 31 -6q40 0 77 21zM400 348l-2 3q-20 -11 -68 -4q-19 3 -37 6q-20 3 -38 -2q-14 -4 -36 -16q-25 -14 -33 -25l1 -3
q32 30 70 39q22 5 73 -3q46 -7 70 5zM454 307v3q-27 17 -50 17q-12 0 -34.5 -7.5t-34.5 -7.5q-25 0 -40 5q-27 8 -34 9l-6 -1q18 -6 36.5 -12t44.5 -6q10 0 29 5q23 6 29 7q16 3 60 -12zM433 452q0 -8 -7 -8q-9 0 -9 6q0 9 7 9q9 0 9 -7zM234 449q0 -9 -8 -9q-10 0 -10 7
q0 10 8 10q10 0 10 -8z" />
    <glyph glyph-name="section" unicode="&#xa7;" horiz-adv-x="292" 
d="M333 465q-2 1 0 11q4 19 -9 37t-39 19q-69 2 -69 -63q0 -33 16 -76q8 -19 26 -67q12 -32 12 -62q0 -51 -30.5 -84t-79.5 -39q12 -39 12 -66q0 -32 -19 -62q-29 -46 -83 -44q-68 2 -68 71q0 13 5 13l2 -13q8 -55 63 -56q46 -1 64 37q6 13 6 30q0 28 -17 72q-7 20 -26 68
q-13 32 -13 62q0 51 33 84q30 31 77 40q-11 38 -11 64q0 32 19 63q29 46 83 44q55 -2 55 -57q0 -30 -9 -26zM230 288q-13 36 -31 81q-47 -6 -67 -42q-13 -23 -13 -54q0 -24 8 -45q12 -30 30 -80q50 9 68 41q12 22 12 54q0 24 -7 45z" />
    <glyph glyph-name="dieresis" unicode="&#xa8;" 
d="M285 345q0 -23 -23 -23t-23 23t23 23t23 -23zM201 345q0 -23 -23 -23t-23 23t23 23t23 -23z" />
    <glyph glyph-name="copyright" unicode="&#xa9;" horiz-adv-x="500" 
d="M459 253q0 -74 -51.5 -126t-125.5 -52q-75 0 -126.5 51.5t-51.5 126.5q0 74 51.5 125.5t126.5 51.5q73 0 125 -51.5t52 -125.5zM440 253q0 64 -46.5 111.5t-111.5 47.5t-112 -47t-47 -112q0 -66 46.5 -113t112.5 -47q65 0 111.5 47t46.5 113zM366 204l-2 -16
q-3 -20 -10 -30q-30 -12 -60 -12q-50 0 -81 23q-36 26 -36 78t36 80q31 26 80 26q40 0 63 -12q6 -7 6 -32v-21h-9q-7 56 -62 56q-35 0 -56.5 -25t-21.5 -67q0 -44 22 -69t57 -25q55 0 65 46h9z" />
    <glyph glyph-name="ordfeminine" unicode="&#xaa;" horiz-adv-x="227" 
d="M326 189q1 -2 -10 -7q-44 -20 -127 -20q-59 0 -114 11q-42 -80 -42 -140q0 -42 30 -46q23 -3 51 15.5t48 47.5q17 25 28 62q4 12 5 12q4 0 2 -11q-7 -33 -25 -64q-45 -78 -114 -77q-31 0 -48 23.5t-13 64.5q5 56 45 122q-10 2 -25 9q-8 5 -6 9q2 3 11 5q4 1 11 -1t20 -7
q68 90 145 89q23 0 23 -18t-19 -36q-29 -27 -70 -22q-17 2 -29 8q-7 -10 -19 -29q44 -13 112 -14q71 -2 117 11q13 4 13 3zM193 265q0 10 -12 10q-17 0 -42 -19q-21 -16 -31 -31q13 -7 27 -7q21 -1 40 16.5t18 30.5z" />
    <glyph glyph-name="guillemotleft" unicode="&#xab;" horiz-adv-x="261" 
d="M249 233q2 -3 -8 -14q-46 -50 -91 -82q14 -39 20 -81q2 -18 -2 -18q-1 0 -8 12q-16 39 -56 92q55 28 134 87q9 7 11 4zM151 233q2 -3 -8 -14q-46 -50 -91 -82q14 -39 20 -81q2 -18 -2 -18q-1 0 -8 12q-16 39 -56 92q55 28 134 87q9 7 11 4z" />
    <glyph glyph-name="logicalnot" unicode="&#xac;" horiz-adv-x="148" 
d="M377 188q-4 -22 -28 -20q8 12 10 26q5 33 -40 43q-36 8 -108 10q-54 1 -97 -2q-18 -41 -39 -94q-23 -59 -45 -121q27 25 48 35q7 7 7 -1q0 -1 -16 -12.5t-35 -34.5q-36 -42 -43 -40q-14 1 -8 17q26 93 72 206q7 17 19 43q-2 0 -16 -2q-22 -3 -24 1q-2 6 11 9.5t35 5.5
q21 46 41 81q37 63 54 58q5 -2 5 -5q0 -1 -12 -24q-18 -33 -48 -108q42 3 90 1q71 -3 122 -20t45 -52z" />
    <glyph glyph-name="registered" unicode="&#xae;" horiz-adv-x="500" 
d="M456 253q0 -75 -51.5 -127t-125.5 -52t-126 52t-52 127q0 73 51.5 124.5t126.5 51.5q73 0 125 -51.5t52 -124.5zM437 253q0 64 -46 111t-112 47q-65 0 -112 -46.5t-47 -111.5q0 -67 46.5 -114t112.5 -47q65 0 111.5 47t46.5 114zM397 155q-8 -2 -26 -2q-33 0 -47 17
q-5 12 -20 38q-14 21 -29 38l-27 3v-44q0 -23 6.5 -32t26.5 -10v-8h-98v8q35 0 35 43v104q0 36 -35 36v8h80q86 0 83 -53q-1 -24 -22 -36l-17 -8q9 -16 33 -52q31 -44 57 -43v-7zM311 301q0 49 -62 43q-1 -12 -1 -31v-56q63 -4 63 44z" />
    <glyph glyph-name="degree" unicode="&#xb0;" horiz-adv-x="132" 
d="M137 280q0 -18 -13 -30.5t-31 -12.5q-17 0 -30 12.5t-13 30.5t13 30.5t30 12.5q18 0 31 -12.5t13 -30.5zM118 280q0 25 -25 25t-25 -25t25 -25t25 25z" />
    <glyph glyph-name="plusminus" unicode="&#xb1;" horiz-adv-x="137" 
d="M687 584q-3 -24 -19.5 -40t-31.5 -16q20 30 22 60q3 45 -22 71q-28 28 -82 28q-149 0 -301 -195q-86 -110 -136 -221q-65 -144 -87 -223q-10 -37 -2 -39q16 -5 41 41q12 22 11 22q3 0 1 -9q-1 -10 -7 -20q-33 -55 -61 -54q-25 1 -22 39q2 28 11 55q29 93 79 192
q66 133 143 226q66 80 148 133q97 62 184 62q65 0 101 -31t30 -81z" />
    <glyph glyph-name="twosuperior" unicode="&#xb2;" horiz-adv-x="684" 
d="M658 102q4 -7 4 -15q0 -18 -27 -38q-24 -15 -48 -31q-19 -14 -33 -18q1 -1 2 -2.5t2.5 -3.5t9 -7t7.5 -7q0 -7 -10 -7q-14 0 -26 17l-3 6q-9 -3 -31 -6q1 -3 3 -11q2 -22 -7 -24q-5 -1 -6.5 8.5t-2.5 18.5q0 1 -1 3.5t-2 4.5q-17 -1 -34 0q0 -37 -1 -43q-2 -13 -16 -13
q-6 0 -4 9q3 9 5 17q2 21 5 30q-16 0 -59 15.5t-60 15.5q-27 1 -70.5 -15t-70.5 -16q3 -9 6 -31q4 -27 -4 -27q-11 0 -13 14q1 -6 1 44q-13 0 -37 2q0 -3 -2.5 -12t-4 -18t-7.5 -8q-12 3 -7 24l4 16q-10 1 -31 7q-2 -4 -7 -12q-17 -26 -30 -14q-3 2 -3 5q0 -2 14 14l11 11
q-32 14 -44 54.5t-12 39.5q0 8 4 16q14 27 47 27q11 0 51 -6q-14 11 -14 25q0 13 13 34q-5 -1 -16.5 -7t-15.5 -6q-1 0 -2 1q-4 7 17 17q12 8 28 12q3 3 12 14q-5 2 -19 5q-9 1 -16.5 1.5t-6.5 5.5q1 4 10 4q20 5 39 -10q2 3 10 9q-14 24 -26 33q-6 5 -23 9q-10 3 -7 9
q5 10 36 -9q11 -6 25 -37q12 12 23.5 20.5t40.5 30.5q-8 -1 -19 -6t-16 -5q-10 0 -17.5 9t-7.5 19q0 16 20 53.5t20 50.5q0 10 -5.5 14.5t-5.5 14.5q0 11 8.5 20t18.5 9q24 0 27 -21q19 1 37.5 -8t29.5 -9q12 0 35 8t33 8q4 0 8 -1q4 24 30 24q13 0 23 -8.5t7 -22.5
q-1 -4 -5.5 -15.5t-4.5 -21.5q0 -20 15 -54t15 -45q0 -24 -27 -24q-11 0 -28 7q-20 10 -22 10q5 -13 24 -20q25 -10 33 -16.5t21 -17.5q11 9 32 32q2 2 8 12q4 7 7 7q2 0 4.5 -2.5t2.5 -6.5q0 -14 -49 -47q4 -3 15 -16q7 3 23 7q22 5 25 -4q1 -6 -7.5 -6.5t-17.5 -0.5
q-2 0 -17 -3q5 -5 16 -21q41 0 47 -1q13 -2 13 -13q0 -5 -4 -5q-3 0 -11 3t-11 4q-10 2 -29 5q18 -33 18 -49q0 -12 -10 -18q80 11 85 11q23 0 43 -35zM444 452q-1 9 -8 14.5t-12 3.5q-9 -1 -14.5 -8t-3.5 -12q2 -19 21 -17q9 1 14 7.5t3 11.5zM245 449q-1 9 -8.5 15
t-12.5 4q-9 -1 -15 -8.5t-4 -12.5q1 -8 9 -13.5t13 -3.5q9 1 14.5 7.5t3.5 11.5zM411 343q-24 -11 -53 -11q-14 0 -38 3t-34 3q-9 0 -41 -7q30 2 58 -3q32 -6 31 -6q40 0 77 21zM400 348l-2 3q-20 -11 -68 -4q-19 3 -37 6q-20 3 -38 -2q-14 -4 -36 -16q-25 -14 -33 -25l1 -3
q32 30 70 39q22 5 73 -3q46 -7 70 5zM454 307v3q-27 17 -50 17q-12 0 -34.5 -7.5t-34.5 -7.5q-25 0 -40 5q-27 8 -34 9l-6 -1q18 -6 36.5 -12t44.5 -6q10 0 29 5q23 6 29 7q16 3 60 -12zM433 452q0 -8 -7 -8q-9 0 -9 6q0 9 7 9q9 0 9 -7zM234 449q0 -9 -8 -9q-10 0 -10 7
q0 10 8 10q10 0 10 -8z" />
    <glyph glyph-name="threesuperior" unicode="&#xb3;" horiz-adv-x="684" 
d="M658 102q4 -7 4 -15q0 -18 -27 -38q-24 -15 -48 -31q-19 -14 -33 -18q1 -1 2 -2.5t2.5 -3.5t9 -7t7.5 -7q0 -7 -10 -7q-14 0 -26 17l-3 6q-9 -3 -31 -6q1 -3 3 -11q2 -22 -7 -24q-5 -1 -6.5 8.5t-2.5 18.5q0 1 -1 3.5t-2 4.5q-17 -1 -34 0q0 -37 -1 -43q-2 -13 -16 -13
q-6 0 -4 9q3 9 5 17q2 21 5 30q-16 0 -59 15.5t-60 15.5q-27 1 -70.5 -15t-70.5 -16q3 -9 6 -31q4 -27 -4 -27q-11 0 -13 14q1 -6 1 44q-13 0 -37 2q0 -3 -2.5 -12t-4 -18t-7.5 -8q-12 3 -7 24l4 16q-10 1 -31 7q-2 -4 -7 -12q-17 -26 -30 -14q-3 2 -3 5q0 -2 14 14l11 11
q-32 14 -44 54.5t-12 39.5q0 8 4 16q14 27 47 27q11 0 51 -6q-14 11 -14 25q0 13 13 34q-5 -1 -16.5 -7t-15.5 -6q-1 0 -2 1q-4 7 17 17q12 8 28 12q3 3 12 14q-5 2 -19 5q-9 1 -16.5 1.5t-6.5 5.5q1 4 10 4q20 5 39 -10q2 3 10 9q-14 24 -26 33q-6 5 -23 9q-10 3 -7 9
q5 10 36 -9q11 -6 25 -37q12 12 23.5 20.5t40.5 30.5q-8 -1 -19 -6t-16 -5q-10 0 -17.5 9t-7.5 19q0 16 20 53.5t20 50.5q0 10 -5.5 14.5t-5.5 14.5q0 11 8.5 20t18.5 9q24 0 27 -21q19 1 37.5 -8t29.5 -9q12 0 35 8t33 8q4 0 8 -1q4 24 30 24q13 0 23 -8.5t7 -22.5
q-1 -4 -5.5 -15.5t-4.5 -21.5q0 -20 15 -54t15 -45q0 -24 -27 -24q-11 0 -28 7q-20 10 -22 10q5 -13 24 -20q25 -10 33 -16.5t21 -17.5q11 9 32 32q2 2 8 12q4 7 7 7q2 0 4.5 -2.5t2.5 -6.5q0 -14 -49 -47q4 -3 15 -16q7 3 23 7q22 5 25 -4q1 -6 -7.5 -6.5t-17.5 -0.5
q-2 0 -17 -3q5 -5 16 -21q41 0 47 -1q13 -2 13 -13q0 -5 -4 -5q-3 0 -11 3t-11 4q-10 2 -29 5q18 -33 18 -49q0 -12 -10 -18q80 11 85 11q23 0 43 -35zM444 452q-1 9 -8 14.5t-12 3.5q-9 -1 -14.5 -8t-3.5 -12q2 -19 21 -17q9 1 14 7.5t3 11.5zM245 449q-1 9 -8.5 15
t-12.5 4q-9 -1 -15 -8.5t-4 -12.5q1 -8 9 -13.5t13 -3.5q9 1 14.5 7.5t3.5 11.5zM411 343q-24 -11 -53 -11q-14 0 -38 3t-34 3q-9 0 -41 -7q30 2 58 -3q32 -6 31 -6q40 0 77 21zM400 348l-2 3q-20 -11 -68 -4q-19 3 -37 6q-20 3 -38 -2q-14 -4 -36 -16q-25 -14 -33 -25l1 -3
q32 30 70 39q22 5 73 -3q46 -7 70 5zM454 307v3q-27 17 -50 17q-12 0 -34.5 -7.5t-34.5 -7.5q-25 0 -40 5q-27 8 -34 9l-6 -1q18 -6 36.5 -12t44.5 -6q10 0 29 5q23 6 29 7q16 3 60 -12zM433 452q0 -8 -7 -8q-9 0 -9 6q0 9 7 9q9 0 9 -7zM234 449q0 -9 -8 -9q-10 0 -10 7
q0 10 8 10q10 0 10 -8z" />
    <glyph glyph-name="acute" unicode="&#xb4;" 
d="M284 388q0 -12 -18.5 -28.5t-45.5 -29.5q-30 -15 -45 -13q20 11 66 64q16 19 31 19q12 0 12 -12z" />
    <glyph glyph-name="paragraph" unicode="&#xb6;" horiz-adv-x="256" 
d="M404 478q-1 -2 -19 -1q-24 2 -36 2q-51 -83 -119 -224q-71 -146 -103 -273q-8 -33 -13 -32q-6 2 -5 30q2 37 29 121.5t60 153.5q65 135 128 224q-29 1 -46 0q-15 -4 -20 -14q-39 -55 -114 -210q-54 -111 -89 -232q-8 -28 -12 -28q-10 0 -5 38q15 107 82 241
q-35 5 -57.5 29.5t-22.5 57.5q0 22 10 44q20 42 83 65q51 19 112 20q59 1 87 0q21 21 26 18q4 -1 -5 -18q22 -2 34 -4q17 -3 15 -8z" />
    <glyph glyph-name="cedilla" unicode="&#xb8;" 
d="M136 -54q-1 -20 -20 -31.5t-48 -9.5q-43 2 -57 28q-4 5 -1 8q2 2 5 -2q15 -17 52 -17q34 0 38 24q3 19 -21 23q-7 0 -17 4q-2 2 7 13q6 6 14 16h13q-5 -5 -12 -14q-4 -5 4 -6q45 -6 43 -36z" />
    <glyph glyph-name="onesuperior" unicode="&#xb9;" horiz-adv-x="684" 
d="M658 102q4 -7 4 -15q0 -18 -27 -38q-24 -15 -48 -31q-19 -14 -33 -18q1 -1 2 -2.5t2.5 -3.5t9 -7t7.5 -7q0 -7 -10 -7q-14 0 -26 17l-3 6q-9 -3 -31 -6q1 -3 3 -11q2 -22 -7 -24q-5 -1 -6.5 8.5t-2.5 18.5q0 1 -1 3.5t-2 4.5q-17 -1 -34 0q0 -37 -1 -43q-2 -13 -16 -13
q-6 0 -4 9q3 9 5 17q2 21 5 30q-16 0 -59 15.5t-60 15.5q-27 1 -70.5 -15t-70.5 -16q3 -9 6 -31q4 -27 -4 -27q-11 0 -13 14q1 -6 1 44q-13 0 -37 2q0 -3 -2.5 -12t-4 -18t-7.5 -8q-12 3 -7 24l4 16q-10 1 -31 7q-2 -4 -7 -12q-17 -26 -30 -14q-3 2 -3 5q0 -2 14 14l11 11
q-32 14 -44 54.5t-12 39.5q0 8 4 16q14 27 47 27q11 0 51 -6q-14 11 -14 25q0 13 13 34q-5 -1 -16.5 -7t-15.5 -6q-1 0 -2 1q-4 7 17 17q12 8 28 12q3 3 12 14q-5 2 -19 5q-9 1 -16.5 1.5t-6.5 5.5q1 4 10 4q20 5 39 -10q2 3 10 9q-14 24 -26 33q-6 5 -23 9q-10 3 -7 9
q5 10 36 -9q11 -6 25 -37q12 12 23.5 20.5t40.5 30.5q-8 -1 -19 -6t-16 -5q-10 0 -17.5 9t-7.5 19q0 16 20 53.5t20 50.5q0 10 -5.5 14.5t-5.5 14.5q0 11 8.5 20t18.5 9q24 0 27 -21q19 1 37.5 -8t29.5 -9q12 0 35 8t33 8q4 0 8 -1q4 24 30 24q13 0 23 -8.5t7 -22.5
q-1 -4 -5.5 -15.5t-4.5 -21.5q0 -20 15 -54t15 -45q0 -24 -27 -24q-11 0 -28 7q-20 10 -22 10q5 -13 24 -20q25 -10 33 -16.5t21 -17.5q11 9 32 32q2 2 8 12q4 7 7 7q2 0 4.5 -2.5t2.5 -6.5q0 -14 -49 -47q4 -3 15 -16q7 3 23 7q22 5 25 -4q1 -6 -7.5 -6.5t-17.5 -0.5
q-2 0 -17 -3q5 -5 16 -21q41 0 47 -1q13 -2 13 -13q0 -5 -4 -5q-3 0 -11 3t-11 4q-10 2 -29 5q18 -33 18 -49q0 -12 -10 -18q80 11 85 11q23 0 43 -35zM444 452q-1 9 -8 14.5t-12 3.5q-9 -1 -14.5 -8t-3.5 -12q2 -19 21 -17q9 1 14 7.5t3 11.5zM245 449q-1 9 -8.5 15
t-12.5 4q-9 -1 -15 -8.5t-4 -12.5q1 -8 9 -13.5t13 -3.5q9 1 14.5 7.5t3.5 11.5zM411 343q-24 -11 -53 -11q-14 0 -38 3t-34 3q-9 0 -41 -7q30 2 58 -3q32 -6 31 -6q40 0 77 21zM400 348l-2 3q-20 -11 -68 -4q-19 3 -37 6q-20 3 -38 -2q-14 -4 -36 -16q-25 -14 -33 -25l1 -3
q32 30 70 39q22 5 73 -3q46 -7 70 5zM454 307v3q-27 17 -50 17q-12 0 -34.5 -7.5t-34.5 -7.5q-25 0 -40 5q-27 8 -34 9l-6 -1q18 -6 36.5 -12t44.5 -6q10 0 29 5q23 6 29 7q16 3 60 -12zM433 452q0 -8 -7 -8q-9 0 -9 6q0 9 7 9q9 0 9 -7zM234 449q0 -9 -8 -9q-10 0 -10 7
q0 10 8 10q10 0 10 -8z" />
    <glyph glyph-name="ordmasculine" unicode="&#xba;" horiz-adv-x="488" 
d="M480 252q-24 -58 -49 -116q-26 -66 -41 -118q-2 -13 2 -15q6 -3 23 14q9 7 10 6q3 -3 -5 -10q-32 -36 -53 -33q-20 3 -13 31q5 42 38 122q14 32 40 95q4 10 1 12q-4 2 -12 -6q-41 -41 -75 -83t-82 -129q-5 -6 -16 -21q-7 -10 -17 -7q-7 1 0 19l52 135q15 38 19 73
q4 37 -20 54t-85 18q-102 2 -155 -48q-28 -27 -27 -63q1 -34 33 -52q9 -5 21 -7q-8 -8 -21 -8q-51 1 -50 58q1 40 36 74q63 61 166 61q143 0 141 -82q-1 -35 -37 -114q29 38 64 79q42 48 74 75q21 17 34 12t4 -26z" />
    <glyph glyph-name="guillemotright" unicode="&#xbb;" horiz-adv-x="261" 
d="M220 134q-55 -28 -134 -87q-9 -7 -11 -4t8 14q46 50 91 82q-14 39 -20 81q-2 18 2 18q1 0 8 -12q16 -39 56 -92zM122 134q-55 -28 -134 -87q-9 -7 -11 -4t8 14q46 50 91 82q-14 39 -20 81q-2 18 2 18q1 0 8 -12q16 -39 56 -92z" />
    <glyph glyph-name="onequarter" unicode="&#xbc;" horiz-adv-x="684" 
d="M658 102q4 -7 4 -15q0 -18 -27 -38q-24 -15 -48 -31q-19 -14 -33 -18q1 -1 2 -2.5t2.5 -3.5t9 -7t7.5 -7q0 -7 -10 -7q-14 0 -26 17l-3 6q-9 -3 -31 -6q1 -3 3 -11q2 -22 -7 -24q-5 -1 -6.5 8.5t-2.5 18.5q0 1 -1 3.5t-2 4.5q-17 -1 -34 0q0 -37 -1 -43q-2 -13 -16 -13
q-6 0 -4 9q3 9 5 17q2 21 5 30q-16 0 -59 15.5t-60 15.5q-27 1 -70.5 -15t-70.5 -16q3 -9 6 -31q4 -27 -4 -27q-11 0 -13 14q1 -6 1 44q-13 0 -37 2q0 -3 -2.5 -12t-4 -18t-7.5 -8q-12 3 -7 24l4 16q-10 1 -31 7q-2 -4 -7 -12q-17 -26 -30 -14q-3 2 -3 5q0 -2 14 14l11 11
q-32 14 -44 54.5t-12 39.5q0 8 4 16q14 27 47 27q11 0 51 -6q-14 11 -14 25q0 13 13 34q-5 -1 -16.5 -7t-15.5 -6q-1 0 -2 1q-4 7 17 17q12 8 28 12q3 3 12 14q-5 2 -19 5q-9 1 -16.5 1.5t-6.5 5.5q1 4 10 4q20 5 39 -10q2 3 10 9q-14 24 -26 33q-6 5 -23 9q-10 3 -7 9
q5 10 36 -9q11 -6 25 -37q12 12 23.5 20.5t40.5 30.5q-8 -1 -19 -6t-16 -5q-10 0 -17.5 9t-7.5 19q0 16 20 53.5t20 50.5q0 10 -5.5 14.5t-5.5 14.5q0 11 8.5 20t18.5 9q24 0 27 -21q19 1 37.5 -8t29.5 -9q12 0 35 8t33 8q4 0 8 -1q4 24 30 24q13 0 23 -8.5t7 -22.5
q-1 -4 -5.5 -15.5t-4.5 -21.5q0 -20 15 -54t15 -45q0 -24 -27 -24q-11 0 -28 7q-20 10 -22 10q5 -13 24 -20q25 -10 33 -16.5t21 -17.5q11 9 32 32q2 2 8 12q4 7 7 7q2 0 4.5 -2.5t2.5 -6.5q0 -14 -49 -47q4 -3 15 -16q7 3 23 7q22 5 25 -4q1 -6 -7.5 -6.5t-17.5 -0.5
q-2 0 -17 -3q5 -5 16 -21q41 0 47 -1q13 -2 13 -13q0 -5 -4 -5q-3 0 -11 3t-11 4q-10 2 -29 5q18 -33 18 -49q0 -12 -10 -18q80 11 85 11q23 0 43 -35zM444 452q-1 9 -8 14.5t-12 3.5q-9 -1 -14.5 -8t-3.5 -12q2 -19 21 -17q9 1 14 7.5t3 11.5zM245 449q-1 9 -8.5 15
t-12.5 4q-9 -1 -15 -8.5t-4 -12.5q1 -8 9 -13.5t13 -3.5q9 1 14.5 7.5t3.5 11.5zM411 343q-24 -11 -53 -11q-14 0 -38 3t-34 3q-9 0 -41 -7q30 2 58 -3q32 -6 31 -6q40 0 77 21zM400 348l-2 3q-20 -11 -68 -4q-19 3 -37 6q-20 3 -38 -2q-14 -4 -36 -16q-25 -14 -33 -25l1 -3
q32 30 70 39q22 5 73 -3q46 -7 70 5zM454 307v3q-27 17 -50 17q-12 0 -34.5 -7.5t-34.5 -7.5q-25 0 -40 5q-27 8 -34 9l-6 -1q18 -6 36.5 -12t44.5 -6q10 0 29 5q23 6 29 7q16 3 60 -12zM433 452q0 -8 -7 -8q-9 0 -9 6q0 9 7 9q9 0 9 -7zM234 449q0 -9 -8 -9q-10 0 -10 7
q0 10 8 10q10 0 10 -8z" />
    <glyph glyph-name="onehalf" unicode="&#xbd;" horiz-adv-x="684" 
d="M658 102q4 -7 4 -15q0 -18 -27 -38q-24 -15 -48 -31q-19 -14 -33 -18q1 -1 2 -2.5t2.5 -3.5t9 -7t7.5 -7q0 -7 -10 -7q-14 0 -26 17l-3 6q-9 -3 -31 -6q1 -3 3 -11q2 -22 -7 -24q-5 -1 -6.5 8.5t-2.5 18.5q0 1 -1 3.5t-2 4.5q-17 -1 -34 0q0 -37 -1 -43q-2 -13 -16 -13
q-6 0 -4 9q3 9 5 17q2 21 5 30q-16 0 -59 15.5t-60 15.5q-27 1 -70.5 -15t-70.5 -16q3 -9 6 -31q4 -27 -4 -27q-11 0 -13 14q1 -6 1 44q-13 0 -37 2q0 -3 -2.5 -12t-4 -18t-7.5 -8q-12 3 -7 24l4 16q-10 1 -31 7q-2 -4 -7 -12q-17 -26 -30 -14q-3 2 -3 5q0 -2 14 14l11 11
q-32 14 -44 54.5t-12 39.5q0 8 4 16q14 27 47 27q11 0 51 -6q-14 11 -14 25q0 13 13 34q-5 -1 -16.5 -7t-15.5 -6q-1 0 -2 1q-4 7 17 17q12 8 28 12q3 3 12 14q-5 2 -19 5q-9 1 -16.5 1.5t-6.5 5.5q1 4 10 4q20 5 39 -10q2 3 10 9q-14 24 -26 33q-6 5 -23 9q-10 3 -7 9
q5 10 36 -9q11 -6 25 -37q12 12 23.5 20.5t40.5 30.5q-8 -1 -19 -6t-16 -5q-10 0 -17.5 9t-7.5 19q0 16 20 53.5t20 50.5q0 10 -5.5 14.5t-5.5 14.5q0 11 8.5 20t18.5 9q24 0 27 -21q19 1 37.5 -8t29.5 -9q12 0 35 8t33 8q4 0 8 -1q4 24 30 24q13 0 23 -8.5t7 -22.5
q-1 -4 -5.5 -15.5t-4.5 -21.5q0 -20 15 -54t15 -45q0 -24 -27 -24q-11 0 -28 7q-20 10 -22 10q5 -13 24 -20q25 -10 33 -16.5t21 -17.5q11 9 32 32q2 2 8 12q4 7 7 7q2 0 4.5 -2.5t2.5 -6.5q0 -14 -49 -47q4 -3 15 -16q7 3 23 7q22 5 25 -4q1 -6 -7.5 -6.5t-17.5 -0.5
q-2 0 -17 -3q5 -5 16 -21q41 0 47 -1q13 -2 13 -13q0 -5 -4 -5q-3 0 -11 3t-11 4q-10 2 -29 5q18 -33 18 -49q0 -12 -10 -18q80 11 85 11q23 0 43 -35zM444 452q-1 9 -8 14.5t-12 3.5q-9 -1 -14.5 -8t-3.5 -12q2 -19 21 -17q9 1 14 7.5t3 11.5zM245 449q-1 9 -8.5 15
t-12.5 4q-9 -1 -15 -8.5t-4 -12.5q1 -8 9 -13.5t13 -3.5q9 1 14.5 7.5t3.5 11.5zM411 343q-24 -11 -53 -11q-14 0 -38 3t-34 3q-9 0 -41 -7q30 2 58 -3q32 -6 31 -6q40 0 77 21zM400 348l-2 3q-20 -11 -68 -4q-19 3 -37 6q-20 3 -38 -2q-14 -4 -36 -16q-25 -14 -33 -25l1 -3
q32 30 70 39q22 5 73 -3q46 -7 70 5zM454 307v3q-27 17 -50 17q-12 0 -34.5 -7.5t-34.5 -7.5q-25 0 -40 5q-27 8 -34 9l-6 -1q18 -6 36.5 -12t44.5 -6q10 0 29 5q23 6 29 7q16 3 60 -12zM433 452q0 -8 -7 -8q-9 0 -9 6q0 9 7 9q9 0 9 -7zM234 449q0 -9 -8 -9q-10 0 -10 7
q0 10 8 10q10 0 10 -8z" />
    <glyph glyph-name="threequarters" unicode="&#xbe;" horiz-adv-x="684" 
d="M658 102q4 -7 4 -15q0 -18 -27 -38q-24 -15 -48 -31q-19 -14 -33 -18q1 -1 2 -2.5t2.5 -3.5t9 -7t7.5 -7q0 -7 -10 -7q-14 0 -26 17l-3 6q-9 -3 -31 -6q1 -3 3 -11q2 -22 -7 -24q-5 -1 -6.5 8.5t-2.5 18.5q0 1 -1 3.5t-2 4.5q-17 -1 -34 0q0 -37 -1 -43q-2 -13 -16 -13
q-6 0 -4 9q3 9 5 17q2 21 5 30q-16 0 -59 15.5t-60 15.5q-27 1 -70.5 -15t-70.5 -16q3 -9 6 -31q4 -27 -4 -27q-11 0 -13 14q1 -6 1 44q-13 0 -37 2q0 -3 -2.5 -12t-4 -18t-7.5 -8q-12 3 -7 24l4 16q-10 1 -31 7q-2 -4 -7 -12q-17 -26 -30 -14q-3 2 -3 5q0 -2 14 14l11 11
q-32 14 -44 54.5t-12 39.5q0 8 4 16q14 27 47 27q11 0 51 -6q-14 11 -14 25q0 13 13 34q-5 -1 -16.5 -7t-15.5 -6q-1 0 -2 1q-4 7 17 17q12 8 28 12q3 3 12 14q-5 2 -19 5q-9 1 -16.5 1.5t-6.5 5.5q1 4 10 4q20 5 39 -10q2 3 10 9q-14 24 -26 33q-6 5 -23 9q-10 3 -7 9
q5 10 36 -9q11 -6 25 -37q12 12 23.5 20.5t40.5 30.5q-8 -1 -19 -6t-16 -5q-10 0 -17.5 9t-7.5 19q0 16 20 53.5t20 50.5q0 10 -5.5 14.5t-5.5 14.5q0 11 8.5 20t18.5 9q24 0 27 -21q19 1 37.5 -8t29.5 -9q12 0 35 8t33 8q4 0 8 -1q4 24 30 24q13 0 23 -8.5t7 -22.5
q-1 -4 -5.5 -15.5t-4.5 -21.5q0 -20 15 -54t15 -45q0 -24 -27 -24q-11 0 -28 7q-20 10 -22 10q5 -13 24 -20q25 -10 33 -16.5t21 -17.5q11 9 32 32q2 2 8 12q4 7 7 7q2 0 4.5 -2.5t2.5 -6.5q0 -14 -49 -47q4 -3 15 -16q7 3 23 7q22 5 25 -4q1 -6 -7.5 -6.5t-17.5 -0.5
q-2 0 -17 -3q5 -5 16 -21q41 0 47 -1q13 -2 13 -13q0 -5 -4 -5q-3 0 -11 3t-11 4q-10 2 -29 5q18 -33 18 -49q0 -12 -10 -18q80 11 85 11q23 0 43 -35zM444 452q-1 9 -8 14.5t-12 3.5q-9 -1 -14.5 -8t-3.5 -12q2 -19 21 -17q9 1 14 7.5t3 11.5zM245 449q-1 9 -8.5 15
t-12.5 4q-9 -1 -15 -8.5t-4 -12.5q1 -8 9 -13.5t13 -3.5q9 1 14.5 7.5t3.5 11.5zM411 343q-24 -11 -53 -11q-14 0 -38 3t-34 3q-9 0 -41 -7q30 2 58 -3q32 -6 31 -6q40 0 77 21zM400 348l-2 3q-20 -11 -68 -4q-19 3 -37 6q-20 3 -38 -2q-14 -4 -36 -16q-25 -14 -33 -25l1 -3
q32 30 70 39q22 5 73 -3q46 -7 70 5zM454 307v3q-27 17 -50 17q-12 0 -34.5 -7.5t-34.5 -7.5q-25 0 -40 5q-27 8 -34 9l-6 -1q18 -6 36.5 -12t44.5 -6q10 0 29 5q23 6 29 7q16 3 60 -12zM433 452q0 -8 -7 -8q-9 0 -9 6q0 9 7 9q9 0 9 -7zM234 449q0 -9 -8 -9q-10 0 -10 7
q0 10 8 10q10 0 10 -8z" />
    <glyph glyph-name="questiondown" unicode="&#xbf;" horiz-adv-x="224" 
d="M210 268q0 -10 -8.5 -19t-19.5 -10q-12 -1 -19.5 6t-6.5 18q3 27 29 29q11 1 18 -5.5t7 -18.5zM174 174q-11 -36 -58 -82q-35 -30 -92 -81q-66 -61 -66 -111q0 -25 14.5 -41t37.5 -15q40 2 64 41q14 28 11 53t-13 40q20 -13 24 -34q7 -32 -6 -63q-8 -19 -28 -36
q-26 -21 -61 -23q-38 -2 -62.5 18.5t-24.5 56.5q0 60 79 127q34 24 103 79q54 46 68 78q9 21 0 23q-6 1 -23 -17q-11 -11 -12 -17q-10 11 2 24q19 20 35 15q16 -7 8 -35z" />
    <glyph glyph-name="Agrave" unicode="&#xc0;" horiz-adv-x="800" 
d="M931 526q-1 -5 -23 -1q-43 7 -75 14q-2 -16 -7 -46q-27 -142 -58 -238q-28 -85 -85 -200q48 53 84 66q8 3 8 -2q0 -2 -5 -4t-7 -4q-34 -22 -76 -72q-20 -23 -47 -59q-14 -18 -26 -18q-9 0 -2 13q7 15 17 39q45 100 91 244q44 137 61 223q9 43 12 66q-11 2 -38 7
q-106 -167 -227 -295q22 -6 56 -14q54 -12 109 -16q11 -1 10 -2q0 -5 -17 -5q-71 -2 -136 10q-16 3 -39 10q-81 -80 -174 -149q-213 -159 -352 -170q-90 -7 -97 32q-4 23 22 45q23 21 60 32q13 4 15 2q1 -2 -8 -6q-53 -21 -53 -59q0 -39 63 -36q125 7 327 168q85 68 167 150
q-15 5 -31 12q-21 9 -16 20q3 6 10 6q9 0 33 -10q8 -3 22 -9q120 121 241 288l-164 33q-143 30 -171 35q-86 17 -166 25q-24 3 -48 3q-179 0 -172 -107q2 -26 37 -61q29 -28 63 -48q9 -7 8 -7q-2 -2 -14 3q-116 51 -130 106q-3 12 -3 23q0 58 85 83q59 18 148 18q22 0 40 -1
q111 -7 332 -54q46 -10 163 -39q19 26 35.5 52.5t19.5 48.5q1 7 1 24q0 10 4 10q15 0 22 -36q9 -48 4 -120q31 -8 76 -17q21 -4 21 -6zM803 642q-2 -6 -12 -25q-19 -35 -29 -50q6 -1 16.5 -4t15.5 -5q5 33 9 84zM861 714q-14 -1 -44 13t-46 29q-19 18 -19 30t12 12
q14 0 31 -20l32 -36q20 -20 34 -28z" />
    <glyph glyph-name="Aacute" unicode="&#xc1;" horiz-adv-x="800" 
d="M931 526q-1 -5 -23 -1q-43 7 -75 14q-2 -16 -7 -46q-27 -142 -58 -238q-28 -85 -85 -200q48 53 84 66q8 3 8 -2q0 -2 -5 -4t-7 -4q-34 -22 -76 -72q-20 -23 -47 -59q-14 -18 -26 -18q-9 0 -2 13q7 15 17 39q45 100 91 244q44 137 61 223q9 43 12 66q-11 2 -38 7
q-106 -167 -227 -295q22 -6 56 -14q54 -12 109 -16q11 -1 10 -2q0 -5 -17 -5q-71 -2 -136 10q-16 3 -39 10q-81 -80 -174 -149q-213 -159 -352 -170q-90 -7 -97 32q-4 23 22 45q23 21 60 32q13 4 15 2q1 -2 -8 -6q-53 -21 -53 -59q0 -39 63 -36q125 7 327 168q85 68 167 150
q-15 5 -31 12q-21 9 -16 20q3 6 10 6q9 0 33 -10q8 -3 22 -9q120 121 241 288l-164 33q-143 30 -171 35q-86 17 -166 25q-24 3 -48 3q-179 0 -172 -107q2 -26 37 -61q29 -28 63 -48q9 -7 8 -7q-2 -2 -14 3q-116 51 -130 106q-3 12 -3 23q0 58 85 83q59 18 148 18q22 0 40 -1
q111 -7 332 -54q46 -10 163 -39q19 26 35.5 52.5t19.5 48.5q1 7 1 24q0 10 4 10q15 0 22 -36q9 -48 4 -120q31 -8 76 -17q21 -4 21 -6zM803 642q-2 -6 -12 -25q-19 -35 -29 -50q6 -1 16.5 -4t15.5 -5q5 33 9 84zM871 788q0 -12 -18.5 -28.5t-45.5 -29.5q-30 -15 -45 -13
q20 11 66 64q16 19 31 19q12 0 12 -12z" />
    <glyph glyph-name="Acircumflex" unicode="&#xc2;" horiz-adv-x="800" 
d="M931 526q-1 -5 -23 -1q-43 7 -75 14q-2 -16 -7 -46q-27 -142 -58 -238q-28 -85 -85 -200q48 53 84 66q8 3 8 -2q0 -2 -5 -4t-7 -4q-34 -22 -76 -72q-20 -23 -47 -59q-14 -18 -26 -18q-9 0 -2 13q7 15 17 39q45 100 91 244q44 137 61 223q9 43 12 66q-11 2 -38 7
q-106 -167 -227 -295q22 -6 56 -14q54 -12 109 -16q11 -1 10 -2q0 -5 -17 -5q-71 -2 -136 10q-16 3 -39 10q-81 -80 -174 -149q-213 -159 -352 -170q-90 -7 -97 32q-4 23 22 45q23 21 60 32q13 4 15 2q1 -2 -8 -6q-53 -21 -53 -59q0 -39 63 -36q125 7 327 168q85 68 167 150
q-15 5 -31 12q-21 9 -16 20q3 6 10 6q9 0 33 -10q8 -3 22 -9q120 121 241 288l-164 33q-143 30 -171 35q-86 17 -166 25q-24 3 -48 3q-179 0 -172 -107q2 -26 37 -61q29 -28 63 -48q9 -7 8 -7q-2 -2 -14 3q-116 51 -130 106q-3 12 -3 23q0 58 85 83q59 18 148 18q22 0 40 -1
q111 -7 332 -54q46 -10 163 -39q19 26 35.5 52.5t19.5 48.5q1 7 1 24q0 10 4 10q15 0 22 -36q9 -48 4 -120q31 -8 76 -17q21 -4 21 -6zM803 642q-2 -6 -12 -25q-19 -35 -29 -50q6 -1 16.5 -4t15.5 -5q5 33 9 84zM870 716q-2 -1 -8 5q-19 19 -27 36q-42 -24 -85 -39
q-6 -2 -7 1q-2 3 4 5q35 24 90 72q7 6 9 6t4 -10q10 -43 20 -69q1 -3 2 -5z" />
    <glyph glyph-name="Atilde" unicode="&#xc3;" horiz-adv-x="800" 
d="M931 526q-1 -5 -23 -1q-43 7 -75 14q-2 -16 -7 -46q-27 -142 -58 -238q-28 -85 -85 -200q48 53 84 66q8 3 8 -2q0 -2 -5 -4t-7 -4q-34 -22 -76 -72q-20 -23 -47 -59q-14 -18 -26 -18q-9 0 -2 13q7 15 17 39q45 100 91 244q44 137 61 223q9 43 12 66q-11 2 -38 7
q-106 -167 -227 -295q22 -6 56 -14q54 -12 109 -16q11 -1 10 -2q0 -5 -17 -5q-71 -2 -136 10q-16 3 -39 10q-81 -80 -174 -149q-213 -159 -352 -170q-90 -7 -97 32q-4 23 22 45q23 21 60 32q13 4 15 2q1 -2 -8 -6q-53 -21 -53 -59q0 -39 63 -36q125 7 327 168q85 68 167 150
q-15 5 -31 12q-21 9 -16 20q3 6 10 6q9 0 33 -10q8 -3 22 -9q120 121 241 288l-164 33q-143 30 -171 35q-86 17 -166 25q-24 3 -48 3q-179 0 -172 -107q2 -26 37 -61q29 -28 63 -48q9 -7 8 -7q-2 -2 -14 3q-116 51 -130 106q-3 12 -3 23q0 58 85 83q59 18 148 18q22 0 40 -1
q111 -7 332 -54q46 -10 163 -39q19 26 35.5 52.5t19.5 48.5q1 7 1 24q0 10 4 10q15 0 22 -36q9 -48 4 -120q31 -8 76 -17q21 -4 21 -6zM803 642q-2 -6 -12 -25q-19 -35 -29 -50q6 -1 16.5 -4t15.5 -5q5 33 9 84zM887 763q-17 -38 -47 -37q-10 1 -28.5 8t-27.5 8
q-13 1 -32 -13l-8 -4q-8 0 8.5 23t41.5 22q11 -1 29.5 -8t26.5 -8q21 -2 31 12q2 7 6 5q3 -1 0 -8z" />
    <glyph glyph-name="Adieresis" unicode="&#xc4;" horiz-adv-x="800" 
d="M931 526q-1 -5 -23 -1q-43 7 -75 14q-2 -16 -7 -46q-27 -142 -58 -238q-28 -85 -85 -200q48 53 84 66q8 3 8 -2q0 -2 -5 -4t-7 -4q-34 -22 -76 -72q-20 -23 -47 -59q-14 -18 -26 -18q-9 0 -2 13q7 15 17 39q45 100 91 244q44 137 61 223q9 43 12 66q-11 2 -38 7
q-106 -167 -227 -295q22 -6 56 -14q54 -12 109 -16q11 -1 10 -2q0 -5 -17 -5q-71 -2 -136 10q-16 3 -39 10q-81 -80 -174 -149q-213 -159 -352 -170q-90 -7 -97 32q-4 23 22 45q23 21 60 32q13 4 15 2q1 -2 -8 -6q-53 -21 -53 -59q0 -39 63 -36q125 7 327 168q85 68 167 150
q-15 5 -31 12q-21 9 -16 20q3 6 10 6q9 0 33 -10q8 -3 22 -9q120 121 241 288l-164 33q-143 30 -171 35q-86 17 -166 25q-24 3 -48 3q-179 0 -172 -107q2 -26 37 -61q29 -28 63 -48q9 -7 8 -7q-2 -2 -14 3q-116 51 -130 106q-3 12 -3 23q0 58 85 83q59 18 148 18q22 0 40 -1
q111 -7 332 -54q46 -10 163 -39q19 26 35.5 52.5t19.5 48.5q1 7 1 24q0 10 4 10q15 0 22 -36q9 -48 4 -120q31 -8 76 -17q21 -4 21 -6zM803 642q-2 -6 -12 -25q-19 -35 -29 -50q6 -1 16.5 -4t15.5 -5q5 33 9 84zM879 752q0 -23 -23 -23t-23 23t23 23t23 -23zM795 752
q0 -23 -23 -23t-23 23t23 23t23 -23z" />
    <glyph glyph-name="Aring" unicode="&#xc5;" horiz-adv-x="800" 
d="M856 767q0 -19 -13.5 -33t-33.5 -14q-19 0 -32.5 13.5t-13.5 33.5q0 19 13.5 32.5t32.5 13.5t33 -13.5t14 -32.5zM931 526q-1 -5 -23 -1q-43 7 -75 14q-2 -16 -7 -46q-27 -142 -58 -238q-28 -85 -85 -200q48 53 84 66q8 3 8 -2q0 -2 -5 -4t-7 -4q-34 -22 -76 -72
q-20 -23 -47 -59q-14 -18 -26 -18q-9 0 -2 13q7 15 17 39q45 100 91 244q44 137 61 223q9 43 12 66q-11 2 -38 7q-106 -167 -227 -295q22 -6 56 -14q54 -12 109 -16q11 -1 10 -2q0 -5 -17 -5q-71 -2 -136 10q-16 3 -39 10q-81 -80 -174 -149q-213 -159 -352 -170
q-90 -7 -97 32q-4 23 22 45q23 21 60 32q13 4 15 2q1 -2 -8 -6q-53 -21 -53 -59q0 -39 63 -36q125 7 327 168q85 68 167 150q-15 5 -31 12q-21 9 -16 20q3 6 10 6q9 0 33 -10q8 -3 22 -9q120 121 241 288l-164 33q-143 30 -171 35q-86 17 -166 25q-24 3 -48 3
q-179 0 -172 -107q2 -26 37 -61q29 -28 63 -48q9 -7 8 -7q-2 -2 -14 3q-116 51 -130 106q-3 12 -3 23q0 58 85 83q59 18 148 18q22 0 40 -1q111 -7 332 -54q46 -10 163 -39q19 26 35.5 52.5t19.5 48.5q1 7 1 24q0 10 4 10q15 0 22 -36q9 -48 4 -120q31 -8 76 -17
q21 -4 21 -6zM837 767q0 27 -28 27q-27 0 -27 -27q0 -28 27 -28q28 0 28 28zM803 642q-2 -6 -12 -25q-19 -35 -29 -50q6 -1 16.5 -4t15.5 -5q5 33 9 84z" />
    <glyph glyph-name="AE" unicode="&#xc6;" horiz-adv-x="960" 
d="M1102 447q1 1 -13 9q-28 17 -108.5 45.5t-145.5 45.5q-4 -36 -8 -55q-22 -120 -59 -239q113 -21 205 -24q15 0 14 -2q-1 -7 -31 -7q-99 0 -194 16q-42 -123 -80 -184q-21 -34 -44 -55q23 -11 91 -48q147 -79 222 -79q90 0 123 60q6 8 7 8q2 -1 -3 -14q-12 -28 -41 -48
q-38 -26 -93 -27q-68 -1 -169 43q-15 6 -162 80q-2 -2 -17 -9q-39 -15 -77 -10q-27 4 -45 19t-18 33q0 19 20.5 32.5t59.5 3.5q27 -7 81 -34q10 10 15 20q32 62 82 216q-98 16 -174 36q-59 -65 -127 -123q-127 -110 -247 -172q-107 -57 -180 -61q-88 -5 -96 32q-5 23 21 45
q23 21 59 32q13 4 15 2q1 -2 -8 -6q-53 -21 -53 -59q0 -39 63 -36q160 7 442 271q28 27 84 84q-10 4 -24 8q-24 9 -24 21q0 3 2 5q5 5 65 -14q111 117 214 261q-55 13 -170 36q-223 41 -338 47q-21 1 -39 1q-187 0 -180 -106q2 -26 37 -61q29 -28 63 -48q9 -7 8 -7
q-1 -3 -14 3q-115 52 -129 105q-3 12 -3 23q0 68 113 92q72 15 159 10q163 -9 334 -41q110 -21 172 -36q12 16 24 36q16 27 20 49q1 6 1 24q0 10 4 10t11 -10q9 -13 13 -31q9 -41 5 -96q172 -47 253 -106q17 -12 12 -16zM803 643q-4 -14 -9.5 -23t-21.5 -35q12 -3 26 -7
q5 38 5 65zM795 557q-9 2 -34 8q-87 -135 -203 -265q60 -18 162 -38q43 131 61 218q6 27 14 77zM595 -18q-26 14 -66 35q-34 15 -44 15q-11 0 -11 -17q0 -38 47 -51q34 -10 63 9q6 4 11 9z" />
    <glyph glyph-name="Ccedilla" unicode="&#xc7;" horiz-adv-x="743" 
d="M789 568q2 -10 2 -19q0 -55 -65 -92q-60 -35 -133 -35q-48 0 -82 15q-25 12 -39 30q-11 15 -8 19l12 -12q16 -17 39 -27q33 -15 78 -15q60 0 105 29q51 33 51 83q0 11 -3 22q-14 60 -119 60q-15 0 -31 -1q-69 -6 -156 -45q-104 -46 -191 -121q-179 -154 -188 -326
q-5 -97 60 -146q61 -46 173 -45q152 2 280 73q106 59 120 147q2 15 0 29q-3 19 -4 18q8 4 21 -14q9 -15 8 -33q-3 -82 -141 -158q-133 -73 -279 -77q-6 -6 -10 -12q-3 -5 4 -6q45 -6 43 -36q-1 -20 -20.5 -31.5t-47.5 -9.5q-43 2 -57 28q-4 5 -2 7q3 3 6 -1q16 -18 51 -18
q34 0 38 25q3 19 -21 23q-7 0 -17 4q-2 1 8 13q4 5 12 14q-132 -1 -206 47q-84 54 -76 160q14 181 210 336q91 72 202 117q99 40 184 48q18 2 37 2q137 0 152 -69z" />
    <glyph glyph-name="Egrave" unicode="&#xc8;" horiz-adv-x="628" 
d="M841 481q1 1 -13 9q-50 30 -226 83q-27 -58 -85 -176q-17 -36 -51 -101q35 -8 78 -16q76 -14 114 -15q9 0 8 -3q-1 -5 -17 -5q-85 -2 -193 20q-86 -153 -156 -221q23 -17 71 -51q103 -72 166 -103q76 -37 140 -37q84 0 119 62q5 9 7 8q4 -2 -2 -13q-9 -26 -37 -47
q-37 -27 -91 -27q-143 0 -319 126q-28 20 -80 58q-95 -78 -180 -75q-46 2 -69 25q-16 16 -16 34q0 5 2 6l9 -12t24 -20q23 -12 56 -14q55 -3 99 21q31 17 58 47q-45 34 -89 67q-71 51 -93 56q-20 5 -20 -5q0 -18 36 -54q42 -41 90 -53q-62 3 -103 39q-34 30 -34 60
q0 13 8 18q19 13 42 7q61 -16 186 -108q50 58 132 218q-16 5 -40 13q-18 9 -13 19q4 6 28 -1l34 -12q9 17 48 93q67 132 95 182q-128 38 -244 38q-178 0 -182 -116q-1 -29 31 -68q26 -32 57 -53q7 -7 7 -8q-1 -3 -13 4q-107 61 -116 114q-2 10 -2 18q0 70 90 102
q64 22 153 22q21 0 36 -1q101 -9 195 -32q28 49 55 74q17 16 32 23t18 4l-17 -20q-26 -32 -52 -90q139 -37 218 -97q16 -12 11 -16zM718 718q-14 -1 -44 13t-46 29q-19 18 -19 30t12 12q14 0 31 -20l32 -36q20 -20 34 -28z" />
    <glyph glyph-name="Eacute" unicode="&#xc9;" horiz-adv-x="628" 
d="M841 481q1 1 -13 9q-50 30 -226 83q-27 -58 -85 -176q-17 -36 -51 -101q35 -8 78 -16q76 -14 114 -15q9 0 8 -3q-1 -5 -17 -5q-85 -2 -193 20q-86 -153 -156 -221q23 -17 71 -51q103 -72 166 -103q76 -37 140 -37q84 0 119 62q5 9 7 8q4 -2 -2 -13q-9 -26 -37 -47
q-37 -27 -91 -27q-143 0 -319 126q-28 20 -80 58q-95 -78 -180 -75q-46 2 -69 25q-16 16 -16 34q0 5 2 6l9 -12t24 -20q23 -12 56 -14q55 -3 99 21q31 17 58 47q-45 34 -89 67q-71 51 -93 56q-20 5 -20 -5q0 -18 36 -54q42 -41 90 -53q-62 3 -103 39q-34 30 -34 60
q0 13 8 18q19 13 42 7q61 -16 186 -108q50 58 132 218q-16 5 -40 13q-18 9 -13 19q4 6 28 -1l34 -12q9 17 48 93q67 132 95 182q-128 38 -244 38q-178 0 -182 -116q-1 -29 31 -68q26 -32 57 -53q7 -7 7 -8q-1 -3 -13 4q-107 61 -116 114q-2 10 -2 18q0 70 90 102
q64 22 153 22q21 0 36 -1q101 -9 195 -32q28 49 55 74q17 16 32 23t18 4l-17 -20q-26 -32 -52 -90q139 -37 218 -97q16 -12 11 -16zM725 788q0 -12 -18.5 -28.5t-45.5 -29.5q-30 -15 -45 -13q20 11 66 64q16 19 31 19q12 0 12 -12z" />
    <glyph glyph-name="Ecircumflex" unicode="&#xca;" horiz-adv-x="628" 
d="M841 481q1 1 -13 9q-50 30 -226 83q-27 -58 -85 -176q-17 -36 -51 -101q35 -8 78 -16q76 -14 114 -15q9 0 8 -3q-1 -5 -17 -5q-85 -2 -193 20q-86 -153 -156 -221q23 -17 71 -51q103 -72 166 -103q76 -37 140 -37q84 0 119 62q5 9 7 8q4 -2 -2 -13q-9 -26 -37 -47
q-37 -27 -91 -27q-143 0 -319 126q-28 20 -80 58q-95 -78 -180 -75q-46 2 -69 25q-16 16 -16 34q0 5 2 6l9 -12t24 -20q23 -12 56 -14q55 -3 99 21q31 17 58 47q-45 34 -89 67q-71 51 -93 56q-20 5 -20 -5q0 -18 36 -54q42 -41 90 -53q-62 3 -103 39q-34 30 -34 60
q0 13 8 18q19 13 42 7q61 -16 186 -108q50 58 132 218q-16 5 -40 13q-18 9 -13 19q4 6 28 -1l34 -12q9 17 48 93q67 132 95 182q-128 38 -244 38q-178 0 -182 -116q-1 -29 31 -68q26 -32 57 -53q7 -7 7 -8q-1 -3 -13 4q-107 61 -116 114q-2 10 -2 18q0 70 90 102
q64 22 153 22q21 0 36 -1q101 -9 195 -32q28 49 55 74q17 16 32 23t18 4l-17 -20q-26 -32 -52 -90q139 -37 218 -97q16 -12 11 -16zM730 716q-2 -1 -8 5q-19 19 -27 36q-42 -24 -85 -39q-6 -2 -7 1q-2 3 4 5q35 24 90 72q7 6 9 6t4 -10q10 -43 20 -69q1 -3 2 -5z" />
    <glyph glyph-name="Edieresis" unicode="&#xcb;" horiz-adv-x="628" 
d="M841 481q1 1 -13 9q-50 30 -226 83q-27 -58 -85 -176q-17 -36 -51 -101q35 -8 78 -16q76 -14 114 -15q9 0 8 -3q-1 -5 -17 -5q-85 -2 -193 20q-86 -153 -156 -221q23 -17 71 -51q103 -72 166 -103q76 -37 140 -37q84 0 119 62q5 9 7 8q4 -2 -2 -13q-9 -26 -37 -47
q-37 -27 -91 -27q-143 0 -319 126q-28 20 -80 58q-95 -78 -180 -75q-46 2 -69 25q-16 16 -16 34q0 5 2 6l9 -12t24 -20q23 -12 56 -14q55 -3 99 21q31 17 58 47q-45 34 -89 67q-71 51 -93 56q-20 5 -20 -5q0 -18 36 -54q42 -41 90 -53q-62 3 -103 39q-34 30 -34 60
q0 13 8 18q19 13 42 7q61 -16 186 -108q50 58 132 218q-16 5 -40 13q-18 9 -13 19q4 6 28 -1l34 -12q9 17 48 93q67 132 95 182q-128 38 -244 38q-178 0 -182 -116q-1 -29 31 -68q26 -32 57 -53q7 -7 7 -8q-1 -3 -13 4q-107 61 -116 114q-2 10 -2 18q0 70 90 102
q64 22 153 22q21 0 36 -1q101 -9 195 -32q28 49 55 74q17 16 32 23t18 4l-17 -20q-26 -32 -52 -90q139 -37 218 -97q16 -12 11 -16zM731 745q0 -23 -23 -23t-23 23t23 23t23 -23zM647 745q0 -23 -23 -23t-23 23t23 23t23 -23z" />
    <glyph glyph-name="Igrave" unicode="&#xcc;" horiz-adv-x="425" 
d="M572 564q-1 -5 -17 -3q-10 2 -31 6q-7 -77 -50 -180q-71 -169 -178 -306q-74 -94 -140 -147q-53 -42 -88 -34q-29 7 -28 44q1 57 51 108q16 17 27 22q-9 -11 -16 -24q-36 -72 -36 -122q0 -20 13 -20q24 0 52 26q59 56 125 152q98 142 170 305q43 97 69 184
q-63 13 -124 30q-129 35 -212 43q-57 5 -98 -17q-59 -31 -53 -108q2 -29 29 -67q21 -30 44 -49l7 -9q-1 -3 -11 4q-93 62 -104 113q-4 17 -4 32q0 70 81 98q48 16 110 15q75 -1 171 -26l166 -48q3 20 0 33q-2 8 1 9q6 3 16 -14t11 -36q3 -1 30 -9zM553 674q-14 -1 -44 13
t-46 29q-19 18 -19 30t12 12q14 0 31 -20l32 -36q20 -20 34 -28z" />
    <glyph glyph-name="Iacute" unicode="&#xcd;" horiz-adv-x="425" 
d="M572 564q-1 -5 -17 -3q-10 2 -31 6q-7 -77 -50 -180q-71 -169 -178 -306q-74 -94 -140 -147q-53 -42 -88 -34q-29 7 -28 44q1 57 51 108q16 17 27 22q-9 -11 -16 -24q-36 -72 -36 -122q0 -20 13 -20q24 0 52 26q59 56 125 152q98 142 170 305q43 97 69 184
q-63 13 -124 30q-129 35 -212 43q-57 5 -98 -17q-59 -31 -53 -108q2 -29 29 -67q21 -30 44 -49l7 -9q-1 -3 -11 4q-93 62 -104 113q-4 17 -4 32q0 70 81 98q48 16 110 15q75 -1 171 -26l166 -48q3 20 0 33q-2 8 1 9q6 3 16 -14t11 -36q3 -1 30 -9zM574 748
q0 -12 -18.5 -28.5t-45.5 -29.5q-30 -15 -45 -13q20 11 66 64q16 19 31 19q12 0 12 -12z" />
    <glyph glyph-name="Icircumflex" unicode="&#xce;" horiz-adv-x="425" 
d="M572 564q-1 -5 -17 -3q-10 2 -31 6q-7 -77 -50 -180q-71 -169 -178 -306q-74 -94 -140 -147q-53 -42 -88 -34q-29 7 -28 44q1 57 51 108q16 17 27 22q-9 -11 -16 -24q-36 -72 -36 -122q0 -20 13 -20q24 0 52 26q59 56 125 152q98 142 170 305q43 97 69 184
q-63 13 -124 30q-129 35 -212 43q-57 5 -98 -17q-59 -31 -53 -108q2 -29 29 -67q21 -30 44 -49l7 -9q-1 -3 -11 4q-93 62 -104 113q-4 17 -4 32q0 70 81 98q48 16 110 15q75 -1 171 -26l166 -48q3 20 0 33q-2 8 1 9q6 3 16 -14t11 -36q3 -1 30 -9zM568 676q-2 -1 -8 5
q-19 19 -27 36q-42 -24 -85 -39q-6 -2 -7 1q-2 3 4 5q35 24 90 72q7 6 9 6t4 -10q10 -43 20 -69q1 -3 2 -5z" />
    <glyph glyph-name="Idieresis" unicode="&#xcf;" horiz-adv-x="425" 
d="M572 564q-1 -5 -17 -3q-10 2 -31 6q-7 -77 -50 -180q-71 -169 -178 -306q-74 -94 -140 -147q-53 -42 -88 -34q-29 7 -28 44q1 57 51 108q16 17 27 22q-9 -11 -16 -24q-36 -72 -36 -122q0 -20 13 -20q24 0 52 26q59 56 125 152q98 142 170 305q43 97 69 184
q-63 13 -124 30q-129 35 -212 43q-57 5 -98 -17q-59 -31 -53 -108q2 -29 29 -67q21 -30 44 -49l7 -9q-1 -3 -11 4q-93 62 -104 113q-4 17 -4 32q0 70 81 98q48 16 110 15q75 -1 171 -26l166 -48q3 20 0 33q-2 8 1 9q6 3 16 -14t11 -36q3 -1 30 -9zM568 705q0 -23 -23 -23
t-23 23t23 23t23 -23zM484 705q0 -23 -23 -23t-23 23t23 23t23 -23z" />
    <glyph glyph-name="Eth" unicode="&#xd0;" horiz-adv-x="945" 
d="M944 277q-34 -144 -154 -254q-106 -97 -270 -97q-139 0 -260 104q-45 39 -79 74q-25 -33 -58 -89.5t-43 -84.5l-6 -17q-8 0 0 27q21 72 86 185q-27 34 -50 57q-15 -11 -28 -43q-37 -92 -38 -153q-1 -54 15 -81l6 -11q-9 2 -16 15q-20 32 -20 79q0 91 33 168q18 43 31 44
q9 1 30 -5.5t56 -41.5q42 76 99 160q-4 0 -35 -1q-27 -1 -41 -1q-19 1 -18 5q2 16 111 22q43 65 197 248q-79 -8 -158 -17q-98 -10 -176 -11q-52 -1 -92 13q-47 17 -47 47q0 38 68 58q53 15 99 12q40 -2 36 -10q0 1 -26 2q-41 2 -83 -10q-57 -16 -57 -50q0 -44 111 -44
q118 0 334 22l16 24l-26 -5q22 18 49 42q18 13 20 12q4 -2 -4 -18.5t-33 -52.5q40 4 78 4q156 0 245 -54q107 -64 107 -201q0 -36 -9 -72zM888 280q13 45 13 91q0 114 -74 166.5t-235 52.5q-37 0 -77 -3q-95 -153 -164 -250q128 -4 172 -30q-47 6 -189 6q-47 -61 -133 -180
q2 -2 79 -71q138 -124 244 -124q75 0 127.5 22t108.5 81q84 88 128 239z" />
    <glyph glyph-name="Ntilde" unicode="&#xd1;" horiz-adv-x="795" 
d="M1054 587q-42 0 -73 -20q-36 -23 -89 -106q-34 -53 -81 -148q-56 -113 -95 -207q-13 -29 -41 -100q-23 -60 -37 -57q-12 2 -2 33q5 9 12 26q8 48 1 143q-7 93 -24 202q-13 82 -34 142q0 -12 -6 -34q-35 -126 -124 -258q-100 -148 -227 -231q-119 -78 -216 -71
q-40 3 -63.5 23.5t-21.5 53.5q3 38 32 49q-9 -13 -7 -45q3 -59 72 -65q192 -16 411 305q105 154 133 240q14 43 1 71q-69 152 -242 152q-78 0 -128.5 -51.5t-47.5 -129.5q5 -116 97 -155q11 -4 10 -6q-2 -3 -17 0q-124 43 -128 163q-3 81 63 135.5t161 54.5q202 0 281 -170
q34 -72 51 -183q16 -101 14 -189q-1 -71 -13 -129q14 47 31 90q25 65 90 213q53 113 86 165q42 66 85 93q23 14 48 15q31 1 38 -14zM850 683q-17 -38 -47 -37q-10 1 -28.5 8t-27.5 8q-13 1 -32 -13l-8 -4q-8 0 8.5 23t41.5 22q11 -1 29.5 -8t26.5 -8q21 -2 31 12q2 7 6 5
q3 -1 0 -8z" />
    <glyph glyph-name="Ograve" unicode="&#xd2;" horiz-adv-x="619" 
d="M629 498q12 -44 12 -95q0 -135 -76 -261q-53 -88 -143 -149q-98 -66 -195 -66q-83 0 -138.5 49.5t-61.5 133.5q-7 106 45 213q29 61 65 101q-14 26 -16 60q-5 78 57 130.5t151 53.5q194 3 251 -164q8 -23 -4 -25q-8 -1 -16 22q-5 14 -18 38q-28 31 -81 33q-82 3 -145 -36
q-77 -47 -141 -136q29 -46 85 -68q11 -4 10 -6q-3 -4 -16 1q-59 21 -90 57q-15 -22 -43 -69q-60 -115 -60 -205q0 -149 128 -170q18 -3 35 -3q86 0 169 67q68 55 121 145q98 164 98 295q0 137 -125 215q-6 2 -3 5q3 2 9 -1q39 -20 75 -60q46 -49 61 -105zM536 557
q-30 45 -82 72q-59 31 -130 30q-76 -1 -128.5 -52t-46.5 -128q2 -21 7 -36q57 65 145 107q76 36 159 31q46 -3 76 -24zM562 684q-14 -1 -44 13t-46 29q-19 18 -19 30t12 12q14 0 31 -20l32 -36q20 -20 34 -28z" />
    <glyph glyph-name="Oacute" unicode="&#xd3;" horiz-adv-x="619" 
d="M629 498q12 -44 12 -95q0 -135 -76 -261q-53 -88 -143 -149q-98 -66 -195 -66q-83 0 -138.5 49.5t-61.5 133.5q-7 106 45 213q29 61 65 101q-14 26 -16 60q-5 78 57 130.5t151 53.5q194 3 251 -164q8 -23 -4 -25q-8 -1 -16 22q-5 14 -18 38q-28 31 -81 33q-82 3 -145 -36
q-77 -47 -141 -136q29 -46 85 -68q11 -4 10 -6q-3 -4 -16 1q-59 21 -90 57q-15 -22 -43 -69q-60 -115 -60 -205q0 -149 128 -170q18 -3 35 -3q86 0 169 67q68 55 121 145q98 164 98 295q0 137 -125 215q-6 2 -3 5q3 2 9 -1q39 -20 75 -60q46 -49 61 -105zM536 557
q-30 45 -82 72q-59 31 -130 30q-76 -1 -128.5 -52t-46.5 -128q2 -21 7 -36q57 65 145 107q76 36 159 31q46 -3 76 -24zM569 758q0 -12 -18.5 -28.5t-45.5 -29.5q-30 -15 -45 -13q20 11 66 64q16 19 31 19q12 0 12 -12z" />
    <glyph glyph-name="Ocircumflex" unicode="&#xd4;" horiz-adv-x="619" 
d="M629 498q12 -44 12 -95q0 -135 -76 -261q-53 -88 -143 -149q-98 -66 -195 -66q-83 0 -138.5 49.5t-61.5 133.5q-7 106 45 213q29 61 65 101q-14 26 -16 60q-5 78 57 130.5t151 53.5q194 3 251 -164q8 -23 -4 -25q-8 -1 -16 22q-5 14 -18 38q-28 31 -81 33q-82 3 -145 -36
q-77 -47 -141 -136q29 -46 85 -68q11 -4 10 -6q-3 -4 -16 1q-59 21 -90 57q-15 -22 -43 -69q-60 -115 -60 -205q0 -149 128 -170q18 -3 35 -3q86 0 169 67q68 55 121 145q98 164 98 295q0 137 -125 215q-6 2 -3 5q3 2 9 -1q39 -20 75 -60q46 -49 61 -105zM536 557
q-30 45 -82 72q-59 31 -130 30q-76 -1 -128.5 -52t-46.5 -128q2 -21 7 -36q57 65 145 107q76 36 159 31q46 -3 76 -24zM580 686q-2 -1 -8 5q-19 19 -27 36q-42 -24 -85 -39q-6 -2 -7 1q-2 3 4 5q35 24 90 72q7 6 9 6t4 -10q10 -43 20 -69q1 -3 2 -5z" />
    <glyph glyph-name="Otilde" unicode="&#xd5;" horiz-adv-x="619" 
d="M629 498q12 -44 12 -95q0 -135 -76 -261q-53 -88 -143 -149q-98 -66 -195 -66q-83 0 -138.5 49.5t-61.5 133.5q-7 106 45 213q29 61 65 101q-14 26 -16 60q-5 78 57 130.5t151 53.5q194 3 251 -164q8 -23 -4 -25q-8 -1 -16 22q-5 14 -18 38q-28 31 -81 33q-82 3 -145 -36
q-77 -47 -141 -136q29 -46 85 -68q11 -4 10 -6q-3 -4 -16 1q-59 21 -90 57q-15 -22 -43 -69q-60 -115 -60 -205q0 -149 128 -170q18 -3 35 -3q86 0 169 67q68 55 121 145q98 164 98 295q0 137 -125 215q-6 2 -3 5q3 2 9 -1q39 -20 75 -60q46 -49 61 -105zM536 557
q-30 45 -82 72q-59 31 -130 30q-76 -1 -128.5 -52t-46.5 -128q2 -21 7 -36q57 65 145 107q76 36 159 31q46 -3 76 -24zM592 736q-17 -38 -47 -37q-10 1 -28.5 8t-27.5 8q-13 1 -32 -13l-8 -4q-8 0 8.5 23t41.5 22q11 -1 29.5 -8t26.5 -8q21 -2 31 12q2 7 6 5q3 -1 0 -8z" />
    <glyph glyph-name="Odieresis" unicode="&#xd6;" horiz-adv-x="619" 
d="M629 498q12 -44 12 -95q0 -135 -76 -261q-53 -88 -143 -149q-98 -66 -195 -66q-83 0 -138.5 49.5t-61.5 133.5q-7 106 45 213q29 61 65 101q-14 26 -16 60q-5 78 57 130.5t151 53.5q194 3 251 -164q8 -23 -4 -25q-8 -1 -16 22q-5 14 -18 38q-28 31 -81 33q-82 3 -145 -36
q-77 -47 -141 -136q29 -46 85 -68q11 -4 10 -6q-3 -4 -16 1q-59 21 -90 57q-15 -22 -43 -69q-60 -115 -60 -205q0 -149 128 -170q18 -3 35 -3q86 0 169 67q68 55 121 145q98 164 98 295q0 137 -125 215q-6 2 -3 5q3 2 9 -1q39 -20 75 -60q46 -49 61 -105zM536 557
q-30 45 -82 72q-59 31 -130 30q-76 -1 -128.5 -52t-46.5 -128q2 -21 7 -36q57 65 145 107q76 36 159 31q46 -3 76 -24zM584 719q0 -23 -23 -23t-23 23t23 23t23 -23zM500 719q0 -23 -23 -23t-23 23t23 23t23 -23z" />
    <glyph glyph-name="multiply" unicode="&#xd7;" horiz-adv-x="684" 
d="M658 102q4 -7 4 -15q0 -18 -27 -38q-24 -15 -48 -31q-19 -14 -33 -18q1 -1 2 -2.5t2.5 -3.5t9 -7t7.5 -7q0 -7 -10 -7q-14 0 -26 17l-3 6q-9 -3 -31 -6q1 -3 3 -11q2 -22 -7 -24q-5 -1 -6.5 8.5t-2.5 18.5q0 1 -1 3.5t-2 4.5q-17 -1 -34 0q0 -37 -1 -43q-2 -13 -16 -13
q-6 0 -4 9q3 9 5 17q2 21 5 30q-16 0 -59 15.5t-60 15.5q-27 1 -70.5 -15t-70.5 -16q3 -9 6 -31q4 -27 -4 -27q-11 0 -13 14q1 -6 1 44q-13 0 -37 2q0 -3 -2.5 -12t-4 -18t-7.5 -8q-12 3 -7 24l4 16q-10 1 -31 7q-2 -4 -7 -12q-17 -26 -30 -14q-3 2 -3 5q0 -2 14 14l11 11
q-32 14 -44 54.5t-12 39.5q0 8 4 16q14 27 47 27q11 0 51 -6q-14 11 -14 25q0 13 13 34q-5 -1 -16.5 -7t-15.5 -6q-1 0 -2 1q-4 7 17 17q12 8 28 12q3 3 12 14q-5 2 -19 5q-9 1 -16.5 1.5t-6.5 5.5q1 4 10 4q20 5 39 -10q2 3 10 9q-14 24 -26 33q-6 5 -23 9q-10 3 -7 9
q5 10 36 -9q11 -6 25 -37q12 12 23.5 20.5t40.5 30.5q-8 -1 -19 -6t-16 -5q-10 0 -17.5 9t-7.5 19q0 16 20 53.5t20 50.5q0 10 -5.5 14.5t-5.5 14.5q0 11 8.5 20t18.5 9q24 0 27 -21q19 1 37.5 -8t29.5 -9q12 0 35 8t33 8q4 0 8 -1q4 24 30 24q13 0 23 -8.5t7 -22.5
q-1 -4 -5.5 -15.5t-4.5 -21.5q0 -20 15 -54t15 -45q0 -24 -27 -24q-11 0 -28 7q-20 10 -22 10q5 -13 24 -20q25 -10 33 -16.5t21 -17.5q11 9 32 32q2 2 8 12q4 7 7 7q2 0 4.5 -2.5t2.5 -6.5q0 -14 -49 -47q4 -3 15 -16q7 3 23 7q22 5 25 -4q1 -6 -7.5 -6.5t-17.5 -0.5
q-2 0 -17 -3q5 -5 16 -21q41 0 47 -1q13 -2 13 -13q0 -5 -4 -5q-3 0 -11 3t-11 4q-10 2 -29 5q18 -33 18 -49q0 -12 -10 -18q80 11 85 11q23 0 43 -35zM444 452q-1 9 -8 14.5t-12 3.5q-9 -1 -14.5 -8t-3.5 -12q2 -19 21 -17q9 1 14 7.5t3 11.5zM245 449q-1 9 -8.5 15
t-12.5 4q-9 -1 -15 -8.5t-4 -12.5q1 -8 9 -13.5t13 -3.5q9 1 14.5 7.5t3.5 11.5zM411 343q-24 -11 -53 -11q-14 0 -38 3t-34 3q-9 0 -41 -7q30 2 58 -3q32 -6 31 -6q40 0 77 21zM400 348l-2 3q-20 -11 -68 -4q-19 3 -37 6q-20 3 -38 -2q-14 -4 -36 -16q-25 -14 -33 -25l1 -3
q32 30 70 39q22 5 73 -3q46 -7 70 5zM454 307v3q-27 17 -50 17q-12 0 -34.5 -7.5t-34.5 -7.5q-25 0 -40 5q-27 8 -34 9l-6 -1q18 -6 36.5 -12t44.5 -6q10 0 29 5q23 6 29 7q16 3 60 -12zM433 452q0 -8 -7 -8q-9 0 -9 6q0 9 7 9q9 0 9 -7zM234 449q0 -9 -8 -9q-10 0 -10 7
q0 10 8 10q10 0 10 -8z" />
    <glyph glyph-name="Oslash" unicode="&#xd8;" horiz-adv-x="634" 
d="M671 738q2 -2 -22 -29t-76 -89q42 -50 57 -102q13 -45 13 -99q0 -140 -78 -273q-53 -91 -142 -152q-96 -65 -192 -65q-50 0 -93 20q-13 -27 -39 -77q-23 -44 -25 -43t-2 4q0 6 13 39q15 39 39 85q-70 45 -86 131q-6 35 -6 71q0 97 42 182q73 146 213 223q90 49 185 49
q18 0 34 -2t16 -7q0 -2 -9 -1q-16 2 -33 2q-86 0 -164 -48q-113 -70 -191 -228q-56 -114 -56 -208q0 -15 1 -30q7 -86 59 -124q112 224 216 382q96 147 210 274q-29 36 -68 60q-5 3 -4 6q1 4 10 -1q37 -20 70 -56q30 35 75 81q29 30 33 25zM565 610q-84 -105 -189 -263
q-130 -195 -233 -389q31 -19 81 -19q86 0 168 69q69 57 122 150q98 172 98 304q0 84 -47 148z" />
    <glyph glyph-name="Ugrave" unicode="&#xd9;" horiz-adv-x="761" 
d="M967 600q-10 -2 -26 -8q-35 -17 -77 -80q-35 -53 -75 -140q-65 -142 -108 -246q-28 -67 -59 -146q26 29 57 40q5 1 8 -1q0 -2 -6 -5q-9 -4 -12 -6q-24 -17 -45 -43q-30 -37 -33 -39q-8 -9 -14 -7q-18 6 -11 24q38 103 75 191q-111 -182 -238 -182q-112 0 -218 99
q-71 -47 -136 -47q-18 0 -30 5.5t-9 10.5l12 -4q8 -3 18 -3q57 0 131 52q-9 8 -33 32q-27 28 -72 69q-18 14 -30 7q-19 -11 9 -43t48 -38q-40 0 -61 28q-11 15 -11 33t11 27q17 13 43 1q33 -16 78 -56q17 -14 47 -40q25 19 41 34q82 81 153 211q66 121 68 207
q3 110 -110 112q-77 1 -167.5 -91.5t-90.5 -170.5q0 -46 45 -46q34 0 65 17q12 7 13 6q3 -4 -11 -13q-36 -19 -67 -19q-56 0 -60 57q-6 89 82 183q83 88 195 87q61 -1 102.5 -34t44.5 -88q5 -96 -60 -218q-56 -104 -167 -202q-15 -13 -60 -47q114 -101 191 -103
q122 -3 253 216q34 81 70 155q59 120 96 172q30 42 69 68q33 23 58 26q7 1 11 0t3 -4zM751 634q-14 -1 -44 13t-46 29q-19 18 -19 30t12 12q14 0 31 -20l32 -36q20 -20 34 -28z" />
    <glyph glyph-name="Uacute" unicode="&#xda;" horiz-adv-x="761" 
d="M967 600q-10 -2 -26 -8q-35 -17 -77 -80q-35 -53 -75 -140q-65 -142 -108 -246q-28 -67 -59 -146q26 29 57 40q5 1 8 -1q0 -2 -6 -5q-9 -4 -12 -6q-24 -17 -45 -43q-30 -37 -33 -39q-8 -9 -14 -7q-18 6 -11 24q38 103 75 191q-111 -182 -238 -182q-112 0 -218 99
q-71 -47 -136 -47q-18 0 -30 5.5t-9 10.5l12 -4q8 -3 18 -3q57 0 131 52q-9 8 -33 32q-27 28 -72 69q-18 14 -30 7q-19 -11 9 -43t48 -38q-40 0 -61 28q-11 15 -11 33t11 27q17 13 43 1q33 -16 78 -56q17 -14 47 -40q25 19 41 34q82 81 153 211q66 121 68 207
q3 110 -110 112q-77 1 -167.5 -91.5t-90.5 -170.5q0 -46 45 -46q34 0 65 17q12 7 13 6q3 -4 -11 -13q-36 -19 -67 -19q-56 0 -60 57q-6 89 82 183q83 88 195 87q61 -1 102.5 -34t44.5 -88q5 -96 -60 -218q-56 -104 -167 -202q-15 -13 -60 -47q114 -101 191 -103
q122 -3 253 216q34 81 70 155q59 120 96 172q30 42 69 68q33 23 58 26q7 1 11 0t3 -4zM771 708q0 -12 -18.5 -28.5t-45.5 -29.5q-30 -15 -45 -13q20 11 66 64q16 19 31 19q12 0 12 -12z" />
    <glyph glyph-name="Ucircumflex" unicode="&#xdb;" horiz-adv-x="761" 
d="M967 600q-10 -2 -26 -8q-35 -17 -77 -80q-35 -53 -75 -140q-65 -142 -108 -246q-28 -67 -59 -146q26 29 57 40q5 1 8 -1q0 -2 -6 -5q-9 -4 -12 -6q-24 -17 -45 -43q-30 -37 -33 -39q-8 -9 -14 -7q-18 6 -11 24q38 103 75 191q-111 -182 -238 -182q-112 0 -218 99
q-71 -47 -136 -47q-18 0 -30 5.5t-9 10.5l12 -4q8 -3 18 -3q57 0 131 52q-9 8 -33 32q-27 28 -72 69q-18 14 -30 7q-19 -11 9 -43t48 -38q-40 0 -61 28q-11 15 -11 33t11 27q17 13 43 1q33 -16 78 -56q17 -14 47 -40q25 19 41 34q82 81 153 211q66 121 68 207
q3 110 -110 112q-77 1 -167.5 -91.5t-90.5 -170.5q0 -46 45 -46q34 0 65 17q12 7 13 6q3 -4 -11 -13q-36 -19 -67 -19q-56 0 -60 57q-6 89 82 183q83 88 195 87q61 -1 102.5 -34t44.5 -88q5 -96 -60 -218q-56 -104 -167 -202q-15 -13 -60 -47q114 -101 191 -103
q122 -3 253 216q34 81 70 155q59 120 96 172q30 42 69 68q33 23 58 26q7 1 11 0t3 -4zM767 636q-2 -1 -8 5q-19 19 -27 36q-42 -24 -85 -39q-6 -2 -7 1q-2 3 4 5q35 24 90 72q7 6 9 6t4 -10q10 -43 20 -69q1 -3 2 -5z" />
    <glyph glyph-name="Udieresis" unicode="&#xdc;" horiz-adv-x="761" 
d="M967 600q-10 -2 -26 -8q-35 -17 -77 -80q-35 -53 -75 -140q-65 -142 -108 -246q-28 -67 -59 -146q26 29 57 40q5 1 8 -1q0 -2 -6 -5q-9 -4 -12 -6q-24 -17 -45 -43q-30 -37 -33 -39q-8 -9 -14 -7q-18 6 -11 24q38 103 75 191q-111 -182 -238 -182q-112 0 -218 99
q-71 -47 -136 -47q-18 0 -30 5.5t-9 10.5l12 -4q8 -3 18 -3q57 0 131 52q-9 8 -33 32q-27 28 -72 69q-18 14 -30 7q-19 -11 9 -43t48 -38q-40 0 -61 28q-11 15 -11 33t11 27q17 13 43 1q33 -16 78 -56q17 -14 47 -40q25 19 41 34q82 81 153 211q66 121 68 207
q3 110 -110 112q-77 1 -167.5 -91.5t-90.5 -170.5q0 -46 45 -46q34 0 65 17q12 7 13 6q3 -4 -11 -13q-36 -19 -67 -19q-56 0 -60 57q-6 89 82 183q83 88 195 87q61 -1 102.5 -34t44.5 -88q5 -96 -60 -218q-56 -104 -167 -202q-15 -13 -60 -47q114 -101 191 -103
q122 -3 253 216q34 81 70 155q59 120 96 172q30 42 69 68q33 23 58 26q7 1 11 0t3 -4zM761 665q0 -23 -23 -23t-23 23t23 23t23 -23zM677 665q0 -23 -23 -23t-23 23t23 23t23 -23z" />
    <glyph glyph-name="Yacute" unicode="&#xdd;" horiz-adv-x="695" 
d="M802 528q-15 -37 -44 -74q-43 -141 -89 -242q-120 -262 -285 -414q-178 -164 -353 -164q-38 0 -60 19q-17 13 -17 28q0 4 2 5q-2 -1 16 -11q23 -12 66 -14q90 -3 167 33q70 33 147 108q148 144 286 440q24 50 75 162q-99 -169 -249 -300q-131 -114 -217 -142
q-33 -11 -49 -3q-13 6 -13 24q0 14 8 30q6 13 73.5 118.5t102.5 176.5q79 162 73 257q-6 96 -103 100q-85 3 -174 -53q-70 -44 -118 -105q-56 -70 -53 -130q2 -44 46 -46q29 -1 66 16q13 6 13 5q2 -4 -11 -11q-36 -19 -68 -19q-57 0 -60 54q-3 64 41 133q40 62 96 100
q104 70 221 66q70 -2 110.5 -43.5t41.5 -104.5q1 -94 -73 -233q-33 -63 -175 -276q-21 -31 -15 -40q7 -11 36 2q80 35 197 137q151 132 266 331q14 39 37 86q16 32 33 27t6 -33zM715 708q0 -12 -18.5 -28.5t-45.5 -29.5q-30 -15 -45 -13q20 11 66 64q16 19 31 19
q12 0 12 -12z" />
    <glyph glyph-name="Thorn" unicode="&#xde;" horiz-adv-x="638" 
d="M689 291q-25 -88 -117 -127q-73 -31 -179 -29q-74 2 -143 35q-97 -170 -174 -239q-39 -35 -62 -31q-34 6 -34 65q0 69 64 138q14 16 30 26t18 7l-10 -9q-14 -12 -26 -30q-46 -68 -48 -149q-1 -37 11 -39q16 -3 49 32q47 51 145 248q-23 18 -38.5 34t-15.5 24q0 2 1 3
q1 0 6 -6q6 -10 14 -16q13 -15 37 -31q13 27 39 77t37 73q42 85 69 134q-42 2 -147 9q-64 5 -89 11q-46 12 -43 37q3 26 63 40q49 11 95 8q24 -2 24 -5q0 -4 -16 -3q-123 5 -130 -39q-4 -28 99 -37q45 -2 149 -11q64 120 97 156q20 21 41 33.5t25 8.5l-15 -21
q-41 -55 -100 -180q8 -1 44 -5q236 -29 236 -153q0 -19 -6 -39zM637 293q8 26 8 48q0 108 -191 132q-15 2 -44 5q-19 -40 -65 -133t-89 -166q64 -31 135 -32q200 -2 246 146z" />
    <glyph glyph-name="germandbls" unicode="&#xdf;" horiz-adv-x="245" 
d="M307 386q-22 -14 -58 -32q-46 -23 -64 -47q-13 -17 -3 -61q14 -62 14 -101q0 -75 -43 -122q-38 -42 -84 -39q-28 2 -28 31q0 14 10.5 28t17.5 9q1 -1 -2 -6q-6 -8 -7.5 -16t-1.5 -13q0 -22 21 -24q32 -3 55.5 46t23.5 112q0 24 -3 54q-3 34 -3 42q-1 38 22 64t69 50
q21 11 55 32q19 15 19 43t-22 32q-60 11 -133 -126q-52 -99 -70 -140q-53 -124 -75 -193q-4 -13 -19 -75q-1 -13 -6 -27q-10 -2 -13 33q-3 34 11 85q21 78 52 152q37 88 86 164q91 140 172 140q43 0 43 -40q0 -32 -36 -55z" />
    <glyph glyph-name="agrave" unicode="&#xe0;" horiz-adv-x="259" 
d="M245 264q-18 -44 -55 -139q-23 -60 -54 -117q26 33 54 55q23 18 35 22q6 3 7 1q2 -3 -5 -6q-16 -8 -42 -33t-50 -54q-16 -19 -28 -17q-14 2 -5 22q24 54 69 171q-37 -66 -85 -116q-44 -46 -68 -45q-30 2 -30 44q0 33 20 77q23 50 72 95q56 52 96 50q25 -1 28 -24
q7 13 11 19q9 12 20 10q15 -3 10 -15zM192 234q2 6 2 11q0 19 -20 19q-32 0 -72 -49q-35 -45 -66 -114q-17 -38 -17 -60q0 -14 10 -15q20 -1 61 46q35 40 69 94q20 33 33 68zM240 314q-14 -1 -44 13t-46 29q-19 18 -19 30t12 12q14 0 31 -20l32 -36q20 -20 34 -28z" />
    <glyph glyph-name="aacute" unicode="&#xe1;" horiz-adv-x="259" 
d="M245 264q-18 -44 -55 -139q-23 -60 -54 -117q26 33 54 55q23 18 35 22q6 3 7 1q2 -3 -5 -6q-16 -8 -42 -33t-50 -54q-16 -19 -28 -17q-14 2 -5 22q24 54 69 171q-37 -66 -85 -116q-44 -46 -68 -45q-30 2 -30 44q0 33 20 77q23 50 72 95q56 52 96 50q25 -1 28 -24
q7 13 11 19q9 12 20 10q15 -3 10 -15zM192 234q2 6 2 11q0 19 -20 19q-32 0 -72 -49q-35 -45 -66 -114q-17 -38 -17 -60q0 -14 10 -15q20 -1 61 46q35 40 69 94q20 33 33 68zM262 388q0 -12 -18.5 -28.5t-45.5 -29.5q-30 -15 -45 -13q20 11 66 64q16 19 31 19q12 0 12 -12z
" />
    <glyph glyph-name="acircumflex" unicode="&#xe2;" horiz-adv-x="259" 
d="M245 264q-18 -44 -55 -139q-23 -60 -54 -117q26 33 54 55q23 18 35 22q6 3 7 1q2 -3 -5 -6q-16 -8 -42 -33t-50 -54q-16 -19 -28 -17q-14 2 -5 22q24 54 69 171q-37 -66 -85 -116q-44 -46 -68 -45q-30 2 -30 44q0 33 20 77q23 50 72 95q56 52 96 50q25 -1 28 -24
q7 13 11 19q9 12 20 10q15 -3 10 -15zM192 234q2 6 2 11q0 19 -20 19q-32 0 -72 -49q-35 -45 -66 -114q-17 -38 -17 -60q0 -14 10 -15q20 -1 61 46q35 40 69 94q20 33 33 68zM256 316q-2 -1 -8 5q-19 19 -27 36q-42 -24 -85 -39q-6 -2 -7 1q-2 3 4 5q35 24 90 72q7 6 9 6
t4 -10q10 -43 20 -69q1 -3 2 -5z" />
    <glyph glyph-name="atilde" unicode="&#xe3;" horiz-adv-x="259" 
d="M245 264q-18 -44 -55 -139q-23 -60 -54 -117q26 33 54 55q23 18 35 22q6 3 7 1q2 -3 -5 -6q-16 -8 -42 -33t-50 -54q-16 -19 -28 -17q-14 2 -5 22q24 54 69 171q-37 -66 -85 -116q-44 -46 -68 -45q-30 2 -30 44q0 33 20 77q23 50 72 95q56 52 96 50q25 -1 28 -24
q7 13 11 19q9 12 20 10q15 -3 10 -15zM192 234q2 6 2 11q0 19 -20 19q-32 0 -72 -49q-35 -45 -66 -114q-17 -38 -17 -60q0 -14 10 -15q20 -1 61 46q35 40 69 94q20 33 33 68zM258 363q-17 -38 -47 -37q-10 1 -28.5 8t-27.5 8q-13 1 -32 -13l-8 -4q-8 0 8.5 23t41.5 22
q11 -1 29.5 -8t26.5 -8q21 -2 31 12q2 7 6 5q3 -1 0 -8z" />
    <glyph glyph-name="adieresis" unicode="&#xe4;" horiz-adv-x="259" 
d="M245 264q-18 -44 -55 -139q-23 -60 -54 -117q26 33 54 55q23 18 35 22q6 3 7 1q2 -3 -5 -6q-16 -8 -42 -33t-50 -54q-16 -19 -28 -17q-14 2 -5 22q24 54 69 171q-37 -66 -85 -116q-44 -46 -68 -45q-30 2 -30 44q0 33 20 77q23 50 72 95q56 52 96 50q25 -1 28 -24
q7 13 11 19q9 12 20 10q15 -3 10 -15zM192 234q2 6 2 11q0 19 -20 19q-32 0 -72 -49q-35 -45 -66 -114q-17 -38 -17 -60q0 -14 10 -15q20 -1 61 46q35 40 69 94q20 33 33 68zM258 345q0 -23 -23 -23t-23 23t23 23t23 -23zM174 345q0 -23 -23 -23t-23 23t23 23t23 -23z" />
    <glyph glyph-name="aring" unicode="&#xe5;" horiz-adv-x="259" 
d="M245 264q-18 -44 -55 -139q-23 -60 -54 -117q26 33 54 55q23 18 35 22q6 3 7 1q2 -3 -5 -6q-16 -8 -42 -33t-50 -54q-16 -19 -28 -17q-14 2 -5 22q24 54 69 171q-37 -66 -85 -116q-44 -46 -68 -45q-30 2 -30 44q0 33 20 77q23 50 72 95q56 52 96 50q25 -1 28 -24
q7 13 11 19q9 12 20 10q15 -3 10 -15zM192 234q2 6 2 11q0 19 -20 19q-32 0 -72 -49q-35 -45 -66 -114q-17 -38 -17 -60q0 -14 10 -15q20 -1 61 46q35 40 69 94q20 33 33 68zM247 357q0 -19 -13.5 -33t-33.5 -14q-19 0 -32.5 13.5t-13.5 33.5q0 19 13.5 32.5t32.5 13.5
t33 -13.5t14 -32.5zM228 357q0 27 -28 27q-27 0 -27 -27q0 -28 27 -28q28 0 28 28z" />
    <glyph glyph-name="ae" unicode="&#xe6;" horiz-adv-x="329" 
d="M357 268q0 -18 -19 -36q-28 -26 -71 -22q-19 2 -31 8q-17 -23 -28 -46q-30 -61 -41 -104q-12 -48 9 -54q15 -5 38.5 10.5t39.5 42.5t26 63q3 12 6 12t3 -11q-4 -31 -23.5 -65t-47 -52t-49.5 -15q-37 6 -37 53q0 15 4 33q9 36 31 76q-102 -166 -149 -163q-32 2 -32 49
q0 35 20 79q26 57 76 102.5t93 45.5q26 0 28 -24q7 13 11 19q9 12 20 10q14 -3 10 -15q-10 -20 -13 -27q43 49 101 49q25 0 25 -18zM328 265q0 10 -12 10q-17 0 -40.5 -17.5t-33.5 -32.5q13 -7 28 -7q21 -1 40 15.5t18 31.5zM192 234q2 6 2 11q0 19 -20 19
q-33 0 -72.5 -49.5t-66.5 -113.5q-18 -44 -18 -68q0 -16 9 -17q37 -6 133 150q20 33 33 68z" />
    <glyph glyph-name="ccedilla" unicode="&#xe7;" horiz-adv-x="177" 
d="M192 271q1 -15 -16 -27q-10 -5 -11 -2q-1 1 2 9.5t3 16.5q0 10 -7 11q-29 4 -70 -58t-60 -133q-9 -34 -9 -52q0 -25 18 -25q25 0 57 41q23 29 39 63l10 22q6 -1 -4 -27q-14 -36 -41 -69q-33 -40 -64 -43q-2 -2 -5 -5.5t-4 -4.5q-3 -5 4 -6q45 -6 43 -36q-1 -20 -20 -31.5
t-48 -9.5q-43 2 -57 28q-4 5 -1 8q2 2 5 -2q15 -17 52 -17q34 0 38 24q3 19 -21 23q-7 0 -17 4q-2 1 7 13q4 4 10 12q-37 6 -38 51t25 97q30 61 70 99q43 42 82 43q26 0 28 -17z" />
    <glyph glyph-name="egrave" unicode="&#xe8;" horiz-adv-x="187" 
d="M215 268q0 -20 -19 -36q-31 -26 -71 -22q-16 2 -29 8q-18 -26 -28 -45q-29 -59 -42 -105q-5 -20 -5 -34q0 -23 13 -27q15 -4 38.5 14t40 46t25.5 63q3 12 6 12q4 0 3 -11q-1 -28 -24 -67q-47 -80 -98 -72q-39 6 -39 57q0 18 5 38q15 59 53 108q73 92 147 91q24 0 24 -18z
M186 265q0 10 -12 10q-17 0 -42 -19q-21 -16 -31 -31q13 -7 27 -7q21 -1 40 15.5t18 31.5zM225 314q-14 -1 -44 13t-46 29q-19 18 -19 30t12 12q14 0 31 -20l32 -36q20 -20 34 -28z" />
    <glyph glyph-name="eacute" unicode="&#xe9;" horiz-adv-x="187" 
d="M215 268q0 -20 -19 -36q-31 -26 -71 -22q-16 2 -29 8q-18 -26 -28 -45q-29 -59 -42 -105q-5 -20 -5 -34q0 -23 13 -27q15 -4 38.5 14t40 46t25.5 63q3 12 6 12q4 0 3 -11q-1 -28 -24 -67q-47 -80 -98 -72q-39 6 -39 57q0 18 5 38q15 59 53 108q73 92 147 91q24 0 24 -18z
M186 265q0 10 -12 10q-17 0 -42 -19q-21 -16 -31 -31q13 -7 27 -7q21 -1 40 15.5t18 31.5zM237 388q0 -12 -18.5 -28.5t-45.5 -29.5q-30 -15 -45 -13q20 11 66 64q16 19 31 19q12 0 12 -12z" />
    <glyph glyph-name="ecircumflex" unicode="&#xea;" horiz-adv-x="187" 
d="M215 268q0 -20 -19 -36q-31 -26 -71 -22q-16 2 -29 8q-18 -26 -28 -45q-29 -59 -42 -105q-5 -20 -5 -34q0 -23 13 -27q15 -4 38.5 14t40 46t25.5 63q3 12 6 12q4 0 3 -11q-1 -28 -24 -67q-47 -80 -98 -72q-39 6 -39 57q0 18 5 38q15 59 53 108q73 92 147 91q24 0 24 -18z
M186 265q0 10 -12 10q-17 0 -42 -19q-21 -16 -31 -31q13 -7 27 -7q21 -1 40 15.5t18 31.5zM234 316q-2 -1 -8 5q-19 19 -27 36q-42 -24 -85 -39q-6 -2 -7 1q-2 3 4 5q35 24 90 72q7 6 9 6t4 -10q10 -43 20 -69q1 -3 2 -5z" />
    <glyph glyph-name="edieresis" unicode="&#xeb;" horiz-adv-x="187" 
d="M215 268q0 -20 -19 -36q-31 -26 -71 -22q-16 2 -29 8q-18 -26 -28 -45q-29 -59 -42 -105q-5 -20 -5 -34q0 -23 13 -27q15 -4 38.5 14t40 46t25.5 63q3 12 6 12q4 0 3 -11q-1 -28 -24 -67q-47 -80 -98 -72q-39 6 -39 57q0 18 5 38q15 59 53 108q73 92 147 91q24 0 24 -18z
M186 265q0 10 -12 10q-17 0 -42 -19q-21 -16 -31 -31q13 -7 27 -7q21 -1 40 15.5t18 31.5zM241 345q0 -23 -23 -23t-23 23t23 23t23 -23zM157 345q0 -23 -23 -23t-23 23t23 23t23 -23z" />
    <glyph glyph-name="igrave" unicode="&#xec;" horiz-adv-x="142" 
d="M134 275q-30 -54 -58 -127q-26 -67 -43 -119q26 24 49 35q8 4 8 0l-17 -12.5t-38 -36.5q-32 -36 -37 -35q-13 0 -12 13q0 3 2 8q15 49 50 147q17 41 52 112q-11 -5 -17 -7q-11 0 -11 3t14 7q23 7 48 21q10 5 12 3q3 -3 -2 -12zM170 314q-14 -1 -44 13t-46 29
q-19 18 -19 30t12 12q14 0 31 -20l32 -36q20 -20 34 -28z" />
    <glyph glyph-name="iacute" unicode="&#xed;" horiz-adv-x="142" 
d="M134 275q-30 -54 -58 -127q-26 -67 -43 -119q26 24 49 35q8 4 8 0l-17 -12.5t-38 -36.5q-32 -36 -37 -35q-13 0 -12 13q0 3 2 8q15 49 50 147q17 41 52 112q-11 -5 -17 -7q-11 0 -11 3t14 7q23 7 48 21q10 5 12 3q3 -3 -2 -12zM182 388q0 -12 -18.5 -28.5t-45.5 -29.5
q-30 -15 -45 -13q20 11 66 64q16 19 31 19q12 0 12 -12z" />
    <glyph glyph-name="icircumflex" unicode="&#xee;" horiz-adv-x="142" 
d="M134 275q-30 -54 -58 -127q-26 -67 -43 -119q26 24 49 35q8 4 8 0l-17 -12.5t-38 -36.5q-32 -36 -37 -35q-13 0 -12 13q0 3 2 8q15 49 50 147q17 41 52 112q-11 -5 -17 -7q-11 0 -11 3t14 7q23 7 48 21q10 5 12 3q3 -3 -2 -12zM179 316q-2 -1 -8 5q-19 19 -27 36
q-42 -24 -85 -39q-6 -2 -7 1q-2 3 4 5q35 24 90 72q7 6 9 6t4 -10q10 -43 20 -69q1 -3 2 -5z" />
    <glyph glyph-name="idieresis" unicode="&#xef;" horiz-adv-x="142" 
d="M134 275q-30 -54 -58 -127q-26 -67 -43 -119q26 24 49 35q8 4 8 0l-17 -12.5t-38 -36.5q-32 -36 -37 -35q-13 0 -12 13q0 3 2 8q15 49 50 147q17 41 52 112q-11 -5 -17 -7q-11 0 -11 3t14 7q23 7 48 21q10 5 12 3q3 -3 -2 -12zM183 345q0 -23 -23 -23t-23 23t23 23
t23 -23zM99 345q0 -23 -23 -23t-23 23t23 23t23 -23z" />
    <glyph glyph-name="eth" unicode="&#xf0;" horiz-adv-x="220" 
d="M311 427q-36 -11 -62 -21q9 -130 -78 -282q-29 -50 -70 -89q-45 -42 -73 -39q-38 4 -38 60q0 49 29 94q46 101 128 128q9 3 20 3q10 0 14.5 -3.5t2.5 -5.5q2 3 -17 3q-8 0 -17 -5q-64 -34 -104 -151q-23 -68 -23 -88t12 -23q19 -6 52 36q38 46 73 130q51 122 51 216
q-10 -4 -23 -10q-44 -21 -78 -41q4 26 77 59q9 4 24 10q-11 112 -137 103q-27 -2 -26 -3q-8 8 29 12q16 2 31 2q122 0 139 -102q39 12 64 7z" />
    <glyph glyph-name="ntilde" unicode="&#xf1;" horiz-adv-x="234" 
d="M226 252q-17 -40 -52 -126q-14 -34 -37 -108q-3 -13 1 -15q6 -3 24 14q8 7 9 6q2 -2 -5 -10q-31 -36 -52 -33q-18 2 -14 30q7 45 39 123q14 32 40 95q4 10 1 12q-4 2 -12 -6q-41 -41 -76 -84q-19 -23 -79 -122q-5 -6 -16 -21q-7 -11 -15 -8q-8 4 -2 20l91 240q4 10 -4 10
q-5 0 -23 -10q-5 -5 -7 -2q-1 2 4 7q30 27 55 30q13 1 17 -6q3 -6 0 -17q-22 -54 -62 -159q29 38 64 79q42 48 74 75q21 17 34 12q12 -5 3 -26zM240 363q-17 -38 -47 -37q-10 1 -28.5 8t-27.5 8q-13 1 -32 -13l-8 -4q-8 0 8.5 23t41.5 22q11 -1 29.5 -8t26.5 -8q21 -2 31 12
q2 7 6 5q3 -1 0 -8z" />
    <glyph glyph-name="ograve" unicode="&#xf2;" horiz-adv-x="208" 
d="M222 259q1 -2 -9 -7t-20 -5q-11 0 -22 6q12 -23 12 -56q0 -37 -16 -74q-25 -56 -69 -93.5t-71 -30.5q-37 10 -37 64q0 28 12 61q31 90 110 129q18 9 20 7l-12 -12q-61 -64 -90 -164q-9 -31 -9 -49q0 -26 17 -26q23 0 58 52q39 57 57 123q7 25 7 42q0 27 -18 44
q-13 12 -15 17q-4 10 7 15q10 5 17 -8.5t18 -24.5q8 -9 24 -12q9 -1 19 1t10 1zM209 314q-14 -1 -44 13t-46 29q-19 18 -19 30t12 12q14 0 31 -20l32 -36q20 -20 34 -28z" />
    <glyph glyph-name="oacute" unicode="&#xf3;" horiz-adv-x="208" 
d="M222 259q1 -2 -9 -7t-20 -5q-11 0 -22 6q12 -23 12 -56q0 -37 -16 -74q-25 -56 -69 -93.5t-71 -30.5q-37 10 -37 64q0 28 12 61q31 90 110 129q18 9 20 7l-12 -12q-61 -64 -90 -164q-9 -31 -9 -49q0 -26 17 -26q23 0 58 52q39 57 57 123q7 25 7 42q0 27 -18 44
q-13 12 -15 17q-4 10 7 15q10 5 17 -8.5t18 -24.5q8 -9 24 -12q9 -1 19 1t10 1zM223 388q0 -12 -18.5 -28.5t-45.5 -29.5q-30 -15 -45 -13q20 11 66 64q16 19 31 19q12 0 12 -12z" />
    <glyph glyph-name="ocircumflex" unicode="&#xf4;" horiz-adv-x="208" 
d="M222 259q1 -2 -9 -7t-20 -5q-11 0 -22 6q12 -23 12 -56q0 -37 -16 -74q-25 -56 -69 -93.5t-71 -30.5q-37 10 -37 64q0 28 12 61q31 90 110 129q18 9 20 7l-12 -12q-61 -64 -90 -164q-9 -31 -9 -49q0 -26 17 -26q23 0 58 52q39 57 57 123q7 25 7 42q0 27 -18 44
q-13 12 -15 17q-4 10 7 15q10 5 17 -8.5t18 -24.5q8 -9 24 -12q9 -1 19 1t10 1zM215 316q-2 -1 -8 5q-19 19 -27 36q-42 -24 -85 -39q-6 -2 -7 1q-2 3 4 5q35 24 90 72q7 6 9 6t4 -10q10 -43 20 -69q1 -3 2 -5z" />
    <glyph glyph-name="otilde" unicode="&#xf5;" horiz-adv-x="208" 
d="M222 259q1 -2 -9 -7t-20 -5q-11 0 -22 6q12 -23 12 -56q0 -37 -16 -74q-25 -56 -69 -93.5t-71 -30.5q-37 10 -37 64q0 28 12 61q31 90 110 129q18 9 20 7l-12 -12q-61 -64 -90 -164q-9 -31 -9 -49q0 -26 17 -26q23 0 58 52q39 57 57 123q7 25 7 42q0 27 -18 44
q-13 12 -15 17q-4 10 7 15q10 5 17 -8.5t18 -24.5q8 -9 24 -12q9 -1 19 1t10 1zM230 363q-17 -38 -47 -37q-10 1 -28.5 8t-27.5 8q-13 1 -32 -13l-8 -4q-8 0 8.5 23t41.5 22q11 -1 29.5 -8t26.5 -8q21 -2 31 12q2 7 6 5q3 -1 0 -8z" />
    <glyph glyph-name="odieresis" unicode="&#xf6;" horiz-adv-x="208" 
d="M222 259q1 -2 -9 -7t-20 -5q-11 0 -22 6q12 -23 12 -56q0 -37 -16 -74q-25 -56 -69 -93.5t-71 -30.5q-37 10 -37 64q0 28 12 61q31 90 110 129q18 9 20 7l-12 -12q-61 -64 -90 -164q-9 -31 -9 -49q0 -26 17 -26q23 0 58 52q39 57 57 123q7 25 7 42q0 27 -18 44
q-13 12 -15 17q-4 10 7 15q10 5 17 -8.5t18 -24.5q8 -9 24 -12q9 -1 19 1t10 1zM218 345q0 -23 -23 -23t-23 23t23 23t23 -23zM134 345q0 -23 -23 -23t-23 23t23 23t23 -23z" />
    <glyph glyph-name="divide" unicode="&#xf7;" horiz-adv-x="240" 
d="M255 263q0 -5 -4.5 -10t-7.5 -4q0 2 -2 12.5t-19 10.5q-27 0 -56 -14q-85 -41 -133 -156q-16 -39 -17 -62q-1 -17 8 -17q19 -1 57 41q20 22 77 105q11 17 29 42q12 11 34 21q11 3 11 1q0 -1 -8 -9q-17 -33 -42 -97q-27 -70 -83 -205t-150 -222q-103 -93 -212 -93
q-27 0 -42 12q-12 9 -12 21q0 4 1 6l14 -8q19 -10 47 -11q114 -2 196 86q63 68 123 214q31 75 86 214q-28 -46 -65 -88q-41 -46 -66 -45q-32 2 -33 46q-1 32 17 72q44 98 144 138q46 18 76 18t32 -19z" />
    <glyph glyph-name="oslash" unicode="&#xf8;" horiz-adv-x="208" 
d="M198 308l-30 -52q13 -28 13 -60q0 -35 -15 -71q-21 -51 -63 -90q-45 -42 -79 -36l-9 3l-33 -55l-2 10l29 49q-21 18 -21 56q0 28 12 62q29 84 106 128q32 18 34 12q0 -1 -7 -5q-10 -6 -18 -14q-61 -65 -88 -161q-12 -43 -8 -61q19 34 63 110q53 89 74 117q-2 11 -6.5 20
t-3.5 9q4 1 12 -7q2 -2 6 -8l32 53zM158 240q-19 -34 -65 -113q-24 -41 -70 -113q5 -5 12 -5q23 0 59 52.5t57 122.5q9 30 7 56z" />
    <glyph glyph-name="ugrave" unicode="&#xf9;" horiz-adv-x="244" 
d="M246 294q1 -1 -3 -10q-32 -50 -66 -141q-12 -33 -40 -100q27 27 56 43q12 6 13 3q1 -2 -6.5 -7t-37 -29t-64.5 -60q-2 -4 -3 -7q-3 -6 -7 -5q-10 2 2 20q14 40 41 115q-31 -48 -49 -69q-41 -46 -63 -46q-28 0 -28 26q0 34 35 118q15 35 55 107q-8 -2 -14 -2q-8 1 -16 4
q2 1 20 5q36 9 48 17q4 2 6 1q1 -1 0 -5q-38 -72 -61 -127q-26 -62 -34 -95q-7 -27 4 -31q11 -3 40 30t67 98q4 5 6 14q22 52 37.5 82.5t36 43t25.5 7.5zM222 314q-14 -1 -44 13t-46 29q-19 18 -19 30t12 12q14 0 31 -20l32 -36q20 -20 34 -28z" />
    <glyph glyph-name="uacute" unicode="&#xfa;" horiz-adv-x="244" 
d="M246 294q1 -1 -3 -10q-32 -50 -66 -141q-12 -33 -40 -100q27 27 56 43q12 6 13 3q1 -2 -6.5 -7t-37 -29t-64.5 -60q-2 -4 -3 -7q-3 -6 -7 -5q-10 2 2 20q14 40 41 115q-31 -48 -49 -69q-41 -46 -63 -46q-28 0 -28 26q0 34 35 118q15 35 55 107q-8 -2 -14 -2q-8 1 -16 4
q2 1 20 5q36 9 48 17q4 2 6 1q1 -1 0 -5q-38 -72 -61 -127q-26 -62 -34 -95q-7 -27 4 -31q11 -3 40 30t67 98q4 5 6 14q22 52 37.5 82.5t36 43t25.5 7.5zM249 388q0 -12 -18.5 -28.5t-45.5 -29.5q-30 -15 -45 -13q20 11 66 64q16 19 31 19q12 0 12 -12z" />
    <glyph glyph-name="ucircumflex" unicode="&#xfb;" horiz-adv-x="244" 
d="M246 294q1 -1 -3 -10q-32 -50 -66 -141q-12 -33 -40 -100q27 27 56 43q12 6 13 3q1 -2 -6.5 -7t-37 -29t-64.5 -60q-2 -4 -3 -7q-3 -6 -7 -5q-10 2 2 20q14 40 41 115q-31 -48 -49 -69q-41 -46 -63 -46q-28 0 -28 26q0 34 35 118q15 35 55 107q-8 -2 -14 -2q-8 1 -16 4
q2 1 20 5q36 9 48 17q4 2 6 1q1 -1 0 -5q-38 -72 -61 -127q-26 -62 -34 -95q-7 -27 4 -31q11 -3 40 30t67 98q4 5 6 14q22 52 37.5 82.5t36 43t25.5 7.5zM227 314q-2 -1 -8 5q-19 19 -27 36q-42 -24 -85 -39q-6 -2 -7 1q-2 3 4 5q35 24 90 72q7 6 9 6t4 -10q10 -43 20 -69
q1 -3 2 -5z" />
    <glyph glyph-name="udieresis" unicode="&#xfc;" horiz-adv-x="244" 
d="M246 294q1 -1 -3 -10q-32 -50 -66 -141q-12 -33 -40 -100q27 27 56 43q12 6 13 3q1 -2 -6.5 -7t-37 -29t-64.5 -60q-2 -4 -3 -7q-3 -6 -7 -5q-10 2 2 20q14 40 41 115q-31 -48 -49 -69q-41 -46 -63 -46q-28 0 -28 26q0 34 35 118q15 35 55 107q-8 -2 -14 -2q-8 1 -16 4
q2 1 20 5q36 9 48 17q4 2 6 1q1 -1 0 -5q-38 -72 -61 -127q-26 -62 -34 -95q-7 -27 4 -31q11 -3 40 30t67 98q4 5 6 14q22 52 37.5 82.5t36 43t25.5 7.5zM239 345q0 -23 -23 -23t-23 23t23 23t23 -23zM155 345q0 -23 -23 -23t-23 23t23 23t23 -23z" />
    <glyph glyph-name="yacute" unicode="&#xfd;" horiz-adv-x="251" 
d="M240 256q0 -14 -5 -31q-17 -57 -46 -123q-57 -130 -124 -213q-70 -86 -160 -141q-93 -57 -166 -57q-29 0 -48 19q-12 14 -5 19q-1 -1 9 -8q17 -12 49 -12q79 0 144.5 42.5t146.5 146.5q67 87 130 236q-21 -32 -70 -77.5t-64 -67.5q-6 -9 -13 -7q-16 4 -10 23q18 43 25 65
q26 88 29 147q2 39 -21 39q-2 0 -14.5 -5.5t-13.5 -4.5q-3 4 14 14q27 15 45 15q33 0 29 -55q-6 -71 -37 -154q-12 -31 -29 -62q33 34 92 97q60 71 93 170q2 7 3 16q0 6 2 6q4 0 9 -9q6 -12 6 -28zM235 388q0 -12 -18.5 -28.5t-45.5 -29.5q-30 -15 -45 -13q20 11 66 64
q16 19 31 19q12 0 12 -12z" />
    <glyph glyph-name="thorn" unicode="&#xfe;" horiz-adv-x="252" 
d="M265 512q0 -1 -5 -4q-9 -5 -18 -14q-65 -66 -126 -219l-88 -232q45 85 90 152q61 90 98 87q20 -1 16 -34q-9 -73 -63 -175q7 1 22.5 4t16.5 2q1 -4 -16 -10q-6 -2 -28 -7q-16 -26 -52 -62q-9 -11 -17 -11q-15 0 -13 26q3 13 8 45l5 4q27 0 42 5q14 32 35 100q19 63 21 94
q-32 -13 -119 -157q-37 -62 -70 -138q-23 -58 -69 -162q-29 -61 -65 -114q-16 -23 -25 -20q-3 2 2 28q13 62 32 111q34 86 92 171q13 34 46 124q44 129 66 180q62 143 144 211q11 10 24 14.5t14 0.5zM131 58q-4 -1 -16 -3t-17 -4q0 -22 4 -42q12 12 29 49zM-37 -48
q-43 -67 -75 -145q-14 -34 -29 -106q2 3 47 103q3 6 57 148z" />
    <glyph glyph-name="ydieresis" unicode="&#xff;" horiz-adv-x="251" 
d="M240 256q0 -14 -5 -31q-17 -57 -46 -123q-57 -130 -124 -213q-70 -86 -160 -141q-93 -57 -166 -57q-29 0 -48 19q-12 14 -5 19q-1 -1 9 -8q17 -12 49 -12q79 0 144.5 42.5t146.5 146.5q67 87 130 236q-21 -32 -70 -77.5t-64 -67.5q-6 -9 -13 -7q-16 4 -10 23q18 43 25 65
q26 88 29 147q2 39 -21 39q-2 0 -14.5 -5.5t-13.5 -4.5q-3 4 14 14q27 15 45 15q33 0 29 -55q-6 -71 -37 -154q-12 -31 -29 -62q33 34 92 97q60 71 93 170q2 7 3 16q0 6 2 6q4 0 9 -9q6 -12 6 -28zM221 345q0 -23 -23 -23t-23 23t23 23t23 -23zM137 345q0 -23 -23 -23
t-23 23t23 23t23 -23z" />
    <glyph glyph-name="dotlessi" unicode="&#x131;" horiz-adv-x="142" 
d="M134 275q-30 -54 -58 -127q-26 -67 -43 -119q26 24 49 35q8 4 8 0l-17 -12.5t-38 -36.5q-32 -36 -37 -35q-13 0 -12 13q0 3 2 8q15 49 50 147q17 41 52 112q-11 -5 -17 -7q-11 0 -11 3t14 7q23 7 48 21q10 5 12 3q3 -3 -2 -12z" />
    <glyph glyph-name="Lslash" unicode="&#x141;" horiz-adv-x="365" 
d="M774 580q-3 -43 -37 -75q-5 -5 -8 -1q1 -1 6 8q21 29 21 62q0 73 -85 73q-83 0 -166 -75q-60 -55 -161 -194q31 3 64 3q81 0 120 -18q-77 6 -202 -11q-88 -121 -139 -204q46 -64 109 -133q157 -172 264 -172q64 0 100 52q7 10 8 9q3 -2 -1 -11q-38 -77 -118 -77
q-62 0 -121 36q-62 36 -142 123q-62 67 -114 149q-76 -116 -105 -182l-9 -19q-7 3 1 35q18 75 92 197q-22 39 -45 65q-14 -7 -35 -38q-61 -91 -62 -204q0 -30 7 -54q4 -13 12 -23q-14 6 -24 28q-18 38 -19 83q-3 103 65 187q25 31 43 33q12 1 31 -6q11 -3 40 -47
q39 74 103 167q-45 -9 -116 -24q39 30 134 50q5 7 26 34q81 104 178 179q110 84 184 84q51 0 79 -28q24 -25 22 -61z" />
    <glyph glyph-name="lslash" unicode="&#x142;" horiz-adv-x="144" 
d="M274 513q1 -1 -5 -5q-9 -6 -17 -14q-29 -29 -65.5 -91t-64.5 -126q-3 -5 -5 -10q49 19 84 14q-51 -14 -92 -33q-53 -124 -75 -202q-10 -36 -2 -39q14 -4 41 41q10 16 11 16q6 -2 -6 -23q-33 -55 -61 -54q-25 1 -22 39q2 25 11 54q23 74 55 149q-68 -37 -71 -32
q-3 12 81 55q6 12 15 33q36 75 73 127q42 59 79 87q31 23 36 14z" />
    <glyph glyph-name="OE" unicode="&#x152;" horiz-adv-x="774" 
d="M978 -65q2 -1 -1 -13q-7 -26 -37 -47q-38 -27 -92 -27q-140 0 -313 114q-32 23 -85 60q-103 -90 -227 -90q-96 0 -145 58q-44 54 -44 149q0 114 49 205q71 131 207 206q109 60 266 64q41 1 63 -1q-4 15 -24 43q-4 5 -2 7q4 4 18 -6q26 -20 39 -44q76 -5 135 -20
q99 -26 165 -76q18 -14 12 -18q1 1 -13 9q-72 44 -187 70q-63 14 -107 17q11 -34 12 -75q4 -109 -35 -222q52 -13 80 -18q39 -7 114 -15q9 0 8 -3q-1 -4 -17 -5q-66 -2 -136 9q-31 5 -56 11q-26 -66 -65 -128q-35 -56 -86 -104q21 -14 68 -47q189 -134 310 -134q82 0 119 63
q4 9 7 8zM633 520q1 42 -9 77q-21 3 -69 3q-137 0 -227 -55q-118 -72 -195 -213q-70 -128 -65 -238q6 -152 147 -152q104 0 207 100q-72 51 -77 55q-9 6 -29.5 15.5t-31.5 2.5q-4 -2 -4 -10q0 -17 12 -39q13 -25 33 -39q-59 18 -59 64q0 21 14 31q19 13 48 6q48 -12 117 -63
q35 40 70 96q44 70 67 127q-16 5 -39 13q-7 2 -10.5 9t-1.5 11q3 5 7 4q15 -5 29 -10q4 -1 23 -7q39 98 43 212z" />
    <glyph glyph-name="oe" unicode="&#x153;" horiz-adv-x="297" 
d="M319 259q0 -19 -16 -34q-27 -25 -63 -21q-18 2 -28 7q-10 -11 -25 -43q-26 -53 -38 -99q-13 -51 7 -58q13 -4 34 13t37 45q14 24 23 59q3 11 6 11t2 -10q-1 -28 -21 -63q-43 -75 -89 -69q-34 5 -31 58q-54 -66 -93 -56q-36 9 -36 62q0 28 12 63q30 91 110 130q28 14 30 9
q0 -1 -6 -5q-10 -5 -19 -14q-62 -66 -88 -160q-10 -34 -10 -51q0 -20 13 -24q21 -6 53.5 37t57.5 111q20 54 16 87q-1 12 -8 27q-4 8 -3 8q4 2 14 -8q7 -7 12 -18q10 -22 10 -44q56 68 115 67q22 0 22 -17zM294 256q0 10 -12 10q-31 0 -65 -48q10 -6 24 -6q20 -1 36.5 14
t16.5 30z" />
    <glyph glyph-name="Scaron" unicode="&#x160;" horiz-adv-x="808" 
d="M846 365q-2 -84 -67 -170q-59 -78 -160 -144q-193 -126 -426 -126q-89 0 -146 34q-69 42 -65 124q4 84 71.5 162t173.5 124q125 55 268 51q64 -2 105 -23q48 -24 44 -66q-4 -39 -43.5 -79t-95.5 -67q-91 -44 -184 -44q-40 0 -39 21q1 23 32 28q14 2 14 -3q0 -3 -13 -6
q-24 -6 -24 -18q0 -9 29 -9q63 0 170 52q136 66 141 128q5 64 -135 64q-122 0 -254 -58q-99 -43 -168 -110q-77 -75 -80 -148q-4 -75 61 -111q52 -29 138 -29q188 0 407 138q231 146 235 285q2 61 -58 79q-40 12 -143 9q-82 -2 -132 19q-55 23 -51 70q5 59 92 97
q78 33 164 31q38 -1 72.5 -11.5t32.5 -23.5q-1 -13 -24 -13q-11 0 -12 4q-1 3 8.5 7t9.5 7q0 7 -85 8t-161 -27q-84 -30 -88 -76q-3 -35 61 -45q27 -4 113 -4q215 0 212 -131zM777 800q1 -3 -4 -5q-34 -23 -91 -72q-7 -6 -9 -6t-4 10q-10 43 -20 69q-1 3 -1 5q0 1 1 2
q2 1 8 -5q19 -19 27 -36q41 23 85 39q7 2 8 -1z" />
    <glyph glyph-name="scaron" unicode="&#x161;" horiz-adv-x="173" 
d="M192 268q3 -27 -34 -44q10 18 10 36q0 17 -10 19q-27 5 -36 -31q-5 -18 -5 -50q-2 -58 -2 -62q-4 -74 -51 -118q-39 -38 -80 -35q-43 3 -36 44q6 39 52 64q32 18 36 12q0 -1 -8 -5q-11 -7 -21 -15q-26 -22 -31 -53q-2 -7 -2 -13q0 -21 20 -24q32 -4 55 38t25 107
q2 72 17 105q21 47 69 45q30 -1 32 -20zM250 400q1 -3 -4 -5q-34 -23 -91 -72q-7 -6 -9 -6t-4 10q-10 43 -20 69q-1 3 -1 5q0 1 1 2q2 1 8 -5q19 -19 27 -36q41 23 85 39q7 2 8 -1z" />
    <glyph glyph-name="Ydieresis" unicode="&#x178;" horiz-adv-x="695" 
d="M802 528q-15 -37 -44 -74q-43 -141 -89 -242q-120 -262 -285 -414q-178 -164 -353 -164q-38 0 -60 19q-17 13 -17 28q0 4 2 5q-2 -1 16 -11q23 -12 66 -14q90 -3 167 33q70 33 147 108q148 144 286 440q24 50 75 162q-99 -169 -249 -300q-131 -114 -217 -142
q-33 -11 -49 -3q-13 6 -13 24q0 14 8 30q6 13 73.5 118.5t102.5 176.5q79 162 73 257q-6 96 -103 100q-85 3 -174 -53q-70 -44 -118 -105q-56 -70 -53 -130q2 -44 46 -46q29 -1 66 16q13 6 13 5q2 -4 -11 -11q-36 -19 -68 -19q-57 0 -60 54q-3 64 41 133q40 62 96 100
q104 70 221 66q70 -2 110.5 -43.5t41.5 -104.5q1 -94 -73 -233q-33 -63 -175 -276q-21 -31 -15 -40q7 -11 36 2q80 35 197 137q151 132 266 331q14 39 37 86q16 32 33 27t6 -33zM713 665q0 -23 -23 -23t-23 23t23 23t23 -23zM629 665q0 -23 -23 -23t-23 23t23 23t23 -23z
" />
    <glyph glyph-name="Zcaron" unicode="&#x17d;" horiz-adv-x="440" 
d="M690 654q11 -13 -17 -38q-15 -14 -55 -50q25 -16 40 -31q11 -11 7 -13l-9 7q-21 15 -47 27q-77 -73 -196 -192q-143 -143 -210 -217q48 -76 95 -131q86 -102 156 -102q61 0 100 56q6 11 9 10q4 -3 -1 -12q-41 -70 -112 -71q-94 -2 -173 92q-29 34 -92 140
q-87 -85 -141 -171l-14 -22q-5 2 3 24q29 78 136 198q-15 28 -33 56q-18 -7 -41 -40q-86 -120 -92 -208q-1 -19 2 -35q2 -12 3 -11q-5 -5 -12 15q-8 16 -8 42q0 96 76 202q33 46 52 48q15 2 29.5 -2.5t39.5 -49.5q80 97 196 216q94 96 197 181q-49 23 -99 39q-54 18 -75 24
q-46 13 -94 19q-16 2 -33 2q-133 0 -135 -105q-1 -27 22 -62q19 -28 41 -47q7 -6 5 -8t-9 3q-80 53 -87 104q-1 9 -1 17q0 61 66 89q47 19 115 19q18 0 32 -1q82 -9 163 -36q49 -16 102 -46q9 8 34 27l-1 12q16 4 38 22q19 16 28 10zM567 788q1 -3 -4 -5q-34 -23 -91 -72
q-7 -6 -9 -6t-4 10q-10 43 -20 69q-1 3 -1 5q0 1 1 2q2 1 8 -5q19 -19 27 -36q41 23 85 39q7 2 8 -1z" />
    <glyph glyph-name="zcaron" unicode="&#x17e;" horiz-adv-x="217" 
d="M238 277q1 -6 -12 -14q-25 -29 -90 -102q-9 -10 -78 -79q10 -15 32 -42.5t43 -29.5q33 -3 49 46q4 7 3 7q4 0 2 -11q-11 -63 -58 -62q-31 1 -54 25q-17 18 -34 50q-36 -33 -55 -60q-7 -7 -8 -7q-2 1 3 11q22 45 48 76q-3 8 -9 21q-3 -2 -11 -14q-24 -36 -33 -65
q-10 -32 -6 -32q-8 0 -2 36q5 31 27 71q13 17 14 17q16 0 31 -19q31 46 63.5 80t85.5 74q-58 -23 -92 -21q-51 2 -46 32q5 14 20 20q8 5 10 2q1 -3 -5 -5q-10 -4 -10 -12q0 -12 36 -14q60 -4 100 8q5 5 15 13q18 10 21 0zM249 400q1 -3 -4 -5q-34 -23 -91 -72q-7 -6 -9 -6
t-4 10q-10 43 -20 69q-1 3 -1 5q0 1 1 2q2 1 8 -5q19 -19 27 -36q41 23 85 39q7 2 8 -1z" />
    <glyph glyph-name="florin" unicode="&#x192;" horiz-adv-x="191" 
d="M274 340q-3 -12 -11 -12q2 0 -6 14.5t-33 14.5q-56 0 -96 -97q-18 -44 -29 -72q50 -3 73 -17q-23 2 -79 2q-11 -27 -32 -80q-38 -99 -104 -159q-62 -55 -121 -55q-26 0 -39.5 12t-13.5 24q0 3 1 5q6 9 22 -5q20 -18 38 -18q65 0 105 50q30 38 71 144q22 56 31 82
q-51 0 -51 4q2 12 58 12q19 46 33 74q23 48 62 78q44 33 94 29q15 -1 22.5 -10.5t4.5 -19.5z" />
    <glyph glyph-name="circumflex" unicode="&#x2c6;" 
d="M280 316q-2 -1 -8 5q-19 19 -27 36q-42 -24 -85 -39q-6 -2 -7 1q-2 3 4 5q35 24 90 72q7 6 9 6t4 -10q10 -43 20 -69q1 -3 2 -5z" />
    <glyph glyph-name="caron" unicode="&#x2c7;" 
d="M318 400q1 -3 -4 -5q-34 -23 -91 -72q-7 -6 -9 -6t-4 10q-10 43 -20 69q-1 3 -1 5q0 1 1 2q2 1 8 -5q19 -19 27 -36q41 23 85 39q7 2 8 -1z" />
    <glyph glyph-name="macron" unicode="&#xaf;" 
d="M284 348q3 -8 -8 -14.5t-31 -7.5q-69 -2 -102 27q25 -2 92 1q14 1 29 2q16 0 20 -8z" />
    <glyph glyph-name="macron" unicode="&#x2c9;" 
d="M284 348q3 -8 -8 -14.5t-31 -7.5q-69 -2 -102 27q25 -2 92 1q14 1 29 2q16 0 20 -8z" />
    <glyph glyph-name="breve" unicode="&#x2d8;" 
d="M304 383q1 -3 -2 -8q-35 -57 -88 -53q-22 2 -32.5 18t-9.5 35q1 10 4 10t5 -7q8 -26 41 -29q38 -3 74 30q6 6 8 4z" />
    <glyph glyph-name="dotaccent" unicode="&#x2d9;" 
d="M251 348q-2 -25 -26 -27q-11 -1 -17.5 5t-6.5 17q1 26 26 28q11 1 18 -5.5t6 -17.5z" />
    <glyph glyph-name="ring" unicode="&#x2da;" 
d="M272 357q0 -19 -13.5 -33t-33.5 -14q-19 0 -32.5 13.5t-13.5 33.5q0 19 13.5 32.5t32.5 13.5t33 -13.5t14 -32.5zM253 357q0 27 -28 27q-27 0 -27 -27q0 -28 27 -28q28 0 28 28z" />
    <glyph glyph-name="ogonek" unicode="&#x2db;" 
d="M130 -65q2 -2 0 -7q-23 -31 -58 -32q-24 0 -35 10.5t-11 26.5q1 44 74 71h12q-51 -29 -50 -64q1 -24 25 -24q20 0 37 15q5 5 6 4z" />
    <glyph glyph-name="tilde" unicode="&#x2dc;" 
d="M291 363q-17 -38 -47 -37q-10 1 -28.5 8t-27.5 8q-13 1 -32 -13l-8 -4q-8 0 8.5 23t41.5 22q11 -1 29.5 -8t26.5 -8q21 -2 31 12q2 7 6 5q3 -1 0 -8z" />
    <glyph glyph-name="hungarumlaut" unicode="&#x2dd;" 
d="M317 387q6 -4 6 -11q0 -18 -37 -41q-29 -19 -52 -26q11 9 53 63q18 23 30 15zM250 387q15 -12 -5 -32q-29 -29 -79 -46q8 7 53 64q18 23 31 14z" />
    <glyph glyph-name="Delta" unicode="&#x394;" horiz-adv-x="139" 
d="M865 749q-8 -149 -212 -299q-68 -50 -169 -83q-106 -35 -202 -35q-74 0 -125 20q-27 -48 -42 -81q-61 -138 -85 -223q-10 -36 -2 -39q6 -2 19.5 12t21.5 29q12 22 11 22q3 0 2 -9q-2 -9 -8 -20q-33 -55 -60 -54q-25 1 -23 39q1 22 12 55q32 100 77 192q22 45 47 90
q-30 16 -38 37q-5 13 1 13q-1 0 8.5 -15t33.5 -27q97 170 223 294q82 81 179 134q110 61 198 61q63 0 99.5 -31.5t33.5 -81.5zM834 754q3 45 -22 71q-28 28 -82 28q-79 0 -181 -62q-88 -54 -165 -133q-133 -137 -222 -298q42 -17 120 -17q85 0 191 38q102 36 167 86
q183 140 194 287z" />
    <glyph glyph-name="Delta" unicode="&#x2206;" horiz-adv-x="139" 
d="M865 749q-8 -149 -212 -299q-68 -50 -169 -83q-106 -35 -202 -35q-74 0 -125 20q-27 -48 -42 -81q-61 -138 -85 -223q-10 -36 -2 -39q6 -2 19.5 12t21.5 29q12 22 11 22q3 0 2 -9q-2 -9 -8 -20q-33 -55 -60 -54q-25 1 -23 39q1 22 12 55q32 100 77 192q22 45 47 90
q-30 16 -38 37q-5 13 1 13q-1 0 8.5 -15t33.5 -27q97 170 223 294q82 81 179 134q110 61 198 61q63 0 99.5 -31.5t33.5 -81.5zM834 754q3 45 -22 71q-28 28 -82 28q-79 0 -181 -62q-88 -54 -165 -133q-133 -137 -222 -298q42 -17 120 -17q85 0 191 38q102 36 167 86
q183 140 194 287z" />
    <glyph glyph-name="Omega" unicode="&#x3a9;" horiz-adv-x="355" 
d="M565 493q-2 -23 -38 -45q-13 -8 -14 -4l9 9q15 15 15 30q0 25 -25 25q-67 0 -133 -126q-28 -53 -56 -123q21 0 47 -4q35 -5 34 -10q-1 -3 -16 -1q-29 2 -70 2q-28 -71 -93 -232q-60 -143 -144 -227q-93 -95 -197 -95q-31 0 -51 18q-17 15 -11 22q0 -1 14 -8
q20 -11 51 -11q114 0 187 87q48 58 112 213q33 80 91 232q-68 0 -112 -5q-99 -11 -145 -61q-25 -27 -25 -66q0 -48 42 -56q-7 -5 -18 -5q-17 0 -29 14t-13 34q-1 41 35 83q55 62 158 73q38 4 113 4q37 97 96 169q76 93 157 93q31 0 29 -29z" />
    <glyph glyph-name="Omega" unicode="&#x2126;" horiz-adv-x="355" 
d="M565 493q-2 -23 -38 -45q-13 -8 -14 -4l9 9q15 15 15 30q0 25 -25 25q-67 0 -133 -126q-28 -53 -56 -123q21 0 47 -4q35 -5 34 -10q-1 -3 -16 -1q-29 2 -70 2q-28 -71 -93 -232q-60 -143 -144 -227q-93 -95 -197 -95q-31 0 -51 18q-17 15 -11 22q0 -1 14 -8
q20 -11 51 -11q114 0 187 87q48 58 112 213q33 80 91 232q-68 0 -112 -5q-99 -11 -145 -61q-25 -27 -25 -66q0 -48 42 -56q-7 -5 -18 -5q-17 0 -29 14t-13 34q-1 41 35 83q55 62 158 73q38 4 113 4q37 97 96 169q76 93 157 93q31 0 29 -29z" />
    <glyph glyph-name="mu" unicode="&#xb5;" horiz-adv-x="263" 
d="M545 533q-1 -16 -14 -19l-5 17q-11 33 -51 30q-75 -6 -156 -143q-41 -68 -83 -161q-64 -140 -84 -216q-9 -34 0 -36q6 -1 19.5 13t20.5 27q12 22 11 22q3 0 1 -8q-1 -10 -7 -21q-31 -55 -59 -53q-26 2 -24 39q1 23 11 54q25 82 74 183q59 123 115 198q4 7 2 16
q-5 19 -33 19q-54 0 -121 -127q-37 -71 -58 -120q-58 -139 -75 -201q-10 -37 -2 -39q14 -4 41 41q10 16 11 16q6 -2 -6 -23q-33 -55 -61 -54q-25 1 -22 39q2 22 12 54q28 89 69 178q31 67 58 110q87 139 170 138q24 0 30 -16q3 -9 1 -13q75 86 146 92q33 3 51.5 -7t17.5 -29
z" />
    <glyph glyph-name="mu" unicode="&#x3bc;" horiz-adv-x="263" 
d="M545 533q-1 -16 -14 -19l-5 17q-11 33 -51 30q-75 -6 -156 -143q-41 -68 -83 -161q-64 -140 -84 -216q-9 -34 0 -36q6 -1 19.5 13t20.5 27q12 22 11 22q3 0 1 -8q-1 -10 -7 -21q-31 -55 -59 -53q-26 2 -24 39q1 23 11 54q25 82 74 183q59 123 115 198q4 7 2 16
q-5 19 -33 19q-54 0 -121 -127q-37 -71 -58 -120q-58 -139 -75 -201q-10 -37 -2 -39q14 -4 41 41q10 16 11 16q6 -2 -6 -23q-33 -55 -61 -54q-25 1 -22 39q2 22 12 54q28 89 69 178q31 67 58 110q87 139 170 138q24 0 30 -16q3 -9 1 -13q75 86 146 92q33 3 51.5 -7t17.5 -29
z" />
    <glyph glyph-name="pi" unicode="&#x3c0;" horiz-adv-x="435" 
d="M460 252q-5 -31 -41 -53q-9 -6 -12 -3q-6 3 2 15q11 16 11 19q3 16 -7 18q-9 2 -18 -7q-19 -16 -31 -29q-27 -29 -51 -68q-26 -57 -71 -135q-3 -2 -10.5 -10t-20.5 -13q-12 -4 -16 1q1 -2 9 11q21 34 58 124q26 62 26 100q0 68 -101 71t-155 -48q-27 -26 -27 -63t33 -53
q7 -4 21 -6q-7 -8 -20 -8q-23 1 -37 17t-14 39q0 42 36 76q65 61 165 60q146 -1 134 -100q-3 -26 -16 -58q35 52 56 75q26 28 47 41q18 11 31 11q23 0 19 -24z" />
    <glyph glyph-name="endash" unicode="&#x2013;" horiz-adv-x="300" 
d="M280 148q-65 8 -183 6q-12 0 -38 -2q-22 -2 -30 -1q-11 0 -11 4q2 25 94 28q41 1 89 -7q54 -10 79 -28z" />
    <glyph glyph-name="emdash" unicode="&#x2014;" horiz-adv-x="600" 
d="M580 148q-96 9 -271 9q-109 0 -196.5 -3t-81.5 -3q-14 0 -13 3q2 16 38 22q53 10 204 10q95 0 186 -10q99 -11 134 -28z" />
    <glyph glyph-name="quoteleft" unicode="&#x2018;" horiz-adv-x="112" 
d="M169 393q-27 -33 -45 -75q-11 -27 -25 -23q-24 7 -12 29q17 38 82 69z" />
    <glyph glyph-name="quoteright" unicode="&#x2019;" horiz-adv-x="112" 
d="M148 361q-17 -38 -82 -69q29 37 45 75q11 27 25 23q22 -6 12 -29z" />
    <glyph glyph-name="quotesinglbase" unicode="&#x201a;" horiz-adv-x="106" 
d="M29 18q-19 -40 -83 -69q27 33 46 75q12 26 24 23q24 -7 13 -29z" />
    <glyph glyph-name="quotedblleft" unicode="&#x201c;" horiz-adv-x="191" 
d="M248 393q-27 -33 -45 -75q-11 -27 -25 -23q-24 7 -12 29q17 38 82 69zM169 393q-27 -33 -45 -75q-11 -27 -25 -23q-24 7 -12 29q17 38 82 69z" />
    <glyph glyph-name="quotedblright" unicode="&#x201d;" horiz-adv-x="191" 
d="M227 361q-17 -38 -82 -69q29 37 45 75q11 27 25 23q22 -6 12 -29zM148 361q-17 -38 -82 -69q29 37 45 75q11 27 25 23q22 -6 12 -29z" />
    <glyph glyph-name="quotedblbase" unicode="&#x201e;" horiz-adv-x="186" 
d="M108 18q-19 -39 -82 -69q29 38 45 75q11 27 24 23q24 -7 13 -29zM29 18q-19 -40 -83 -69q27 33 46 75q12 26 24 23q24 -7 13 -29z" />
    <glyph glyph-name="dagger" unicode="&#x2020;" horiz-adv-x="186" 
d="M227 254q-37 3 -92 3q-12 -25 -26 -56q-70 -161 -101 -260q-7 -24 -11 -24q-5 0 0 39q5 41 27 117.5t43 126.5q13 32 27 58h-10q-59 0 -59 4q0 15 70 13h7q35 66 70 114q13 17 31.5 31.5t22.5 12.5q3 -2 -8 -20q-33 -53 -76 -140q57 -5 85 -19z" />
    <glyph glyph-name="daggerdbl" unicode="&#x2021;" horiz-adv-x="211" 
d="M249 260q-37 3 -91 3q-12 -22 -60 -134q63 -5 89 -20q-39 3 -96 3q-47 -118 -63 -171q-7 -24 -11 -24q-6 0 -1 39q7 50 40 157h-12q-59 0 -59 4q0 6 21.5 10.5t48.5 3.5h6q14 41 26 69q14 34 30 64h-11q-59 0 -59 4q0 15 70 13h8q35 65 67 108q13 17 31.5 31.5t22.5 12.5
q3 -2 -8 -20q-36 -56 -73 -134q52 -3 84 -19z" />
    <glyph glyph-name="bullet" unicode="&#x2022;" horiz-adv-x="170" 
d="M134 166q0 -22 -14.5 -37t-36.5 -15t-37 15t-15 37t15 37t37 15t36.5 -15t14.5 -37z" />
    <glyph glyph-name="ellipsis" unicode="&#x2026;" horiz-adv-x="308" 
d="M241 23q-2 -26 -28 -28q-11 -1 -17.5 5t-6.5 18q1 27 27 29q12 1 19 -6t6 -18zM137 23q-2 -26 -28 -28q-12 -1 -19 5t-6 18q2 27 28 29q11 1 18.5 -6t6.5 -18zM33 23q-3 -26 -28 -28q-12 -1 -18.5 5t-6.5 18q0 10 8.5 19t19.5 10t18.5 -6.5t6.5 -17.5z" />
    <glyph glyph-name="perthousand" unicode="&#x2030;" horiz-adv-x="263" 
d="M865 749q-8 -149 -211 -299q-68 -50 -169 -83q-106 -35 -202 -35q-71 0 -112 16q-40 -78 -56 -118q63 60 123 60q40 0 40 -25q0 -22 -32 -38.5t-72 -17.5q-24 0 -36 3q9 -73 46 -171q66 -176 153 -179q71 -2 82 79l5 -1q9 -11 8 -24q-2 -29 -32.5 -45.5t-70.5 -15.5
q-52 1 -101 52q-45 46 -77 123q-39 93 -45 177q-46 -125 -88 -193q-5 -8 -14 -20q-6 -8 -14 -7q-10 3 -10 21q0 41 18 84q23 56 69 108q37 96 72 160q-29 15 -38 37q-5 13 1 13q-1 0 8 -14q10 -17 33 -28q96 172 225 302q80 81 173 133q105 59 192 59q62 0 98.5 -31.5
t33.5 -81.5zM835 754q3 45 -22 71q-28 28 -82 28q-147 0 -332 -192q-136 -141 -224 -305q42 -13 108 -13q85 0 191 38q102 36 167 86q183 140 194 287zM238 257q0 16 -23 16q-43 0 -98 -50q26 -7 57 -5q26 2 45 13.5t19 25.5zM61 184q-31 -39 -50.5 -86.5t-19.5 -95.5
q13 21 38 93q16 44 32 89z" />
    <glyph glyph-name="guilsinglleft" unicode="&#x2039;" horiz-adv-x="163" 
d="M151 233q2 -3 -8 -14q-46 -50 -91 -82q14 -39 20 -81q2 -18 -2 -18q-1 0 -8 12q-16 39 -56 92q55 28 134 87q9 7 11 4z" />
    <glyph glyph-name="guilsinglright" unicode="&#x203a;" horiz-adv-x="163" 
d="M122 134q-55 -28 -134 -87q-9 -7 -11 -4t8 14q46 50 91 82q-14 39 -20 81q-2 18 2 18q1 0 8 -12q16 -39 56 -92z" />
    <glyph glyph-name="fraction" unicode="&#x2044;" horiz-adv-x="225" 
d="M677 584q-3 -24 -19.5 -40t-31.5 -16q20 30 22 60q3 45 -22 71q-28 28 -82 28q-148 0 -301 -195q-69 -88 -129 -215q-43 -90 -71 -165q23 32 64.5 79.5t73.5 74.5q21 17 34 12t4 -26q-18 -40 -53 -126q-23 -60 -37 -108q-2 -13 2 -15t28 17q7 7 9 6q5 -3 -4 -10
q-35 -39 -58 -36q-18 2 -13 32q8 48 38 121q14 32 40 95q4 11 2 13q-4 2 -13 -7q-41 -41 -76 -84q-27 -33 -79 -122q-5 -6 -16 -21q-8 -11 -17 -8q-7 2 0 20l49 129q19 49 62 148q55 112 131 205q66 80 148 133q97 62 184 62q65 0 101 -31t30 -81z" />
    <glyph glyph-name="trademark" unicode="&#x2122;" horiz-adv-x="500" 
d="M261 429l-8 -1q-6 28 -15 33.5t-47 5.5q-1 -25 -1 -39v-83q0 -37 31 -38v-7q-8 0 -23 1h-23h-22q-13 -1 -20 -1v7q15 1 22.5 7.5t7.5 30.5v122q-38 0 -47 -5.5t-15 -33.5l-8 1l2 32q1 13 7 19q9 -3 15 -3h120q3 0 15 3q6 -6 7 -19zM521 300q-6 0 -19 1h-21h-22
q-13 -1 -20 -1v7q16 1 21 7t5 23q-1 29 -8 117l-30 -70q-10 -24 -34 -81l-10 -3q-3 7 -35 80q-16 35 -31 69q-4 -40 -9 -107q-1 -33 23 -35v-7q-3 0 -14 1h-18h-18q-11 -1 -16 -1v7q23 1 28 36q8 57 11 100q1 17 -4.5 21.5t-22.5 7.5v7h16q10 -1 16 -1q5 0 13 1h12
q8 -20 32 -76q9 -20 29 -65l61 141h14q9 -1 13 -1q5 0 14 1h14v-7q-28 -1 -24 -31q2 -38 8 -105q2 -26 26 -29v-7z" />
    <glyph glyph-name="partialdiff" unicode="&#x2202;" horiz-adv-x="220" 
d="M249 403q7 -130 -78 -279q-28 -50 -70 -89q-44 -42 -73 -39q-38 3 -38 59q0 48 29 95q46 101 128 128q9 3 20 3q10 0 14.5 -3.5t2.5 -5.5q2 3 -17 3q-8 0 -17 -5q-64 -34 -104 -151q-23 -69 -23 -88q1 -20 12 -23q19 -6 52 36q38 46 73 130q53 127 51 223q-1 47 -26 77
q-35 43 -111 37q-27 -2 -26 -3q-8 8 29 12q16 2 31 2q72 0 109 -39q29 -31 32 -80z" />
    <glyph glyph-name="product" unicode="&#x220f;" horiz-adv-x="605" 
d="M597 252q-17 -40 -52 -126q-13 -34 -38 -108q-2 -13 3 -15q6 -1 23 14q6 8 9 6q3 -3 -5 -10q-32 -36 -53 -33q-16 2 -13 30q4 39 39 123q13 30 40 95q5 12 2 14q-1 1 -14 -8q-42 -42 -75 -84q-22 -28 -80 -124q-3 -5 -15 -17t-20 -11q-5 2 4 25q24 64 43 110q25 58 38 95
q4 12 1 13q-4 2 -13 -7q-41 -41 -76.5 -84.5t-80.5 -125.5q-5 -6 -16 -21q-7 -11 -17 -8q-7 1 0 20q27 68 52 133q16 41 19 73q4 37 -20 54t-85 18q-102 2 -155 -48q-28 -27 -27 -63q1 -34 33 -52q9 -5 21 -7q-8 -8 -21 -8q-51 1 -50 58q1 40 36 74q63 61 166 61
q142 0 141 -82q0 -35 -37 -114q37 48 64 79q42 48 74 75q21 17 34 12t4 -26q-18 -44 -58 -139q35 46 63 78q41 47 75 75q20 17 33 12t4 -26z" />
    <glyph glyph-name="summation" unicode="&#x2211;" horiz-adv-x="583" 
d="M585 250q0 -24 -16 -56q-22 -45 -64 -95q-35 -35 -95 -100q-5 -14 -19 -11q-8 3 -8 11q0 15 13 32q8 29 13 86q5 61 10 80q-16 -35 -58 -87q-38 -44 -96 -116q-8 -11 -18 -8q-13 3 -12 16q1 12 14 34q11 18 21 46q27 75 23 131q-5 75 -112 78q-104 2 -155 -46
q-28 -27 -27 -63q1 -35 33 -52q9 -5 21 -7q-7 -8 -19 -8q-24 1 -38 17.5t-14 39.5q0 40 36 75q61 59 167 59q141 0 147 -89q4 -55 -34 -146q-11 -28 -25 -52q30 35 86 104q35 45 61 94q6 12 20 31t29 19q9 0 9 -6q0 -9 -18 -33q-3 -30 -12 -109q-6 -51 -24 -92q39 42 65 77
q63 85 77 160q2 9 0 17q-2 5 0 5q6 0 12.5 -10.5t6.5 -25.5z" />
    <glyph glyph-name="minus" unicode="&#xad;" horiz-adv-x="684" 
d="M658 102q4 -7 4 -15q0 -18 -27 -38q-24 -15 -48 -31q-19 -14 -33 -18q1 -1 2 -2.5t2.5 -3.5t9 -7t7.5 -7q0 -7 -10 -7q-14 0 -26 17l-3 6q-9 -3 -31 -6q1 -3 3 -11q2 -22 -7 -24q-5 -1 -6.5 8.5t-2.5 18.5q0 1 -1 3.5t-2 4.5q-17 -1 -34 0q0 -37 -1 -43q-2 -13 -16 -13
q-6 0 -4 9q3 9 5 17q2 21 5 30q-16 0 -59 15.5t-60 15.5q-27 1 -70.5 -15t-70.5 -16q3 -9 6 -31q4 -27 -4 -27q-11 0 -13 14q1 -6 1 44q-13 0 -37 2q0 -3 -2.5 -12t-4 -18t-7.5 -8q-12 3 -7 24l4 16q-10 1 -31 7q-2 -4 -7 -12q-17 -26 -30 -14q-3 2 -3 5q0 -2 14 14l11 11
q-32 14 -44 54.5t-12 39.5q0 8 4 16q14 27 47 27q11 0 51 -6q-14 11 -14 25q0 13 13 34q-5 -1 -16.5 -7t-15.5 -6q-1 0 -2 1q-4 7 17 17q12 8 28 12q3 3 12 14q-5 2 -19 5q-9 1 -16.5 1.5t-6.5 5.5q1 4 10 4q20 5 39 -10q2 3 10 9q-14 24 -26 33q-6 5 -23 9q-10 3 -7 9
q5 10 36 -9q11 -6 25 -37q12 12 23.5 20.5t40.5 30.5q-8 -1 -19 -6t-16 -5q-10 0 -17.5 9t-7.5 19q0 16 20 53.5t20 50.5q0 10 -5.5 14.5t-5.5 14.5q0 11 8.5 20t18.5 9q24 0 27 -21q19 1 37.5 -8t29.5 -9q12 0 35 8t33 8q4 0 8 -1q4 24 30 24q13 0 23 -8.5t7 -22.5
q-1 -4 -5.5 -15.5t-4.5 -21.5q0 -20 15 -54t15 -45q0 -24 -27 -24q-11 0 -28 7q-20 10 -22 10q5 -13 24 -20q25 -10 33 -16.5t21 -17.5q11 9 32 32q2 2 8 12q4 7 7 7q2 0 4.5 -2.5t2.5 -6.5q0 -14 -49 -47q4 -3 15 -16q7 3 23 7q22 5 25 -4q1 -6 -7.5 -6.5t-17.5 -0.5
q-2 0 -17 -3q5 -5 16 -21q41 0 47 -1q13 -2 13 -13q0 -5 -4 -5q-3 0 -11 3t-11 4q-10 2 -29 5q18 -33 18 -49q0 -12 -10 -18q80 11 85 11q23 0 43 -35zM444 452q-1 9 -8 14.5t-12 3.5q-9 -1 -14.5 -8t-3.5 -12q2 -19 21 -17q9 1 14 7.5t3 11.5zM245 449q-1 9 -8.5 15
t-12.5 4q-9 -1 -15 -8.5t-4 -12.5q1 -8 9 -13.5t13 -3.5q9 1 14.5 7.5t3.5 11.5zM411 343q-24 -11 -53 -11q-14 0 -38 3t-34 3q-9 0 -41 -7q30 2 58 -3q32 -6 31 -6q40 0 77 21zM400 348l-2 3q-20 -11 -68 -4q-19 3 -37 6q-20 3 -38 -2q-14 -4 -36 -16q-25 -14 -33 -25l1 -3
q32 30 70 39q22 5 73 -3q46 -7 70 5zM454 307v3q-27 17 -50 17q-12 0 -34.5 -7.5t-34.5 -7.5q-25 0 -40 5q-27 8 -34 9l-6 -1q18 -6 36.5 -12t44.5 -6q10 0 29 5q23 6 29 7q16 3 60 -12zM433 452q0 -8 -7 -8q-9 0 -9 6q0 9 7 9q9 0 9 -7zM234 449q0 -9 -8 -9q-10 0 -10 7
q0 10 8 10q10 0 10 -8z" />
    <glyph glyph-name="minus" unicode="&#x2212;" horiz-adv-x="684" 
d="M658 102q4 -7 4 -15q0 -18 -27 -38q-24 -15 -48 -31q-19 -14 -33 -18q1 -1 2 -2.5t2.5 -3.5t9 -7t7.5 -7q0 -7 -10 -7q-14 0 -26 17l-3 6q-9 -3 -31 -6q1 -3 3 -11q2 -22 -7 -24q-5 -1 -6.5 8.5t-2.5 18.5q0 1 -1 3.5t-2 4.5q-17 -1 -34 0q0 -37 -1 -43q-2 -13 -16 -13
q-6 0 -4 9q3 9 5 17q2 21 5 30q-16 0 -59 15.5t-60 15.5q-27 1 -70.5 -15t-70.5 -16q3 -9 6 -31q4 -27 -4 -27q-11 0 -13 14q1 -6 1 44q-13 0 -37 2q0 -3 -2.5 -12t-4 -18t-7.5 -8q-12 3 -7 24l4 16q-10 1 -31 7q-2 -4 -7 -12q-17 -26 -30 -14q-3 2 -3 5q0 -2 14 14l11 11
q-32 14 -44 54.5t-12 39.5q0 8 4 16q14 27 47 27q11 0 51 -6q-14 11 -14 25q0 13 13 34q-5 -1 -16.5 -7t-15.5 -6q-1 0 -2 1q-4 7 17 17q12 8 28 12q3 3 12 14q-5 2 -19 5q-9 1 -16.5 1.5t-6.5 5.5q1 4 10 4q20 5 39 -10q2 3 10 9q-14 24 -26 33q-6 5 -23 9q-10 3 -7 9
q5 10 36 -9q11 -6 25 -37q12 12 23.5 20.5t40.5 30.5q-8 -1 -19 -6t-16 -5q-10 0 -17.5 9t-7.5 19q0 16 20 53.5t20 50.5q0 10 -5.5 14.5t-5.5 14.5q0 11 8.5 20t18.5 9q24 0 27 -21q19 1 37.5 -8t29.5 -9q12 0 35 8t33 8q4 0 8 -1q4 24 30 24q13 0 23 -8.5t7 -22.5
q-1 -4 -5.5 -15.5t-4.5 -21.5q0 -20 15 -54t15 -45q0 -24 -27 -24q-11 0 -28 7q-20 10 -22 10q5 -13 24 -20q25 -10 33 -16.5t21 -17.5q11 9 32 32q2 2 8 12q4 7 7 7q2 0 4.5 -2.5t2.5 -6.5q0 -14 -49 -47q4 -3 15 -16q7 3 23 7q22 5 25 -4q1 -6 -7.5 -6.5t-17.5 -0.5
q-2 0 -17 -3q5 -5 16 -21q41 0 47 -1q13 -2 13 -13q0 -5 -4 -5q-3 0 -11 3t-11 4q-10 2 -29 5q18 -33 18 -49q0 -12 -10 -18q80 11 85 11q23 0 43 -35zM444 452q-1 9 -8 14.5t-12 3.5q-9 -1 -14.5 -8t-3.5 -12q2 -19 21 -17q9 1 14 7.5t3 11.5zM245 449q-1 9 -8.5 15
t-12.5 4q-9 -1 -15 -8.5t-4 -12.5q1 -8 9 -13.5t13 -3.5q9 1 14.5 7.5t3.5 11.5zM411 343q-24 -11 -53 -11q-14 0 -38 3t-34 3q-9 0 -41 -7q30 2 58 -3q32 -6 31 -6q40 0 77 21zM400 348l-2 3q-20 -11 -68 -4q-19 3 -37 6q-20 3 -38 -2q-14 -4 -36 -16q-25 -14 -33 -25l1 -3
q32 30 70 39q22 5 73 -3q46 -7 70 5zM454 307v3q-27 17 -50 17q-12 0 -34.5 -7.5t-34.5 -7.5q-25 0 -40 5q-27 8 -34 9l-6 -1q18 -6 36.5 -12t44.5 -6q10 0 29 5q23 6 29 7q16 3 60 -12zM433 452q0 -8 -7 -8q-9 0 -9 6q0 9 7 9q9 0 9 -7zM234 449q0 -9 -8 -9q-10 0 -10 7
q0 10 8 10q10 0 10 -8z" />
    <glyph glyph-name="periodcentered" unicode="&#xb7;" horiz-adv-x="95" 
d="M72 178q-2 -27 -28 -29q-12 -1 -19.5 5t-6.5 18q2 28 28 30q12 1 19.5 -6t6.5 -18z" />
    <glyph glyph-name="periodcentered" unicode="&#x2219;" horiz-adv-x="95" 
d="M72 178q-2 -27 -28 -29q-12 -1 -19.5 5t-6.5 18q2 28 28 30q12 1 19.5 -6t6.5 -18z" />
    <glyph glyph-name="radical" unicode="&#x221a;" horiz-adv-x="438" 
d="M455 267q0 -23 -21.5 -58t-89.5 -108q-42 -41 -104 -109q-7 -10 -12 -8q-15 2 -15 15q0 15 12 34q13 26 20 46q13 39 19 58q9 34 11 65q6 92 -91 98q-95 6 -142 -45q-24 -26 -24 -65q0 -49 41 -57q-7 -5 -19 -5q-41 0 -41 47q0 44 35 82q58 63 158 59q64 -2 95.5 -31.5
t26.5 -79.5q-5 -56 -43 -139q-12 -25 -22 -45q26 27 76 83q82 100 109 166q4 10 5 20q0 6 1 6q4 0 9.5 -8.5t5.5 -20.5z" />
    <glyph glyph-name="infinity" unicode="&#x221e;" horiz-adv-x="217" 
d="M235 282q0 -1 -16 1q-13 -77 -51 -153q-25 -51 -72 -95t-72 -40q-37 5 -36 62q1 54 37 116q44 75 124 108q16 7 30 8q7 48 5 78q-8 111 -49 169q-53 74 -111 105q-51 27 -122 27q-54 0 -80.5 -28t-23.5 -73q1 -10 4 -21t3 -12q0 -2 -2 -3q-8 -2 -17 6t-11 18t-2 19
q0 47 42 76q38 26 85 26q177 0 262 -126q55 -81 61 -177q3 -42 -3 -84q17 -3 15 -7zM178 282q-16 -2 -27 -8q-56 -31 -95 -116q-35 -77 -35 -126q0 -21 10 -25q16 -6 48 34q40 49 71 137q19 52 28 104z" />
    <glyph glyph-name="integral" unicode="&#x222b;" horiz-adv-x="221" 
d="M859 750q-6 -149 -210 -300q-66 -49 -168 -83q-108 -35 -204 -35q-74 0 -125 19q-17 -30 -37 -74q-65 -141 -84 -225q-10 -43 11 -47q20 -4 49 36q26 34 43 78q9 23 24 78q7 39 -20 56q-18 11 -5 23q10 9 25 -8q11 -13 16 -26q11 -11 29 -11q14 0 25 6q3 1 6.5 3.5
t4.5 2.5q5 -3 -5.5 -11.5t-29.5 -10.5q-16 0 -25 5q6 -15 6 -38q0 -39 -15 -75q-22 -52 -60.5 -86t-69.5 -32q-41 3 -41 56q0 67 76 231q21 44 43 83q-29 15 -38 37q-5 13 1 13q-1 0 8.5 -15t33.5 -27q83 149 225 294q76 77 177 133q114 62 202 62q62 0 98 -31t34 -81z
M829 754q3 45 -22 71q-28 28 -82 28q-79 0 -181 -62q-89 -54 -165 -133q-128 -133 -222 -298q53 -17 120 -17q85 0 191 38q102 36 167 86q183 140 194 287z" />
    <glyph glyph-name="approxequal" unicode="&#x2248;" horiz-adv-x="338" 
d="M387 242l-38 2q-22 1 -55 1q-18 -41 -39 -94q-23 -59 -45 -121q27 25 48 35q7 7 7 -1q0 -1 -16 -12.5t-35 -34.5q-36 -42 -43 -40q-14 1 -8 17q40 140 91 250q-96 0 -151.5 -16t-86.5 -49q-24 -26 -24 -64q0 -14 4 -25q11 -28 37 -33q-8 -5 -16 -5q-35 0 -41 35
q-3 9 -3 19q0 39 35 77q55 60 158 71q38 4 94 4q16 35 41 80q35 63 54 58q5 -1 5 -5q0 -1 -12.5 -24.5t-47.5 -108.5q29 0 51 -3q38 -5 36 -13z" />
    <glyph glyph-name="approxequal" unicode="&#x22f2;" horiz-adv-x="338" 
d="M387 242l-38 2q-22 1 -55 1q-18 -41 -39 -94q-23 -59 -45 -121q27 25 48 35q7 7 7 -1q0 -1 -16 -12.5t-35 -34.5q-36 -42 -43 -40q-14 1 -8 17q40 140 91 250q-96 0 -151.5 -16t-86.5 -49q-24 -26 -24 -64q0 -14 4 -25q11 -28 37 -33q-8 -5 -16 -5q-35 0 -41 35
q-3 9 -3 19q0 39 35 77q55 60 158 71q38 4 94 4q16 35 41 80q35 63 54 58q5 -1 5 -5q0 -1 -12.5 -24.5t-47.5 -108.5q29 0 51 -3q38 -5 36 -13z" />
    <glyph glyph-name="notequal" unicode="&#x2260;" horiz-adv-x="301" 
d="M568 525q-3 -21 -15 -21l-5 17q-9 29 -51 29q-83 0 -172 -168q-25 -47 -56 -123q11 0 43 -2q40 -2 38 -9h-37h-49q-27 -70 -91 -231q-59 -140 -143 -219.5t-173 -78.5q-28 0 -46 10q-70 -37 -125 -37q-84 0 -117 60q-16 29 -9 33q1 1 3 -5q5 -10 13 -21q35 -46 119 -46
q57 0 106 23q-11 9 -17 21.5t-3 15.5l9 -10q11 -14 28 -19q91 53 181 269q39 93 57 147q6 18 4 42q-2 26 -22 37q-11 6 -10 9q3 7 26 9q30 2 42 2q29 74 61 123q86 133 184 133q32 0 28 -30q73 77 143 80q31 1 46 -12q12 -11 10 -28zM350 464q1 4 1 8q0 26 -40 26
q-59 0 -120 -116q-28 -53 -56 -123q15 1 50 1h23q14 -1 21 -1q29 74 63 126t58 79zM90 246q-10 0 -34 -3q18 -20 9 -61zM224 248h-43q-35 0 -51 -1q-29 -75 -95 -240q-79 -188 -202 -266q6 -2 27 -2q102 1 166 74q48 56 111 210q1 3 87 225z" />
    <glyph glyph-name="lessequal" unicode="&#x2264;" horiz-adv-x="225" 
d="M843 749q-8 -149 -212 -299q-68 -50 -169 -83q-106 -35 -202 -35q-71 0 -112 16q-25 -51 -41 -84q-36 -77 -64 -152q33 43 64 79q45 51 74 75q21 17 34 12q12 -5 3 -26q-17 -40 -52 -126q-13 -35 -37 -108q-3 -12 1 -15q6 -2 28 17q8 7 9 7q4 -3 -4 -11q-36 -39 -58 -36
q-16 2 -12 32q7 45 38 121q13 30 39 95q4 11 2 12q-3 2 -11 -6q-24 -24 -77 -84q-28 -35 -79 -122q-5 -6 -16 -21q-8 -11 -17 -8q-7 2 0 20l49 129q16 40 55 132q22 49 40 80q-30 16 -38 37q-5 13 1 13q-1 0 8 -14q10 -17 33 -28q101 177 225 302q81 81 173 133
q105 59 192 59q63 0 99.5 -31.5t33.5 -81.5zM812 754q3 45 -22 71q-28 28 -82 28q-146 0 -331 -192q-138 -144 -225 -305q42 -13 108 -13q85 0 191 38q102 36 167 86q183 140 194 287z" />
    <glyph glyph-name="greaterequal" unicode="&#x2265;" horiz-adv-x="480" 
d="M482 294q2 -2 -3 -10q-31 -47 -66 -141q-11 -33 -39 -100q30 30 56 43q11 6 12 3t-6 -7q-2 -1 -36 -28q-27 -21 -65 -61q-2 -4 -4 -7q-3 -6 -7 -5q-10 2 2 20q13 37 39 108q-31 -45 -47 -62q-43 -48 -64 -47q-29 1 -27 31q2 28 37 114q28 70 28 90q0 54 -96 56
q-105 2 -155 -46q-28 -27 -27 -63q1 -34 32 -52q8 -5 22 -7q-9 -7 -20 -7q-23 1 -37 17t-14 38q0 41 36 76q62 60 165 60q133 0 133 -70q0 -24 -29 -92q-16 -36 -38 -97q-7 -27 4 -31t43 32t64 91q4 5 6 14q20 48 40 89q15 30 36 42.5t25 8.5z" />
    <glyph glyph-name="lozenge" unicode="&#x25ca;" horiz-adv-x="221" 
d="M679 584q-2 -25 -18.5 -40.5t-33.5 -15.5q20 30 22 60q3 45 -22 71q-28 28 -82 28q-148 0 -300 -195q-78 -99 -131 -215q-61 -133 -83 -226q-10 -43 11 -46q20 -3 49 36q26 35 43 78q9 23 24 78q7 39 -20 56q-18 11 -5 23q10 9 28 -11q6 -7 13 -23q11 -11 29 -11
q14 0 25 6q3 1 6.5 3.5t4.5 2.5q5 -3 -5.5 -11.5t-29.5 -10.5q-16 0 -25 5q6 -15 6 -38q0 -39 -15 -75q-22 -52 -60.5 -86t-69.5 -32q-41 3 -41 56q0 71 76 231q55 116 140 219q66 80 148 133q97 62 184 62q63 0 100 -31.5t32 -80.5z" />
    <glyph glyph-name="fi" unicode="&#xf001;" horiz-adv-x="288" 
d="M348 418q-20 -24 -45 -62q-9 -22 -18 -21q-7 1 -11 9t-1 16q5 16 32 35q24 17 43 23zM377 493q-1 -22 -38 -45q-13 -8 -14 -4l9 9q14 14 15 30q1 25 -25 25q-67 0 -133 -126q-26 -50 -56 -124q22 -2 42 -2q29 0 44.5 3.5t47.5 21.5q9 5 12 3q3 -3 -2 -12
q-28 -50 -57 -124q-26 -67 -43 -119q26 24 49 35q8 4 8 0l-17 -12.5t-38 -36.5q-32 -36 -37 -35q-17 0 -10 21q15 49 50 147q31 77 48 106q-18 -9 -57 -9q-33 0 -45 1q-28 -71 -93 -232q-60 -143 -143 -227q-93 -95 -197 -95q-32 0 -51 18q-17 15 -12 22q0 1 15 -8
q20 -11 51 -11q114 0 187 87q47 57 112 213q39 93 57 147q6 18 4 42q-2 26 -22 37q-11 6 -10 9q3 8 26 10q23 1 42 0q30 76 61 124q91 140 192 140q30 0 28 -29zM90 245q-18 0 -34 -2q18 -20 9 -61z" />
    <glyph glyph-name="fl" unicode="&#xf002;" horiz-adv-x="295" 
d="M588 531q0 -21 -16 -21q-2 0 -3.5 13t-3.5 17q-11 24 -48 21q-81 -7 -168 -146q-32 -51 -68 -131q-64 -142 -89 -236q-10 -37 -3 -39q15 -5 42 41q10 16 11 16q7 -2 -6 -23q-34 -55 -61 -54q-25 1 -23 39q1 20 12 55q24 78 84 212q28 64 71 126q8 11 26 36q6 10 4 20
q-2 24 -29 24q-35 0 -76 -45q-31 -35 -56 -82q-30 -56 -53 -115q30 -4 51 -4q10 0 15 2.5t6 1.5q2 -4 -6 -8.5t-17 -6.5q-13 -2 -54 0q-28 -70 -93 -230q-60 -143 -143 -227q-93 -95 -197 -95q-32 0 -51 18q-17 15 -12 22q0 1 15 -8q20 -11 51 -11q114 0 187 87
q47 57 112 213q39 93 57 147q6 17 4 42q-2 30 -22 40q-11 6 -10 9q2 6 26 8q10 1 43 1q26 65 57 114q90 140 185 139q22 0 30 -13q3 -6 3 -12q68 72 146 80q32 3 51 -7.5t19 -29.5zM90 246q-26 0 -34 -1q19 -20 9 -63z" />
    <glyph glyph-name="glyph245" horiz-adv-x="500" 
 />
    <glyph glyph-name="Euro" horiz-adv-x="208" 
d="M62 148q-12 -30 -18 -51q-9 -33 -9 -51q0 -25 22 -25q19 0 44.5 27.5t40.5 56.5q11 21 12 21q8 -2 -5 -27q-17 -33 -41 -59q-33 -36 -66 -34q-43 3 -44 54q-1 39 19 88q-29 0 -28 4q2 13 36 13q2 3 5.5 9t4.5 9q-32 0 -31 5q2 12 43 12q67 98 137 99q27 0 29 -17
q1 -11 -11 -22.5t-17 -6.5q-3 3 1 10q12 26 -3 27q-40 8 -96 -92q53 -6 69 -17q-18 2 -77 2q-6 -10 -10 -20q54 -6 72 -17q-38 2 -79 2z" />
    <glyph glyph-name="apple" unicode="&#xf000;" horiz-adv-x="684" 
d="M658 102q4 -7 4 -15q0 -18 -27 -38q-24 -15 -48 -31q-19 -14 -33 -18q1 -1 2 -2.5t2.5 -3.5t9 -7t7.5 -7q0 -7 -10 -7q-14 0 -26 17l-3 6q-9 -3 -31 -6q1 -3 3 -11q2 -22 -7 -24q-5 -1 -6.5 8.5t-2.5 18.5q0 1 -1 3.5t-2 4.5q-17 -1 -34 0q0 -37 -1 -43q-2 -13 -16 -13
q-6 0 -4 9q3 9 5 17q2 21 5 30q-16 0 -59 15.5t-60 15.5q-27 1 -70.5 -15t-70.5 -16q3 -9 6 -31q4 -27 -4 -27q-11 0 -13 14q1 -6 1 44q-13 0 -37 2q0 -3 -2.5 -12t-4 -18t-7.5 -8q-12 3 -7 24l4 16q-10 1 -31 7q-2 -4 -7 -12q-17 -26 -30 -14q-3 2 -3 5q0 -2 14 14l11 11
q-32 14 -44 54.5t-12 39.5q0 8 4 16q14 27 47 27q11 0 51 -6q-14 11 -14 25q0 13 13 34q-5 -1 -16.5 -7t-15.5 -6q-1 0 -2 1q-5 8 15 18q8 6 30 11q2 3 11 13q-4 2 -18 6q-9 1 -16.5 1.5t-6.5 5.5t11 5q21 3 38 -11q2 3 10 9q-13 22 -27 32q-5 4 -22 9q-10 4 -7 10
q5 12 35 -6q14 -9 28 -38q10 10 21.5 18.5t40.5 30.5q-8 -1 -19 -6t-16 -5q-10 0 -17.5 9t-7.5 20q0 15 17 51t17 50q0 12 -9 19q-5 5 -5 20q0 12 9.5 22t20.5 10q29 0 33 -26q21 1 38.5 -11t28.5 -12q12 0 38 12t40 9q3 29 33 29q17 0 27.5 -10t7.5 -26q-3 -6 -9 -22
q-4 -11 -4 -24q0 -20 12 -52t12 -43q0 -25 -28 -25q-11 0 -28 7q-20 10 -22 10q5 -13 24 -20q25 -10 33 -16t20 -16q10 8 33 30q2 2 8 12q4 7 7 7q2 0 4 -2q13 -11 -10 -30l-36 -24q4 -3 15 -16q5 3 23 9q21 5 25 -6q1 -6 -7.5 -6.5t-17.5 -0.5q-2 0 -17 -3q5 -5 16 -21
q28 4 45 1q15 -3 15 -15q0 -5 -4 -5q-3 0 -11 3t-11 4q-10 2 -29 5q18 -33 18 -49q0 -12 -10 -18q80 11 85 11q23 0 43 -35zM454 457q-1 11 -10 18t-15 5q-10 -1 -17 -10t-5 -15q3 -22 26 -20q10 1 16.5 8.5t4.5 13.5zM244 454q-1 10 -10 17.5t-15 6.5q-10 -2 -17.5 -11
t-6.5 -15q2 -10 11.5 -16t16.5 -5q10 1 16.5 9t4.5 14zM394 354l-3 2q-13 -7 -62 0q-19 3 -37 6q-20 3 -38 -2q-13 -3 -36 -18.5t-32 -26.5l1 -3q32 30 70 39q22 5 73 -3q40 -6 64 6zM418 348q-24 -11 -56 -11q-15 0 -40.5 3t-35.5 3q-19 0 -49 -13q10 1 21 1
q21 0 47.5 -4.5t28.5 -4.5q39 0 84 26zM454 307v3q-27 17 -50 17q-12 0 -34.5 -7.5t-34.5 -7.5q-25 0 -40 5q-27 8 -34 9l-6 -1q5 -1 35 -13q19 -8 44 -8q10 0 30 5q24 6 30 7q23 3 60 -9zM439 457q0 -8 -8 -8q-9 0 -9 6q0 10 7 10q10 0 10 -8zM230 454q0 -10 -9 -10
q-11 0 -11 8q0 11 9 11q11 0 11 -9z" />
    <glyph glyph-name="glyph248" horiz-adv-x="0" 
 />
    <glyph glyph-name="afii10017" unicode="&#x410;" horiz-adv-x="800" 
d="M931 526q-1 -5 -23 -1q-43 7 -75 14q-2 -16 -7 -46q-27 -142 -58 -238q-28 -85 -85 -200q48 53 84 66q8 3 8 -2q0 -2 -5 -4t-7 -4q-34 -22 -76 -72q-20 -23 -47 -59q-14 -18 -26 -18q-9 0 -2 13q7 15 17 39q45 100 91 244q44 137 61 223q9 43 12 66q-11 2 -38 7
q-106 -167 -227 -295q22 -6 56 -14q54 -12 109 -16q11 -1 10 -2q0 -5 -17 -5q-71 -2 -136 10q-16 3 -39 10q-81 -80 -174 -149q-213 -159 -352 -170q-90 -7 -97 32q-4 23 22 45q23 21 60 32q13 4 15 2q1 -2 -8 -6q-53 -21 -53 -59q0 -39 63 -36q125 7 327 168q85 68 167 150
q-15 5 -31 12q-21 9 -16 20q3 6 10 6q9 0 33 -10q8 -3 22 -9q120 121 241 288l-164 33q-143 30 -171 35q-86 17 -166 25q-24 3 -48 3q-179 0 -172 -107q2 -26 37 -61q29 -28 63 -48q9 -7 8 -7q-2 -2 -14 3q-116 51 -130 106q-3 12 -3 23q0 58 85 83q59 18 148 18q22 0 40 -1
q111 -7 332 -54q46 -10 163 -39q19 26 35.5 52.5t19.5 48.5q1 7 1 24q0 10 4 10q15 0 22 -36q9 -48 4 -120q31 -8 76 -17q21 -4 21 -6zM803 642q-2 -6 -12 -25q-19 -35 -29 -50q6 -1 16.5 -4t15.5 -5q5 33 9 84z" />
    <glyph glyph-name="afii10018" unicode="&#x411;" horiz-adv-x="792" 
d="M638 637h-5q-10 -19 -21 -43l-10 -21q-27 -58 -85 -176q-2 -3 -3 -7q29 -2 62 -7.5t57 -14.5q69 -24 110.5 -71t41.5 -105q0 -61 -37 -112.5t-98.5 -89t-141.5 -58.5t-166 -21q-63 0 -114 13.5t-85 37.5q-25 -6 -49 -5q-46 2 -69 25q-16 16 -16 34q0 5 2 6q18 -24 33 -32
q23 -12 56 -14q14 -1 27 0q-34 32 -34 75q1 20 12 39t28.5 35t40.5 27.5t49 15.5q7 0 7 -4q0 -3 -7 -3q-20 -5 -38 -16t-31.5 -26t-21.5 -33t-8 -36q0 -40 31 -69q23 5 44 16q31 17 58 47l23 27q50 58 132 218l9 19q8 14 38 73l-34 -4q-58 -12 -58 -36q0 -7 4.5 -15
t15.5 -15q-30 2 -38.5 13t-8.5 21q0 27 91 42l33 4l5 10q67 132 95 182l12 20q12 22 25 39q-81 11 -143.5 14t-109.5 0q-44 -5 -82 -16t-66 -27.5t-44.5 -38.5t-17.5 -48q-2 -32 20.5 -62t74.5 -59q3 -2 5.5 -3.5t1.5 -2.5q0 -1 -1 -1q-2 0 -4.5 -0.5t-6.5 1.5
q-76 31 -104.5 61t-26.5 65q1 28 20.5 52t55 42t85 30t111.5 18q64 6 125.5 5t122.5 -9l14 14q17 16 32 23t18 4l-17 -20q-9 -11 -19 -26q16 -3 41 -8.5t52.5 -12.5t55.5 -15.5t50.5 -16.5t36.5 -15t14 -12l-32 9q-29 7 -60 15t-61 14.5t-57 12t-47 8.5zM466 296l-10 -19
q-86 -153 -156 -221l-26 -24q-55 -44 -106 -63q30 -23 75 -35.5t100 -12.5q78 0 148.5 20.5t124 57.5t85 88t31.5 112q0 41 -17 73.5t-46.5 56t-70.5 37t-89 15.5q-16 -33 -43 -85z" />
    <glyph glyph-name="afii10019" unicode="&#x412;" horiz-adv-x="738" 
d="M697 161q-28 -109 -163 -176q-123 -61 -274 -61q-99 0 -169 33q-82 38 -80 107q1 43 43 78q38 32 87 39q7 0 7 -4q0 -3 -7 -3q-40 -9 -69 -40.5t-30 -67.5q-2 -63 69 -100q62 -32 150 -32q138 0 242 59q111 63 140 169q7 26 7 50q0 60 -39 106q-34 39 -83 55
q-46 -18 -88 -28t-88 -12q0 -1 -37 -73q-47 -93 -94 -156q-49 -66 -72 -65q-19 1 -14 25q3 13 12 21.5t13 5.5q3 -2 1 -7q-4 -11 -6 -19q-3 -14 2 -14q11 0 22 27q29 49 128 256q-64 4 -59 27q6 26 91 39q59 119 111 209q-69 -5 -184 -5q-149 0 -139 56q5 27 63 44
q55 16 106 12q25 -2 25 -5q0 -2 -16 -2q-41 1 -82 -9q-59 -15 -59 -47q0 -40 102 -40q18 0 191 8q19 29 37 43q25 15 28 11q1 -2 -11 -15q-7 -11 -21 -37q21 2 36 2q77 1 120 -22.5t43 -72.5q0 -48 -54 -95q-36 -31 -84 -54q66 -23 106 -66q46 -48 46 -110q0 -21 -6 -44z
M636 529q5 41 -25.5 62t-82.5 21q-31 0 -43 -1q-36 -73 -99 -208q7 1 21 1q63 0 121 -15q39 17 68 51q34 39 40 89zM510 379q-41 14 -104 16q-14 0 -25 -1l-24 -51q59 1 153 36zM333 390q-56 -11 -57 -33q-3 -15 34 -15q8 16 23 48z" />
    <glyph glyph-name="afii10020" unicode="&#x413;" horiz-adv-x="599" 
d="M931 507l-30 11q-58 21 -107 37.5t-89 26.5q-4 -43 -17.5 -91.5t-38.5 -102.5q-77 -170 -183 -297q-30 -36 -71.5 -68.5t-87 -56.5t-91 -38t-84.5 -14q-89 0 -131.5 30t-42.5 90q0 19 6.5 36t12.5 17q1 0 1 -1q0 -2 -2.5 -10t-2.5 -21q0 -29 11.5 -53.5t33 -42t51 -27
t65.5 -9.5q33 0 69 12t73 34t72.5 52.5t66.5 67.5q99 120 185 302q29 63 48.5 112.5t27.5 86.5q-94 23 -165.5 34.5t-122.5 11.5q-43 0 -80 -7.5t-64 -22t-42 -35.5t-15 -48q0 -33 23 -65t77 -66q7 -7 7 -8t-1 -1q-4 0 -11 4q-38 19 -64 36.5t-42 34.5t-23 34t-7 34
q0 58 70 89t192 31q70 0 137.5 -9t134.5 -24q-1 4 -1 8v8v12t2 12q4 0 12.5 -13.5t11.5 -33.5q14 -4 36.5 -11.5t47.5 -17t50.5 -20t45.5 -20t33 -17.5t13 -13z" />
    <glyph glyph-name="afii10021" unicode="&#x414;" horiz-adv-x="945" 
d="M944 277q-34 -144 -154 -254q-106 -97 -270 -97q-139 0 -260 104q-45 39 -79 74q-25 -33 -58 -89.5t-43 -84.5q-6 -17 -10 -17t4 27q21 72 86 185q-27 34 -50 57q-15 -11 -28 -43q-37 -92 -38 -153q-1 -54 15 -81q6 -11 1.5 -10t-11.5 14q-20 32 -20 79q0 91 33 168
q18 43 31 44q9 1 30 -5.5t56 -41.5q48 89 124 198q27 38 189 235q-79 -8 -158 -17q-98 -10 -176 -11q-52 -1 -92 13q-47 17 -47 47q0 38 68 58q53 15 99 12q40 -2 36 -10q0 1 -26 2q-41 2 -83 -10q-57 -16 -57 -50q0 -44 111 -44q118 0 334 22l16 24l-26 -5q22 18 49 42
q18 13 20 12q4 -2 -4 -18.5t-33 -52.5q40 4 78 4q156 0 245 -54q107 -64 107 -201q0 -36 -9 -72zM888 280q13 45 13 91q0 114 -74 166.5t-235 52.5q-37 0 -77 -3q-117 -187 -179 -272q-48 -61 -135 -182q2 -2 79 -71q138 -124 244 -124q75 0 127.5 22t108.5 81
q84 88 128 239z" />
    <glyph glyph-name="afii10022" unicode="&#x415;" horiz-adv-x="628" 
d="M841 481q1 1 -13 9q-50 30 -226 83q-27 -58 -85 -176q-17 -36 -51 -101q35 -8 78 -16q76 -14 114 -15q9 0 8 -3q-1 -5 -17 -5q-85 -2 -193 20q-86 -153 -156 -221q23 -17 71 -51q103 -72 166 -103q76 -37 140 -37q84 0 119 62q5 9 7 8q4 -2 -2 -13q-9 -26 -37 -47
q-37 -27 -91 -27q-143 0 -319 126q-28 20 -80 58q-95 -78 -180 -75q-46 2 -69 25q-16 16 -16 34q0 5 2 6q18 -24 33 -32q23 -12 56 -14q55 -3 99 21q31 17 58 47q-45 34 -89 67q-71 51 -93 56q-20 5 -20 -5q0 -18 36 -54q42 -41 90 -53q-62 3 -103 39q-34 30 -34 60
q0 13 8 18q19 13 42 7q61 -16 186 -108q50 58 132 218q-16 5 -40 13q-18 9 -13 19q4 6 28 -1l34 -12q9 17 48 93q67 132 95 182q-128 38 -244 38q-178 0 -182 -116q-1 -29 31 -68q26 -32 57 -53q7 -7 7 -8q-1 -3 -13 4q-107 61 -116 114q-2 10 -2 18q0 70 90 102
q64 22 153 22q21 0 36 -1q101 -9 195 -32q28 49 55 74q17 16 32 23t18 4l-17 -20q-26 -32 -52 -90q139 -37 218 -97q16 -12 11 -16z" />
    <glyph glyph-name="afii10024" unicode="&#x416;" horiz-adv-x="1014" 
d="M1173 602q-51 -1 -98 -25.5t-89 -66t-78 -96.5q-35 -53 -62 -113q38 -12 81 -30q9 -5 9 -7q0 -1 -2 -1q-4 0 -11 3q-6 3 -18.5 7t-25 8.5t-23.5 7.5q-10 3 -14 4q-11 -19 -19 -41q-9 -24 -15 -49t-9 -49.5t-3 -45.5q0 -55 27 -82t63 -27q18 0 37 8t39 22q6 5 8 5l1 -1
q0 -2 -10 -14q-61 -47 -107 -47q-39 0 -66.5 31t-27.5 82q0 43 12 90t30 92q7 17 15 34q-36 9 -76 17q-8 -19 -18 -40q-16 -35 -41.5 -78t-60.5 -94q11 11 23.5 22t24.5 20t23.5 15t20.5 6q2 0 2 -2l-16 -10q-23 -15 -48.5 -38t-47.5 -45q-26 -26 -50 -54q-2 0 -2 3q0 4 2 7
l23 40q29 51 57.5 110.5t63.5 128.5q4 7 7 15q-43 6 -90 8q-88 -144 -197 -249q-36 -34 -75 -61.5t-78.5 -46.5t-78.5 -29.5t-73 -10.5q-107 0 -107 96q0 61 35.5 118.5t101 102.5t158.5 72t208 27q14 0 30.5 -0.5t34.5 -1.5q48 78 76 142t45 111q-56 12 -104 25t-90 23
t-78.5 16.5t-67.5 6.5q-61 0 -98.5 -31t-37.5 -85q0 -26 18 -61.5t52 -64.5q6 -6 6 -8t-2 -2q-3 0 -8 5q-31 22 -51 41t-31.5 36t-16 32.5t-4.5 31.5q0 58 52 87.5t149 29.5q21 0 60.5 -6.5t84.5 -16.5t90.5 -22.5t80.5 -24.5q2 8 4 22.5t7 15.5q6 0 9 -16.5t3 -29.5
q4 -1 16.5 -4.5t26 -7.5t23.5 -7l11 -3q-2 -3 -10 -3q-12 0 -30 5t-38 10q-4 -29 -14.5 -64.5t-25 -70t-30 -65.5t-28.5 -51q36 -3 71 -8q8 -1 16 -3q17 35 32 73q21 52 44 110q2 3 6.5 16t11.5 27t17 25t23 11q3 0 3 -3t-0.5 -3.5t-2.5 -6t-6.5 -18t-13.5 -39.5
q-11 -34 -21.5 -62.5t-21.5 -56.5t-25 -59q-5 -10 -9 -21l18 -4q28 -6 57 -15q11 23 23 45q24 42 47 75q27 41 62 75.5t73.5 59t78.5 38.5t77 14q69 -1 100 -26.5t31 -76.5q0 -26 -14 -62t-39 -69t-58 -57t-71 -26q-7 0 -15.5 1.5t-16 4.5t-12.5 7t-5 9q0 2 2 2q8 0 23.5 -7
t26.5 -7q32 0 59.5 19.5t47.5 48t31 61t11 58.5q0 50 -28.5 79t-79.5 29zM565 334h-12q-7 0 -15 1h-24q-118 0 -210.5 -31.5t-156 -78t-96.5 -100.5t-33 -100q0 -80 96 -80q116 0 272 150q83 80 179 239z" />
    <glyph glyph-name="afii10025" unicode="&#x417;" horiz-adv-x="738" 
d="M436 371q28 2 65 6t85 18q-39 17 -97 23q-3 0 -13.5 0.5t-22.5 0.5h-22h-13q-57 -8 -58 -30q0 -3 6.5 -7t17.5 -6.5t24.5 -4t27.5 -0.5zM624 398q16 -8 33.5 -20t33 -29t27 -37.5t15.5 -44.5q7 -38 2.5 -77t-21 -76.5t-44 -73t-67.5 -65.5q-75 -56 -170.5 -75.5
t-199.5 -14.5q-85 5 -144.5 45t-72.5 107q-13 62 11 118t75 98t124 65t160 19q67 -4 113.5 -26t54.5 -58q7 -35 -13.5 -67t-57.5 -56.5t-84.5 -38t-93.5 -11.5q-36 3 -40 21q-2 11 6 18t23 6q6 0 8 -2q0 -2 -5 -3.5t-10.5 -4t-9.5 -6t-3 -8.5q0 -6 27 -8q58 -3 141 40
q57 28 82 57.5t19 58.5q-12 56 -132 62q-108 6 -215 -42q-44 -20 -79 -47t-57.5 -58.5t-31 -65t-0.5 -66.5q11 -60 63.5 -89.5t134.5 -34.5q39 -2 92.5 7t110 28.5t110.5 49.5t95.5 71.5t64.5 94.5t17 117q-3 28 -17.5 48.5t-33 34.5t-36.5 21t-27 8q-46 -14 -86.5 -21
t-85.5 -6l-43 5q-54 9 -52 30q1 6 13.5 12.5t32 11t43 7.5t47.5 3q4 -1 8.5 -0.5t11.5 -0.5q30 -2 59 -9t56 -16q21 7 41.5 20.5t36.5 32t26.5 40.5t13.5 46q5 36 -22.5 55.5t-73.5 23.5q-8 1 -19.5 1.5t-22.5 1t-20 0.5h-12q-34 1 -77.5 2.5t-99.5 6.5q-133 10 -129 59
q1 12 14 22t33 17.5t46.5 10.5t55.5 1q22 -2 33 -4.5t10 -4.5q0 -3 -15 -1q-7 0 -10 1q-26 2 -49 -0.5t-41 -8.5t-28.5 -15t-11.5 -21q-4 -40 93 -47q8 -1 54 -2.5t129 -4.5h16h20.5t20 -0.5t14.5 -0.5q72 -6 109 -31.5t32 -73.5q-5 -39 -47.5 -75t-105.5 -59z" />
    <glyph glyph-name="afii10026" unicode="&#x418;" horiz-adv-x="761" 
d="M967 600q-10 -2 -26 -8q-35 -17 -77 -80q-35 -53 -75 -140q-65 -142 -108 -246q-28 -67 -59 -146q26 29 57 40q5 1 8 -1q0 -2 -6 -5q-9 -4 -12 -6q-24 -17 -45 -43q-30 -37 -33 -39q-8 -9 -14 -7q-18 6 -11 24q38 103 75 191q-111 -182 -238 -182q-112 0 -218 99
q-71 -47 -136 -47q-18 0 -30 5.5t-9 10.5l12 -4q8 -3 18 -3q57 0 131 52q-9 8 -33 32q-27 28 -72 69q-18 14 -30 7q-19 -11 9 -43t48 -38q-40 0 -61 28q-11 15 -11 33t11 27q17 13 43 1q33 -16 78 -56q17 -14 47 -40q25 19 41 34q82 81 153 211q66 121 68 207
q3 110 -110 112q-77 1 -167.5 -91.5t-90.5 -170.5q0 -46 45 -46q34 0 65 17q12 7 13 6q3 -4 -11 -13q-36 -19 -67 -19q-56 0 -60 57q-6 89 82 183q83 88 195 87q61 -1 102.5 -34t44.5 -88q5 -96 -60 -218q-56 -104 -167 -202q-15 -13 -60 -47q114 -101 191 -103
q122 -3 253 216q34 81 70 155q59 120 96 172q30 42 69 68q33 23 58 26q7 1 11 0t3 -4z" />
    <glyph glyph-name="afii10027" unicode="&#x419;" horiz-adv-x="761" 
d="M967 600q-5 -1 -11.5 -3t-14.5 -5q-35 -17 -77 -80q-34 -51 -75 -140q-65 -143 -108 -246q-14 -34 -28.5 -70t-30.5 -76q27 30 57 40q4 1 8 -1q0 -2 -6 -5l-12 -6q-12 -8 -23 -19t-22 -24q-30 -38 -33 -39q-7 -9 -14 -7q-18 6 -11 24q19 52 37.5 99t37.5 92
q-111 -182 -238 -182q-112 0 -218 99q-71 -47 -136 -47q-18 0 -30 5.5t-9 10.5l12 -4q7 -3 18 -3q58 0 131 52q-5 4 -13 12l-20 20q-27 28 -72 69q-19 14 -30 7q-20 -11 9 -43t48 -38q-40 0 -61 28q-11 16 -11 33q0 18 11 27q16 13 43 1q17 -8 36 -22t42 -34q8 -7 20 -17
t27 -23q13 10 23 18t18 16q83 82 153 211q67 122 68 207q3 110 -110 112q-76 1 -168 -92q-90 -92 -90 -170q0 -46 45 -46q33 0 65 17q12 7 13 6q3 -4 -11 -13q-35 -19 -67 -19q-56 0 -60 57q-6 89 82 183q82 88 195 87q61 -1 102.5 -34t44.5 -88q5 -96 -60 -218
q-56 -105 -167 -202q-8 -7 -22.5 -18.5t-37.5 -28.5q115 -102 191 -103q122 -3 253 216q17 41 34.5 79.5t35.5 75.5q58 118 96 172q31 43 69 68q34 23 58 26q7 1 11 0t3 -4zM831 692q-25 -25 -46.5 -47.5t-54.5 -36.5q-51 -25 -83 -1q-27 20 3 69q10 19 21 15l-4 -14
q-6 -26 13 -39q12 -8 29.5 -5.5t36.5 10.5t37 19t31 20t18 12.5t-1 -2.5z" />
    <glyph glyph-name="afii10028" unicode="&#x41a;" horiz-adv-x="699" 
d="M618 663q1 -1 -5 -7q-10 -9 -17 -17q-21 -26 -36 -57q14 -6 19 -9q15 -7 13 -10q-1 -2 -3 -1q-11 4 -33 11q-30 -71 -125 -271q-89 -175 -187 -281q-109 -118 -202 -120q-34 -1 -50 21q-14 17 -9 26q0 -1 13 -12q20 -16 56 -16q83 0 164 104q58 75 165 283
q58 117 144 278q-55 19 -113 35q-106 29 -212 32q-60 2 -99 -19q-61 -31 -57 -111q1 -31 26 -71q20 -32 43 -52q8 -7 6 -9q-1 -2 -9 3q-92 63 -102 117q-3 15 -3 28q0 78 87 110q50 18 118 18q80 0 204 -30q53 -13 117 -41q12 21 29 38t35 25.5t23 4.5zM970 552
q1 -11 -3 -22t-8 -11q1 0 -4 21q-9 39 -58 39q-62 0 -176 -81q-79 -56 -197 -162q-14 -12 -15 -19q-1 -5 8 -30q36 -98 82 -188q65 -125 105 -175q64 -80 134 -80q41 0 68 24q24 21 31 55q3 15 4 15q3 0 7.5 -10.5t2.5 -22.5q-5 -34 -42 -53q-32 -18 -73 -18
q-149 0 -280 247q-57 106 -86 207q-7 23 -4 30q1 5 19 20q103 89 225 173q139 96 201 96q61 0 59 -55z" />
    <glyph glyph-name="afii10029" unicode="&#x41b;" horiz-adv-x="800" 
d="M511 242q-81 -80 -174 -149q-213 -159 -352 -170q-90 -7 -97 32q-4 23 22 45q23 21 60 32q13 4 15 2q1 -2 -8 -6q-53 -21 -53 -59q0 -39 63 -36q125 7 327 168q85 68 167 150l18 19q120 121 241 288l-164 33q-143 30 -171 35q-86 17 -166 25q-24 3 -48 3
q-179 0 -172 -107q2 -26 37 -61q29 -28 63 -48q9 -7 8 -7q-2 -2 -14 3q-116 51 -130 106q-3 12 -3 23q0 58 85 83q59 18 148 18q22 0 40 -1q111 -7 332 -54q46 -10 163 -39q19 26 35.5 52.5t19.5 48.5q1 7 1 24q0 10 4 10q15 0 22 -36q9 -48 4 -120q31 -8 76 -17
q21 -4 21 -6q-1 -5 -23 -1q-43 7 -75 14q-2 -16 -7 -46q-27 -142 -58 -238q-28 -85 -85 -200q48 53 84 66q8 3 8 -2q0 -2 -5 -4t-7 -4q-34 -22 -76 -72q-20 -23 -47 -59q-14 -18 -26 -18q-9 0 -2 13q7 15 17 39q45 100 91 244q44 137 61 223q9 43 12 66q-11 2 -38 7
q-106 -167 -244 -312zM803 642q-2 -6 -12 -25q-19 -35 -29 -50q6 -1 16.5 -4t15.5 -5q5 33 9 84z" />
    <glyph glyph-name="afii10030" unicode="&#x41c;" horiz-adv-x="993" 
d="M1065 579q10 -21 -10 -81q-27 -81 -88 -235q-42 -104 -102 -216q55 62 89 73q5 1 8 -2q-5 -3 -16 -10q-32 -21 -74 -76q-19 -25 -52 -61q-20 -22 -21 -22q-17 5 -9 20t20 38q21 43 108 258q37 92 113 261q7 15 12 31q4 13 2 13q-1 1 -8 -9.5t-20 -31.5q-48 -79 -153 -215
q-62 -80 -183 -206q-50 -52 -125 -116q-23 -36 -41 -31q-11 2 5 27q6 9 15 20q20 48 51 135q44 123 74 223l65 214l-10 1q-66 -110 -161 -230q-90 -112 -168 -188q-127 -123 -254 -192q-112 -61 -185 -62q-77 -1 -85 35q-6 26 22 51q23 21 56 30q16 4 17 2q0 -1 -8 -5
q-26 -10 -44 -31t-13 -40q7 -29 61 -29q158 0 454 289q158 154 296 372q-29 5 -95 16q-173 29 -183 30q-100 15 -179 17q-82 3 -139 -18q-84 -30 -78 -103q2 -28 36 -62q30 -31 63 -46q12 -5 11 -7q-1 -1 -14 3q-47 15 -87 43.5t-48 56.5q-4 15 -4 28q0 69 105 99
q76 21 167 16q163 -9 354 -40q1 0 99 -19q34 52 56 121q3 10 7 9q9 -2 10 -25q1 -26 -9 -74q-3 -15 -9 -40q78 -12 117 -13q23 -1 23 -4t-24 -3q-53 0 -119 7q-15 -69 -55 -218q-28 -94 -82 -223q-31 -74 -56 -117q60 56 97 95q63 66 87 92q53 59 99 117q90 114 151 209
q17 27 33 48q8 11 16 10q9 -2 12 -9zM740 629q-2 -3 -9 -16.5t-9 -17.5l7 -1q4 11 11 35z" />
    <glyph glyph-name="afii10031" unicode="&#x41d;" horiz-adv-x="918" 
d="M997 547q-47 -145 -101 -264q-5 -11 -9 -19q14 -6 40 -17q10 -5 9 -7q-1 -3 -13 2q-25 10 -40 14q-37 -80 -119 -198q55 56 101 73q8 3 8 -2l-19 -12q-36 -23 -85.5 -72.5t-67.5 -72.5q-14 -14 -15 -14q-5 2 0 11l27 47q62 108 128 254q-53 16 -115 26q-52 9 -112 12
q-89 -146 -197 -249q-67 -64 -143 -103q-87 -45 -162 -45q-107 0 -107 96q0 64 44.5 130t122.5 113q61 37 155 58q91 20 181 19q29 0 65 -2q33 54 55 100q44 92 66 153q-46 10 -106 26.5t-95 24.5q-63 14 -119 19t-99 -17q-61 -31 -57 -108q2 -29 27 -67q20 -30 43 -49
q7 -7 6 -9q-1 -3 -10 4q-91 66 -100 113q-3 15 -3 28q0 73 82 101q49 17 119 16q73 -1 209 -38q70 -19 107 -32q4 14 6 30q1 7 5 8q5 1 9 -16t3 -30q21 -6 61 -17q16 -4 16 -5q-1 -3 -17 -2q-26 5 -61 14q-9 -72 -47 -155q-28 -61 -51 -96q49 -4 104 -13q59 -9 118 -30
q4 7 8 16q50 109 102 242q12 25 32 71q7 16 32 22q3 1 5 -1q1 -3 -2 -10.5t-24 -70.5zM565 310q-10 0 -27 1h-24q-80 0 -170 -22q-100 -23 -158 -61q-166 -108 -168 -224q-1 -83 96 -83q116 0 272 150q83 80 179 239z" />
    <glyph glyph-name="afii10032" unicode="&#x41e;" horiz-adv-x="619" 
d="M629 498q12 -44 12 -95q0 -135 -76 -261q-53 -88 -143 -149q-98 -66 -195 -66q-83 0 -138.5 49.5t-61.5 133.5q-7 106 45 213q29 61 65 101q-14 26 -16 60q-5 78 57 130.5t151 53.5q194 3 251 -164q8 -23 -4 -25q-8 -1 -16 22q-5 14 -18 38q-28 31 -81 33q-82 3 -145 -36
q-77 -47 -141 -136q29 -46 85 -68q11 -4 10 -6q-3 -4 -16 1q-59 21 -90 57q-15 -22 -43 -69q-60 -115 -60 -205q0 -149 128 -170q18 -3 35 -3q86 0 169 67q68 55 121 145q98 164 98 295q0 137 -125 215q-6 2 -3 5q3 2 9 -1q39 -20 75 -60q46 -49 61 -105zM536 557
q-30 45 -82 72q-59 31 -130 30q-76 -1 -128.5 -52t-46.5 -128q2 -21 7 -36q57 65 145 107q76 36 159 31q46 -3 76 -24z" />
    <glyph glyph-name="afii10033" unicode="&#x41f;" horiz-adv-x="605" 
d="M568 583q7 12 16.5 27.5t21 31t25 28.5t28.5 20q16 8 20 8q1 0 1 -0.5t1 -0.5l-13 -17q-6 -8 -14 -21t-16.5 -28t-16.5 -30.5t-15 -28.5q-7 -15 -23.5 -50.5t-36.5 -77.5t-40 -82.5t-34 -65.5q-42 -78 -85 -141t-89 -112q-128 -135 -241 -135q-38 0 -58.5 15.5
t-20.5 40.5q0 28 22 52t64 44q16 9 22 9q4 0 4 -3l-22 -14q-57 -38 -57 -79q0 -23 17 -37t44 -14q100 0 208 142q29 38 63 94t73 131q13 24 27 50.5t31.5 60.5t40.5 78.5t53 104.5zM519 110q28 65 50.5 112.5t40.5 82t33 58t29 41.5q12 15 26 28.5t29 23.5t29 16t26 6
q3 0 5 -2q1 -1 2 -1q0 1 -7.5 -2t-20 -10.5t-28 -21.5t-30.5 -36q-19 -27 -40.5 -67t-42 -82.5t-38.5 -82.5t-30 -68q-12 -27 -24.5 -55.5t-25.5 -59.5q10 10 24.5 20.5t25.5 10.5q3 0 4 -1q-5 3 -18 -8.5t-28 -26.5t-27.5 -28.5t-15.5 -13.5q-7 0 -10 4t-3 7q0 2 2 6
q31 81 63 150zM664 582h-159t-144 -10q-107 -15 -156 -49.5t-36 -88.5q2 -11 14.5 -24t31 -25.5t40.5 -24t45 -19.5q10 -5 11 -5q0 -1 -3 -2q-2 0 -5.5 0.5t-8.5 2.5q-84 22 -123.5 46.5t-46.5 53.5q-7 28 9 52t51.5 43.5t87.5 33.5t117 23q37 5 92 8.5t118 6t129 5.5
t126.5 8.5t110.5 14.5t80 23q1 -1 1 -2q0 -5 -17 -11q-26 -10 -70 -19.5t-94.5 -17.5t-103.5 -14t-97 -9z" />
    <glyph glyph-name="afii10034" unicode="&#x420;" horiz-adv-x="618" 
d="M746 399q-25 -88 -117 -127q-73 -31 -179 -29q-79 2 -141 33q-143 -260 -236 -345q-38 -35 -59 -31q-34 6 -34 65q0 69 64 138q14 16 30 26t18 7l-10 -9q-14 -12 -26 -30q-45 -68 -48 -149q-1 -37 11 -39q14 -3 46 32.5t90 141.5q17 31 114 216q-23 16 -38 32t-15 24
q0 2 1 3q1 0 6 -6q6 -10 14 -16q13 -14 36 -29q15 31 48 94q70 135 102 188q-43 2 -151 9q-64 5 -89 11q-46 12 -43 37q3 26 63 40q49 11 95 8q24 -2 24 -5q0 -4 -16 -3q-123 5 -130 -39q-4 -28 99 -37q46 -2 154 -11q21 33 35 48q20 21 41 33.5t25 8.5l-15 -21
q-29 -40 -46 -72q13 -1 47 -5q236 -29 236 -153q0 -19 -6 -39zM694 401q8 26 8 48q0 108 -191 132q-31 4 -47 5q-26 -53 -91 -186q-33 -68 -59 -114q62 -30 134 -31q200 -2 246 146z" />
    <glyph glyph-name="afii10035" unicode="&#x421;" horiz-adv-x="743" 
d="M290 -73q-137 -3 -210 43q-84 52 -76 164q7 92 71 188q55 82 139 148q91 72 202 117q99 40 184 48q18 2 37 2q137 0 152 -69q2 -10 2 -19q0 -55 -65 -92q-60 -35 -133 -35q-48 0 -82 15q-25 12 -39 30q-11 15 -8 19l12 -12q16 -17 39 -27q33 -15 78 -15q60 0 105 29
q51 33 51 83q0 11 -3 22q-14 60 -119 60q-15 0 -31 -1q-69 -6 -156 -45q-104 -46 -191 -121q-78 -67 -127 -149q-56 -91 -61 -177q-6 -100 59 -149q60 -44 174 -42q154 3 280 73q106 59 120 147q2 15 0 29q-3 19 -4 18q8 4 21 -14q9 -15 8 -33q-3 -82 -141 -158
q-134 -74 -288 -77z" />
    <glyph glyph-name="afii10036" unicode="&#x422;" horiz-adv-x="686" 
d="M725 584h-113l-6 -12q-7 -15 -23.5 -50.5t-36.5 -77.5t-40 -82.5t-34 -65.5q-42 -78 -85 -141t-89 -112q-128 -135 -241 -135q-38 0 -58.5 15.5t-20.5 40.5q0 28 22 52t64 44q16 9 22 9q4 0 4 -3l-22 -14q-57 -38 -57 -79q0 -23 17 -37t44 -14q100 0 208 142q29 38 63 94
t73 131q13 24 27 50.5t31.5 60.5t40.5 78.5t53 104.5v1h-19q-83 0 -160 -10q-119 -15 -173 -49.5t-40 -89.5q2 -11 16 -24t34 -26t45 -24.5t50 -19.5q11 -4 12 -5q0 -1 -3 -2q-2 0 -6 0.5t-10 2.5q-93 22 -137 47t-51 54q-8 28 10 52t57 43.5t97 34t130 23.5q41 6 102 9
q28 1 57 2l5 8q10 16 21.5 31.5t25 28.5t28.5 20q16 8 20 8l2 -1l-13 -17q-6 -8 -14 -21t-17 -28q-7 -13 -14 -27q14 1 29 1q70 3 143.5 6t140.5 8.5t122.5 15t88.5 23.5q1 -1 1 -2q0 -5 -19 -11q-29 -10 -77.5 -19.5t-104.5 -18t-114.5 -14.5t-107.5 -9zM599 110
q28 65 50.5 112.5t40.5 82t33 58t29 41.5q12 15 26 28.5t29 23.5t29 16t26 6q3 0 5 -2l1 -1q-1 0 -7 -2q-7 -3 -19.5 -10.5t-28 -21.5t-30.5 -36q-19 -27 -40.5 -67t-42 -82.5t-38.5 -82.5t-30 -68q-12 -27 -24.5 -55.5t-25.5 -59.5q10 10 24.5 20.5t25.5 10.5q2 0 3 -1
q-5 2 -17 -9q-13 -11 -28 -26t-27.5 -28.5t-15.5 -13.5q-7 0 -10 4t-3 7q0 2 2 6q31 81 63 150zM654 384q-47 -74 -102 -175q-49 -94 -83 -168q28 34 56 46q6 5 7 -1q-41 -30 -66 -64q-46 -47 -47 -46q-12 1 -5 20q1 5 4 12q33 69 103 207q31 56 90 155q-11 -7 -19 -8
q-8 1 -8 6l16 8q21 6 49 23q10 7 13 2q0 -4 -8 -17zM636 20h-1h1z" />
    <glyph glyph-name="afii10037" unicode="&#x423;" horiz-adv-x="695" 
d="M802 528q-15 -37 -44 -74q-43 -141 -89 -242q-120 -262 -285 -414q-178 -164 -353 -164q-38 0 -60 19q-17 13 -17 28q0 4 2 5q-2 -1 16 -11q23 -12 66 -14q90 -3 167 33q70 33 147 108q148 144 286 440q24 50 75 162q-99 -169 -249 -300q-131 -114 -217 -142
q-33 -11 -49 -3q-13 6 -13 24q0 14 8 30q6 13 73.5 118.5t102.5 176.5q79 162 73 257q-6 96 -103 100q-85 3 -174 -53q-70 -44 -118 -105q-56 -70 -53 -130q2 -44 46 -46q29 -1 66 16q13 6 13 5q2 -4 -11 -11q-36 -19 -68 -19q-57 0 -60 54q-3 64 41 133q40 62 96 100
q104 70 221 66q70 -2 110.5 -43.5t41.5 -104.5q1 -94 -73 -233q-33 -63 -175 -276q-21 -31 -15 -40q7 -11 36 2q80 35 197 137q151 132 266 331q14 39 37 86q16 32 33 27t6 -33z" />
    <glyph glyph-name="afii10038" unicode="&#x424;" horiz-adv-x="765" 
d="M749 581q7 -2 21 -5t28 -6.5t24.5 -6.5t10.5 -4q-2 -3 -7 -3q-20 0 -42 6t-36 10q-2 0 -13 2.5t-24 5.5t-25.5 6t-18.5 4l-54 12q-18 -32 -38 -70t-38 -77q-2 -4 -3 -5q66 13 120.5 13t94 -13.5t61 -40t20.5 -64.5q0 -20 -6 -39q-9 -35 -36.5 -66.5t-65 -55t-82 -38.5
t-89 -17.5t-85.5 8.5t-72 40q-5 -6 -8 -13q-35 -60 -68.5 -110t-63.5 -85.5t-55.5 -55.5t-43.5 -20q-20 0 -29.5 17.5t-9.5 48.5q0 70 64 138q13 14 27 24t19 9h2l-10 -9q-38 -34 -56 -85.5t-18 -100.5q0 -18 3.5 -25t10.5 -7q10 0 26 12.5t38.5 44t52.5 84t70 132.5
q-64 -13 -115.5 -11t-87.5 17t-55 42.5t-18 65.5q0 19 6 39q9 34 34.5 64t61.5 52.5t78 36.5t85 17t83.5 -6.5t71.5 -33.5q2 5 4.5 8.5t4.5 7.5q24 42 43.5 76.5t35.5 58.5l-53 12q-19 4 -61.5 13t-89.5 19t-87.5 17.5t-55.5 8.5q-11 1 -21 2t-20 1q-150 0 -150 -96
q0 -23 22.5 -55t64.5 -58l7 -7l-2 -1q-2 0 -4 1l-6 3q-63 31 -89.5 60.5t-26.5 64.5q0 48 53 73t150 25q48 0 128 -13t196 -40q10 -3 24 -6.5t31 -8.5q4 5 7 9t6 7q18 19 37 30.5t26 12.5q2 0 2 -0.5t1 -0.5l-15 -21q-6 -9 -14 -20.5t-16 -25.5q12 -4 25 -7t28 -7q3 0 14 -3
t23.5 -6.5t23.5 -7t14 -4.5zM529 439q-10 -20 -25 -50.5t-32.5 -65t-36.5 -70.5t-36 -66q49 -40 107.5 -46.5t112 12t95.5 58.5t58 93q8 27 8 48q0 30 -12 53.5t-40.5 36t-77 12.5t-121.5 -15zM351 187q42 85 76 151.5t57 110.5q-49 36 -105 41.5t-107 -12.5t-90.5 -56.5
t-54.5 -90.5q-8 -27 -8 -48q0 -30 10.5 -54t37 -37.5t71 -16t113.5 11.5z" />
    <glyph glyph-name="afii10039" unicode="&#x425;" horiz-adv-x="638" 
d="M940 552l-13 14q-16 16 -44 18q-72 5 -149.5 -55t-175.5 -160q0 -97 -7 -165q-11 -110 -30 -166q29 55 73 69q9 5 9 -1q0 1 -17 -10q-24 -16 -53 -55q-11 -17 -37 -55q-12 -16 -19 -15q-16 2 -11 12q6 13 11 30q10 36 28 193q7 60 7 121q-45 -49 -149 -162
q-49 -52 -99 -94q-27 -23 -48 -36q35 -25 51 -34q35 -20 60 -21q69 -3 99 56q5 10 8 8t-5 -19q-31 -61 -108 -60q-62 1 -135 52q-57 -34 -102 -34q-17 0 -30.5 6t-9.5 12q0 1 11.5 -3.5t26.5 -4.5q37 0 92 33q-12 9 -32 25q-31 28 -77 69q-15 13 -23 13q-4 0 -7 -2
q-12 -8 9 -43q17 -29 37 -40q-25 4 -42.5 22t-17.5 42q0 19 10 25q13 10 43 -2q21 -9 90 -60q27 -20 40 -31q16 11 45 34q55 45 105 98q46 49 157 171q0 101 -9 157q-24 150 -135 150q-95 0 -192 -86q-111 -99 -111 -191q0 -45 45 -47q31 -2 65 14q15 7 15 6q3 -3 -12 -11
q-36 -18 -68 -17q-56 2 -61 56q-5 52 27 110q29 54 78 95q96 80 215 80q148 0 177 -143q13 -63 13 -131q91 97 161 152q95 74 164 68q28 -3 45 -23q13 -15 13 -29q0 -4 -1 -5z" />
    <glyph glyph-name="afii10040" unicode="&#x426;" horiz-adv-x="796" 
d="M597 -68q-7 -9 -13 -11t-10.5 0t-7 6.5t-2.5 8.5q0 5 2 9q19 52 37.5 98t37.5 91q-111 -182 -238 -182q-112 0 -218 99q-71 -47 -136 -47q-17 0 -28.5 4.5t-11.5 9.5l1 2l12 -4q7 -3 18 -3q58 0 131 52q-10 8 -36.5 35.5t-68.5 65.5q-12 9 -22 9q-7 0 -11.5 -4.5
t-4.5 -9.5q0 -9 8 -20.5t19 -21.5t22 -18q10 -8 15 -9q-28 0 -49.5 16t-21.5 45q0 16 8.5 25t22.5 9q26 0 61.5 -29t86.5 -73q56 43 103 103.5t91 141.5q68 127 68 212q0 107 -113 107q-37 0 -81.5 -26.5t-83 -66.5t-64.5 -85.5t-26 -83.5q0 -46 45 -46q33 0 65 17
q10 6 12 6q1 0 1 -2q0 -6 -9.5 -11t-22.5 -9.5t-26 -7t-20 -2.5q-61 0 -61 68q0 41 22 86.5t60 84t88.5 63.5t107.5 25q66 0 106.5 -37.5t40.5 -97.5q0 -91 -60 -205q-36 -67 -90 -126t-137 -123q116 -103 194 -103q121 0 250 216q22 53 45.5 103.5t45.5 93.5t41.5 76.5
t33.5 53.5t32 37.5t36 30t35 20t30 7.5q8 0 8 -4v-1q-18 -3 -38 -16t-41.5 -40t-46 -69t-52.5 -103q-7 -16 -22.5 -50t-34.5 -77t-39.5 -90.5t-38.5 -89t-31.5 -73t-18.5 -42.5q36 30 81.5 40t84.5 2.5t64.5 -30t21.5 -56.5q-6 -30 -29.5 -53t-56.5 -37.5t-71.5 -19
t-74.5 2.5q-17 5 -49.5 16t-81.5 30q-24 9 -41 14.5t-28 7.5q-78 16 -114 -45l-12 3q23 42 63.5 62t87.5 11q15 -3 44 -13.5t61.5 -22.5t62 -22t45.5 -13q60 -12 103 5.5t53 60.5t-11 65t-56.5 25t-78 -10.5t-75.5 -40.5z" />
    <glyph glyph-name="afii10041" unicode="&#x427;" horiz-adv-x="761" 
d="M318 213q-29 24 -55.5 45.5t-43.5 31.5q-8 5 -11 5t-7.5 -4t-3.5 -7q1 -5 6 -11t11.5 -11.5t12.5 -9.5q5 -4 8 -5q-13 0 -25.5 9t-15.5 24q-2 9 4 14.5t13 7.5q12 2 49.5 -15.5t88.5 -52.5l7 -5q10 8 19 17q39 35 67.5 83.5t49.5 114.5q7 23 10.5 50.5t3.5 47.5
q0 107 -113 107q-37 0 -81.5 -26.5t-83 -66.5t-64.5 -85.5t-26 -83.5q0 -46 45 -46q33 0 65 17q10 6 12 6q1 0 1 -2q0 -6 -9.5 -11t-22.5 -9.5t-26 -7t-20 -2.5q-61 0 -61 68q0 41 22 86.5t60 84t88.5 63.5t107.5 25q49 0 81.5 -20t49 -52t17.5 -72t-14 -80
q-17 -54 -50.5 -101.5t-90.5 -99.5q-9 -8 -21 -17q100 -66 160 -66q39 0 72 34.5t66 87t70.5 116t85.5 121.5q16 19 33.5 36t35.5 30t34.5 21t29.5 8q8 0 8 -4v-1q-18 -3 -38 -16t-41.5 -40t-46 -69t-52.5 -103l-21 -48q-14 -32 -31 -71.5t-35.5 -83t-34.5 -81.5t-28 -67.5
t-17 -40.5q11 12 28 26t31 14q4 0 6 -1q0 -2 -6 -5l-12 -6q-27 -18 -42 -34.5t-24 -28.5t-13.5 -19t-10.5 -7q-8 0 -11.5 5t-3.5 10t2 9q6 17 16.5 45t22.5 61.5t25 69t25 68t22.5 58.5t16.5 41q-21 -32 -39 -59t-37 -46.5t-40.5 -30.5t-48.5 -11q-48 0 -104 15
q-44 12 -87 42q-6 -2 -12 -5q-19 -9 -37.5 -14.5t-32.5 -5.5t-24.5 3.5t-11.5 7.5l1 2l10 -3q8 -2 16 -2q12 0 29 6t35 15q6 4 13 7z" />
    <glyph glyph-name="afii10042" unicode="&#x428;" horiz-adv-x="1144" 
d="M1034 138q-111 -182 -238 -182q-106 0 -206 88q-12 -10 -24 -21q-33 -27 -73 -45.5t-90 -18.5q-57 0 -110.5 21t-107.5 71q-71 -47 -136 -47q-18 0 -30 5.5t-9 10.5l12 -4q7 -3 18 -3q58 0 131 52q-5 4 -13 12l-20 20q-27 28 -72 69q-19 14 -30 7q-20 -11 9 -43t48 -38
q-40 0 -61 28q-11 16 -11 33q0 18 11 27q16 13 43 1q17 -8 36 -22t42 -34q8 -7 20 -17t27 -23q13 10 23 18t18 16q83 82 153 211q67 122 68 207q3 110 -110 112q-76 1 -168 -92q-90 -92 -90 -170q0 -46 45 -46q33 0 65 17q12 7 13 6q3 -4 -11 -13q-35 -19 -67 -19
q-56 0 -60 57q-6 89 82 183q82 88 195 87q61 -1 102.5 -34t44.5 -88q5 -96 -60 -218q-56 -105 -167 -202q-8 -7 -22.5 -18.5t-37.5 -28.5q57 -51 105 -73t86 -23q48 2 87 24.5t74 58.5l3 3l-13 14l-27 27q-27 28 -72 69q-19 14 -30 7q-20 -11 9 -43t48 -38q-40 0 -61 28
q-11 16 -11 33q0 18 11 27q16 13 43 1q17 -8 36 -22t42 -34q4 -3 11.5 -10t16.5 -14.5t18 -16.5l2 -2l16 22q20 28 39 58q16 22 33 55t33.5 67.5t30.5 65.5t23 49q58 118 96 172q31 43 69 68q34 23 58 26q7 1 11 0t3 -4q-5 -1 -11.5 -3t-14.5 -5q-35 -17 -77 -80
q-34 -51 -75 -140q-16 -36 -35 -76.5t-38.5 -80t-39.5 -75.5t-39 -62q-23 -27 -50 -60l-12 -14q111 -97 186 -98q122 -3 253 216q17 38 34 76.5t35 75.5q58 118 96 172q31 43 69 68q34 23 58 26q7 1 11 0t3 -4q-5 -1 -11.5 -3t-14.5 -5q-35 -17 -77 -80q-34 -51 -75 -140
q-65 -143 -108 -246q-14 -34 -28.5 -70t-30.5 -76q27 30 57 40q4 1 8 -1q0 -2 -6 -5l-12 -6q-12 -8 -23 -19t-22 -24q-30 -38 -33 -39q-7 -9 -14 -7q-18 6 -11 24q19 52 37.5 99t37.5 92z" />
    <glyph glyph-name="afii10043" unicode="&#x429;" horiz-adv-x="1205" 
d="M997 -73q-7 -9 -14 -7q-18 6 -11 24q19 52 38.5 99t38.5 92l1 3q-111 -182 -240 -182q-110 0 -214 95q-14 -14 -30 -28q-33 -27 -73 -45.5t-90 -18.5q-57 0 -110.5 21t-107.5 71q-71 -47 -136 -47q-18 0 -30 5.5t-9 10.5l12 -4q7 -3 18 -3q58 0 131 52q-5 4 -13 12
l-20 20q-27 28 -72 69q-19 14 -30 7q-20 -11 9 -43t48 -38q-40 0 -61 28q-11 16 -11 33q0 18 11 27q16 13 43 1q17 -8 36 -22t42 -34q8 -7 20 -17t27 -23q13 10 23 18t18 16q83 82 153 211q67 122 68 207q3 110 -110 112q-76 1 -168 -92q-90 -92 -90 -170q0 -46 45 -46
q33 0 65 17q12 7 13 6q3 -4 -11 -13q-35 -19 -67 -19q-56 0 -60 57q-6 89 82 183q82 88 195 87q61 -1 102.5 -34t44.5 -88q5 -96 -60 -218q-56 -105 -167 -202q-8 -7 -22.5 -18.5t-37.5 -28.5q57 -51 105 -73t86 -23q48 2 87 24.5t74 58.5l10 10q-3 3 -6 7l-27 27
q-27 28 -72 69q-19 14 -30 7q-20 -11 9 -43t48 -38q-40 0 -61 28q-11 16 -11 33q0 18 11 27q16 13 43 1q17 -8 36 -22t42 -34q4 -3 11.5 -10t16.5 -15l12 -10l10 14q20 28 39 58q16 22 33 55t33.5 67.5t30.5 65.5t23 49q58 118 96 172q31 43 69 68q34 23 58 26q7 1 11 0
t3 -4q-5 -1 -11.5 -3t-14.5 -5q-35 -17 -77 -80q-34 -51 -75 -140q-16 -36 -35 -76.5t-38.5 -80t-39.5 -75.5t-39 -62q-23 -27 -50 -60q-3 -3 -6 -7l3 -2q115 -102 191 -103q122 -3 253 216q17 38 34 76.5t35 75.5q58 118 96 172q31 43 69 68q34 23 58 26q7 1 11 0t3 -4
q-5 -1 -11.5 -3t-14.5 -5q-35 -17 -77 -80q-34 -51 -75 -140q-65 -143 -108 -246q-14 -34 -30.5 -78.5t-32.5 -84.5q47 30 91.5 35.5t77.5 -7.5t51.5 -40t14.5 -61q-6 -30 -29.5 -53t-56.5 -37.5t-71.5 -19t-74.5 2.5q-17 5 -49.5 16t-81.5 30q-24 9 -41 14.5t-28 7.5
q-78 16 -114 -45l-12 3q23 42 63.5 62t87.5 11q15 -3 44 -13.5t61.5 -22.5t62 -22t45.5 -13q60 -12 103 5.5t53 60.5t-4 72t-45.5 38t-76.5 -5t-98 -56z" />
    <glyph glyph-name="afii10044" unicode="&#x42a;" horiz-adv-x="761" 
d="M358 310l8 3q35 64 57 103q30 53 38 69q31 56 47 93q3 6 6 13q-32 -11 -65 -21q-26 -8 -50 -15q-1 -3 -3 -6q-10 -23 -15.5 -43.5t-4.5 -31.5v-11h-1l-2 1q-5 0 -7.5 13t1.5 29q4 23 9 43q-5 -1 -10 -3q-39 -10 -67 -11q-47 -3 -81.5 16t-59.5 47q-37 44 -27 105q2 7 7 7
q1 0 1 -3.5t-1 -6.5q-6 -53 27 -91q37 -42 137 -37q38 3 80 8q2 0 4 1q12 32 46 63q31 29 58.5 40.5t44.5 5.5t15 -39q-1 -16 -6 -38q3 1 7 2q40 11 72 24q7 3 9 1.5t-0.5 -5t-8 -7.5t-11.5 -5q-32 -10 -71 -23q-4 -17 -11 -36q-18 -55 -53 -131q-22 -47 -50 -101q6 1 11 2
q36 8 63 9q69 2 126 -22t85.5 -67.5t22.5 -102t-63 -125.5q-67 -71 -171 -91q-93 -19 -226 -7q0 -2 -1 0q-13 2 -27 3l1 4q-24 3 -46 6l-2 -4q-10 -17 -18 -35.5t-18 -41.5l-7 -23h-2q-12 5 -13 34t22 76q-8 1 -15 2q-50 8 -82 11t-50.5 -0.5t-30.5 -17.5
q-23 -20 -4.5 -36.5t68.5 -27.5q10 -4 29 -6q4 -6 1 -9q-1 -2 -13.5 -1t-30.5 7q-57 15 -81 39.5t-5 47.5q19 19 62.5 21t93.5 -4q33 -4 66 -9q3 6 7 13q11 20 25.5 47.5t32 59.5t35.5 64.5t35.5 62.5t31.5 53q10 19 19 35h-1v1q1 1 2 1q3 6 6 11l-7 -3v1zM279 -60
q-1 2 -1 3q108 -9 188 5q90 16 148 79q11 11 19.5 23t18.5 24q31 55 28 103.5t-29 83.5t-70 54.5t-95 15.5q-23 -2 -58 -10q-3 -1 -7 -2q-14 -26 -28 -53q-21 -40 -50 -91t-58 -99.5t-53 -86.5q-12 -20 -21 -33q34 -7 57 -13h8l-1 -2q2 0 4 -1zM531 637q7 23 4.5 32.5
t-9.5 10.5q-19 1 -38 -10t-36 -30.5t-31 -43.5q-4 -5 -7 -11q27 4 54 9.5t53 12.5q7 17 10 30zM324 298q-26 -10 -51 -23t-42.5 -27t-15.5 -26q2 -9 15 -17t49 -1q-15 3 -22.5 9.5t-9.5 13.5q-3 12 10 23.5t32.5 22t40.5 18.5q15 6 27 9l1 9q-14 -4 -34 -11zM276 -57h2
q-2 2 -2 0z" />
    <glyph glyph-name="afii10045" unicode="&#x42b;" horiz-adv-x="1059" 
d="M408 298l9 3q32 58 52 94q28 49 36 64q29 51 44.5 85t21.5 54.5t3.5 30t-9.5 12.5q-6 2 -15 -1.5t-29 -16.5q-24 -20 -46 -42t-38.5 -44.5t-26.5 -44.5t-10 -41l-1 -11l-2 2q-5 0 -7.5 13t0.5 28q15 77 83 131q30 24 56.5 34t43.5 2q17 -7 16.5 -38t-17.5 -82.5
t-50 -121.5q-20 -44 -46 -94l10 2q36 4 63 2q68 -3 124 -33t85.5 -76t24 -101t-60.5 -107q-63 -63 -164.5 -75t-249.5 15v5q-24 5 -44 9l-2 -4q-11 -15 -18 -32t-18 -39l-6 -22h-1q-12 6 -14 34t19 72l-13 3q-49 11 -81 16.5t-50 3t-30 -14.5q-21 -17 -2.5 -34.5t67.5 -31.5
q10 -6 28 -9q4 -3 4 -4.5t-2 -3.5q-1 -2 -13 0t-32 9q-27 9 -47.5 20.5t-31.5 23.5t-13 24t8 22q12 11 36 14t53.5 0.5t62.5 -9.5t64 -14q6 12 17 32q19 35 43.5 78.5t51 88.5t47.5 77q10 17 19 33h-2v1q1 0 3 1q2 5 5 9l-8 -2v1zM338 -52l-1 2q105 -16 183 -8q89 9 144 65
q13 9 21 20t18 22q28 50 24 97t-30 83t-69.5 58t-93.5 22q-22 0 -57 -6l-7 -1q-12 -24 -26 -49q-20 -37 -47.5 -84t-54.5 -91t-50 -79q-12 -18 -20 -31q11 -3 21 -6l27 -9q8 -1 15 -2v-2zM928 218q7 16 11 25q51 116 103 257q12 27 33 76q7 17 32 23q3 1 5 -1q1 -3 -2 -11
t-24 -75q-48 -154 -116 -309q-37 -85 -120 -210q56 59 102 78q8 3 8 -3l-19 -12q-36 -25 -86.5 -77.5t-68.5 -76.5l-10 -10l-5 7l27 49q63 115 130 270zM375 288q-26 -7 -50 -17.5t-41 -22.5t-15 -24q2 -9 15 -17.5t48 -5.5q-14 5 -21.5 12t-9.5 13q-3 12 9.5 22.5t31.5 19
t39 14.5q16 4 27 7v8q-14 -3 -33 -9zM771 -113q14 -11 5 5zM335 -49l2 -1q-1 3 -2 1z" />
    <glyph glyph-name="afii10046" unicode="&#x42c;" horiz-adv-x="700" 
d="M303 310q3 1 7 2q33 65 53 104q27 53 35 69q29 56 44.5 92.5t20.5 58.5t2.5 32t-9.5 12q-6 2 -15.5 -3t-28.5 -20q-25 -22 -46.5 -46.5t-38 -49.5t-26 -48.5t-9.5 -43.5l-1 -11h-1l-2 1q-5 0 -7.5 13t0.5 29q7 42 28 77.5t54 65.5q30 27 57 39.5t44 6.5t17 -38.5
t-16.5 -87.5t-48.5 -131q-19 -47 -45 -101q6 1 10 2q36 8 63 9q46 1 87.5 -11t74 -34t53.5 -52.5t26 -66.5t-8.5 -75t-49.5 -78q-64 -71 -167 -91q-93 -19 -226 -7q0 -2 -1 0q-13 2 -27 3v4q-24 3 -44 6l-2 -4q-10 -17 -17.5 -35.5t-16.5 -41.5l-7 -23h-2q-12 5 -14 34
t19 76q-8 1 -15 2q-50 8 -82.5 11t-51 -0.5t-30.5 -17.5q-21 -20 -2 -36.5t69 -27.5q12 -4 30 -6q3 -4 3.5 -5.5t-1.5 -3.5q-1 -2 -13.5 -1t-31.5 7q-57 15 -82.5 39.5t-7.5 47.5q12 12 36.5 17t55 5t64.5 -4q34 -5 66 -10q7 13 17 35q19 38 43 85t50 96t46 84q9 18 18 35
h-1v1q1 1 2 1q3 6 5 11q-3 -1 -6 -3v1zM237 -60q-1 2 -1 3q109 -9 188 5q89 16 145 79q11 11 19 23t18 24q28 55 23.5 103.5t-32 83.5t-72 54.5t-95.5 15.5q-23 -2 -58 -10q-3 -1 -7 -2q-12 -26 -26 -53q-19 -40 -46 -91t-54 -99.5t-49 -86.5q-12 -20 -20 -33q11 -3 21 -5
q25 -6 43 -10v-5v-8h-1v3q-14 2 -27 4l2 10l26 -2v-2zM269 298q-26 -10 -50.5 -23t-41.5 -27t-14 -26q2 -9 15.5 -17t48.5 -1q-15 3 -22.5 9.5t-9.5 13.5q-4 12 8.5 23.5t31.5 22t40 18.5q15 6 27 9l1 9q-14 -4 -34 -11zM234 -57h2q-1 2 -2 0z" />
    <glyph glyph-name="afii10047" unicode="&#x42d;" horiz-adv-x="611" 
d="M128 6q-36 3 -61.5 10t-41 16.5t-22 19.5t-5.5 18q5 32 51 45q29 7 29 1q2 -2 -8 -18q-6 -7 -9 -15t-4 -16q-1 -5 2.5 -13t12.5 -16t23.5 -14.5t34.5 -7.5q56 -2 114.5 18t118.5 66q42 32 83 77q32 35 65 78q-106 4 -185 26q-16 4 -16 9q-2 3 8 1q39 -8 121 -12
q45 -1 83 -3h5l2 3q21 30 39 65t30.5 71t19 70t5.5 62q-2 49 -30 79t-85 33q-47 2 -83.5 -8t-62 -29.5t-38.5 -46.5t-12 -57q0 -13 8.5 -29.5t22 -34.5t30 -34.5t34.5 -29.5l8 -8q0 -2 -2 -2q-5 0 -12 6q-67 42 -96 76.5t-31 67.5q-1 31 16.5 58t48 46t72 28.5t89.5 6.5
q83 -5 125.5 -47.5t44.5 -108.5q2 -60 -21.5 -117.5t-60.5 -109.5q-3 -3 -5 -7q17 2 25 3q27 1 30 -6q2 -11 -18 -16q-18 -2 -54 -4q-28 -35 -59 -65q-43 -43 -82 -73q-29 -24 -63.5 -45t-73 -36.5t-79.5 -24t-81 -6.5z" />
    <glyph glyph-name="afii10048" unicode="&#x42e;" horiz-adv-x="1343" 
d="M1343 486q12 -44 12 -95q0 -135 -76 -261q-53 -88 -143 -149q-98 -66 -195 -66q-83 0 -138.5 49.5t-61.5 133.5q-6 94 34 189q-12 2 -24.5 4.5t-24.5 4.5q-53 9 -112 12q-88 -144 -197 -249q-68 -65 -143 -103q-87 -45 -162 -45q-107 0 -107 96q0 32 11.5 65t33 64.5
t52.5 60.5t70 53q61 37 155 58q46 10 91 15t90 4q14 0 30.5 -0.5t34.5 -1.5q32 52 55 100q43 91 66 153q-23 5 -49.5 11.5t-56.5 14.5t-54 14.5t-41 10.5q-32 7 -61.5 12t-57.5 7q-57 5 -99 -17q-62 -32 -57 -108q2 -30 27 -67q10 -15 21 -27t22 -22q7 -8 6 -9q-2 -3 -10 4
q-91 65 -100 113q-3 15 -3 28q0 73 82 101q25 8 54.5 12.5t64.5 3.5q37 -1 88.5 -10t120.5 -28q35 -10 61.5 -17.5t45.5 -14.5q4 13 6 30q1 7 5 8q3 0 5 -4.5t4 -11.5t2.5 -15.5t0.5 -14.5q11 -3 26 -7.5t35 -9.5q16 -4 16 -5q-2 -3 -17 -2q-13 2 -28.5 5.5t-32.5 8.5
q-9 -71 -47 -155q-29 -62 -51 -96q25 -2 50.5 -5t53.5 -8q13 -2 26 -4.5t27 -6.5q3 7 7 14q29 61 65 101q-14 26 -16 60q-5 78 57 130.5t151 53.5q194 3 251 -164q8 -23 -4 -25q-8 -1 -16 22q-5 14 -18 38q-28 31 -81 33q-82 3 -145 -36q-77 -47 -141 -136q29 -46 85 -68
q11 -4 10 -6q-3 -4 -16 1q-59 21 -90 57q-15 -22 -43 -69q-5 -10 -10 -19q5 -2 9.5 -3t9.5 -3q3 -2 14 -6t24.5 -8.5t26 -9t18.5 -7.5q11 -5 9 -7q-1 -2 -13 2q-6 3 -18.5 7t-25 8.5t-23.5 8t-15 4.5q-5 2 -10 3t-10 3q-46 -99 -46 -178q0 -149 128 -170q18 -3 35 -3
q86 0 169 67q68 55 121 145q98 164 98 295q0 137 -125 215q-6 2 -3 5q3 2 9 -1q39 -20 75 -60q46 -49 61 -105zM565 310h-12t-15 1h-24q-82 0 -170 -22q-51 -11 -90 -26.5t-68 -34.5q-166 -108 -168 -224q-2 -83 96 -83q116 0 272 150q83 80 179 239zM1250 545
q-30 45 -82 72q-59 31 -130 30q-76 -1 -128.5 -52t-46.5 -128q2 -21 7 -36q57 65 145 107q76 36 159 31q46 -3 76 -24z" />
    <glyph glyph-name="afii10049" unicode="&#x42f;" horiz-adv-x="683" 
d="M30 -75q23 -5 50.5 1t58.5 25t64 53t68 87q40 62 81.5 104.5t83.5 67.5t84 33q11 2 21 3q-35 4 -62 16q-55 24 -82 63t-27 86t26 89t79 72t131 34q71 2 136 -8.5t120 -23.5t97.5 -25t68.5 -13q32 0 52.5 14t20.5 31q-2 27 -61 46q-3 -1 -5.5 1.5t-3.5 4.5q1 2 3 1t6 1
q46 -9 69 -30t24 -44q3 -17 -7 -28t-27 -17t-37.5 -8t-37.5 1q-35 5 -84.5 21.5t-105.5 33t-114.5 26.5t-112 3.5t-98 -36.5t-73.5 -94q-17 -38 -17 -77t21 -70t64 -49q35 -15 85 -15l3 2h1l1 2q19 45 35 77.5t30.5 55.5t28.5 46q14 22 32.5 39t38.5 29t40 19.5t37 9.5
q4 0 0.5 -3t-3.5 -4q-24 -3 -44.5 -13t-39.5 -31.5t-37.5 -56.5t-38.5 -87v9q-6 -16 -17 -46q-9 -24 -20 -53q21 -6 36.5 -17.5t23.5 -27.5t7 -35q-2 -18 -16.5 -30.5t-27.5 -12.5q8 11 13 23t5 23q0 35 -23 54q-10 7 -21 12l-1 -1q-12 -35 -25.5 -74t-25.5 -73.5t-21 -61.5
l-13 -39q7 7 25 22.5t38 30.5t38.5 26.5t27.5 11.5q0 -1 -6 -5l-14 -8q-31 -22 -54.5 -47.5t-41 -47t-29.5 -36t-20 -14.5q-11 0 -14.5 6.5t-5.5 11.5q0 3 1 5q14 56 30 104.5t32 96.5q19 57 35 99h-12q-37 -4 -67 -15q-40 -15 -70.5 -41.5t-55 -60t-48 -69t-50 -70t-62 -62
t-83 -45t-113.5 -19.5q-89 -8 -98 32q-6 22 19 45q24 22 58 32q11 4 15 2q1 -1 -8 -6q-51 -21 -49 -59q2 -39 64 -36z" />
    <glyph glyph-name="afii10065" unicode="&#x430;" horiz-adv-x="259" 
d="M245 264q-18 -44 -55 -139q-23 -60 -54 -117q26 33 54 55q23 18 35 22q6 3 7 1q2 -3 -5 -6q-16 -8 -42 -33t-50 -54q-16 -19 -28 -17q-14 2 -5 22q24 54 69 171q-37 -66 -85 -116q-44 -46 -68 -45q-30 2 -30 44q0 33 20 77q23 50 72 95q56 52 96 50q25 -1 28 -24
q7 13 11 19q9 12 20 10q15 -3 10 -15zM192 234q2 6 2 11q0 19 -20 19q-32 0 -72 -49q-35 -45 -66 -114q-17 -38 -17 -60q0 -14 10 -15q20 -1 61 46q35 40 69 94q20 33 33 68z" />
    <glyph glyph-name="afii10066" unicode="&#x431;" horiz-adv-x="208" 
d="M185 197q-2 -10 -3 -20t-4 -21q-7 -23 -16 -42q-11 -24 -26.5 -45t-33 -36.5t-34.5 -25t-32 -9.5q-23 0 -34.5 18t-11.5 47q0 30 10 59t26.5 54t39 45t46.5 32q14 7 19 7h1l-12 -12q-17 -17 -35 -42.5t-32 -54.5t-23 -59t-9 -57q0 -26 17 -26q8 0 20 9.5t25 25.5t26 37
t24 43q14 29 21 56.5t6 45.5q5 38 -5 73.5t-21 66.5t-17 57t7 45q24 19 51 20t56 -2.5t60 -4t63 15.5q1 1 2 1h1q-2 -7 -25.5 -20t-56.5 -22t-69 -9t-64 20q-13 -5 -13 -22.5t6 -42t16.5 -54t19.5 -58t13.5 -53.5t0.5 -40z" />
    <glyph glyph-name="afii10067" unicode="&#x432;" horiz-adv-x="221" 
d="M31 283q-30 0 -32 19q0 7 6.5 18.5t18.5 11.5q2 0 2 -1q0 -2 -3.5 -10.5t-1.5 -15.5q4 -11 19.5 -14t38.5 0q22 45 46.5 83.5t49 68t48 48t43.5 23.5q24 3 36.5 -5.5t15.5 -20.5q3 -14 0 -31q-6 -28 -31.5 -61t-70.5 -65q-16 -11 -42.5 -22t-58.5 -19q-3 -5 -5 -11
q-34 -76 -58 -143t-24 -109q0 -22 17 -22q18 0 38.5 26t38 60.5t28.5 69.5t11 54q0 10 -5 18t-11.5 14t-11.5 11t-5 9q0 3 3.5 7.5t8.5 4.5q8 0 16 -6.5t19 -29.5q11 -11 26 -11q9 0 20 5t10 6q2 -2 2 -3q0 -5 -11 -11.5t-22 -6.5q-13 0 -21 5q7 -14 7 -41q0 -38 -15 -72.5
t-37.5 -61t-47.5 -42t-46 -15.5q-42 3 -42 55q0 73 78 234q-12 -2 -23 -2.5t-22 1.5zM209 339q22 14 37.5 31t26 34t15.5 33t6 28q1 22 -8 32q-13 13 -41 -3.5t-66 -76.5q-18 -29 -32 -58.5t-28 -59.5q23 7 46.5 17.5t43.5 22.5z" />
    <glyph glyph-name="afii10068" unicode="&#x433;" horiz-adv-x="157" 
d="M14 214q16 21 35 39t37 28t32.5 9.5t22.5 -16.5q10 -20 0 -48.5t-28 -61t-38.5 -66.5t-32.5 -65q-8 -12 -3 -15.5t18.5 1.5t32.5 17.5t37 31.5q8 5 9 5l1 -1q1 -2 -4 -9q-33 -41 -61 -56t-46 -11.5t-22.5 23t9.5 46.5q3 6 14.5 24.5t25.5 42t28 49t22.5 46.5t9 34
t-13.5 12q-5 0 -17 -8t-25.5 -19.5t-26.5 -25.5t-21 -26z" />
    <glyph glyph-name="afii10069" unicode="&#x434;" horiz-adv-x="242" 
d="M259 266q1 -7 -5.5 -12t-9.5 -4q1 2 -2 12.5t-20 10.5q-34 0 -71 -22q-73 -43 -118 -149q-16 -38 -17 -62q-1 -15 8 -17q16 -3 49 32q25 27 85 114q11 17 29 42q15 13 34 21q10 4 11 1q0 -1 -8 -9q-37 -75 -96 -235q12 7 27 14q12 6 28 8q10 2 10 -1q0 -2 -7.5 -4.5
t-28.5 -11.5q-12 -5 -34 -20q-30 -64 -71 -126q-22 -33 -56.5 -63.5t-51.5 -30.5q-16 0 -12 23q7 44 53 105q38 50 97 89q6 12 68 170q-38 -61 -72 -96q-37 -38 -59 -37q-32 2 -33 45q-1 33 17 73q39 87 129 131q51 25 91 25q35 0 36 -16zM77 -45q-44 -26 -82 -79
q-28 -39 -39 -86q-4 -16 2 -18q7 -1 21 11q24 21 48 65q27 49 50 107z" />
    <glyph glyph-name="afii10070" unicode="&#x435;" horiz-adv-x="187" 
d="M215 268q0 -20 -19 -36q-31 -26 -71 -22q-16 2 -29 8q-18 -26 -28 -45q-29 -59 -42 -105q-5 -20 -5 -34q0 -23 13 -27q15 -4 38.5 14t40 46t25.5 63q3 12 6 12q4 0 3 -11q-1 -28 -24 -67q-47 -80 -98 -72q-39 6 -39 57q0 18 5 38q15 59 53 108q73 92 147 91q24 0 24 -18z
M186 265q0 10 -12 10q-17 0 -42 -19q-21 -16 -31 -31q13 -7 27 -7q21 -1 40 15.5t18 31.5z" />
    <glyph glyph-name="afii10072" unicode="&#x436;" horiz-adv-x="425" 
d="M-27 12q0 7 5.5 19t16.5 12q2 0 2 -1q1 -2 -1 -10.5t-2 -16.5q0 -11 9 -11q17 0 39.5 27.5t42 66.5t33 82t12.5 74q0 26 -18 26q-8 0 -19.5 -8.5t-23.5 -23.5t-24 -34.5t-22 -41.5q-4 -11 -6.5 -16.5t-2.5 -6.5q-3 3 -2 5q0 22 12 47t29.5 45.5t36 34t31.5 13.5
q44 0 46 -56q1 -38 -16 -81v-2q0 1 1 2q21 24 42 49t37.5 44.5t19.5 18.5q12 0 11 -10q-1 -18 -17 -55.5t-37 -85.5q-8 -22 -12 -35.5t-11 -33.5q6 6 19.5 23t28.5 35t27 32l9 9q15 33 35 62q25 36 55 59.5t57 23.5q24 0 27 -17q1 -7 -5.5 -19t-17.5 -12q-2 0 -2 1
q-1 2 1.5 10.5t2.5 16.5q0 11 -11 11q-17 0 -39.5 -27.5t-42 -66.5t-33 -82t-12.5 -74q1 -26 18 -26q8 0 19.5 8.5t23.5 23.5t24 34.5t22 41.5q4 11 6.5 16.5t2.5 6.5q3 -3 2 -5q0 -23 -12 -47.5t-29.5 -45t-36 -34t-31.5 -13.5q-44 0 -46 56q-1 38 15 81l2 4q-7 -7 -14 -16
q-20 -24 -39.5 -49.5t-35 -44.5t-17.5 -18q-13 0 -11 9q0 18 11 47.5t29 77.5q10 23 18.5 44t14.5 41q-6 -6 -20.5 -23t-30.5 -35q-13 -14 -24 -27q-15 -34 -35 -63q-25 -36 -54.5 -59.5t-56.5 -23.5q-23 0 -26 17z" />
    <glyph glyph-name="afii10073" unicode="&#x437;" horiz-adv-x="159" 
d="M84 -83q-17 -45 -53.5 -84t-82 -67t-96.5 -42t-97 -9q-55 4 -77.5 27.5t-8.5 71.5q6 22 12.5 39.5t24.5 38.5q5 6 9.5 8.5t6.5 0.5q0 -1 -1.5 -4t-6.5 -9q-4 -6 -8.5 -13t-7.5 -15q-11 -20 -9 -40t13 -40q25 -35 80 -49q36 -6 75 7t74 37.5t63 58.5t44 72q8 16 14 40
t7 46.5t-4 39.5t-19 20q-2 -1 -7.5 -4t-13 -6.5t-14.5 -5.5t-12 -2q-3 0 -4 1q0 18 10.5 26t23.5 6q2 0 5.5 -0.5t5.5 -0.5q31 32 55.5 67t36 64t7 49t-31.5 22q-6 1 -20 -5.5t-27.5 -15t-23.5 -15.5t-8 -6q-4 -1 -4 0q-1 4 11 15t30 21.5t38 17.5t35 3q24 -7 32.5 -22
t5 -35t-17 -43.5t-31 -46t-38.5 -42.5t-39 -34l-1 2q28 -4 40.5 -21t15.5 -39t-1 -45t-10 -40z" />
    <glyph glyph-name="afii10074" unicode="&#x438;" horiz-adv-x="244" 
d="M246 294q1 -1 -3 -10q-32 -50 -66 -141q-12 -33 -40 -100q27 27 56 43q12 6 13 3q1 -2 -6.5 -7t-37 -29t-64.5 -60q-2 -4 -3 -7q-3 -6 -7 -5q-10 2 2 20q14 40 41 115q-31 -48 -49 -69q-41 -46 -63 -46q-28 0 -28 26q0 34 35 118q15 35 55 107q-8 -2 -14 -2q-8 1 -16 4
q2 1 20 5q36 9 48 17q4 2 6 1q1 -1 0 -5q-38 -72 -61 -127q-26 -62 -34 -95q-7 -27 4 -31q11 -3 40 30t67 98q4 5 6 14q22 52 37.5 82.5t36 43t25.5 7.5z" />
    <glyph glyph-name="afii10075" unicode="&#x439;" horiz-adv-x="244" 
d="M246 294q1 -1 -3 -10q-32 -50 -66 -141q-12 -33 -40 -100q27 27 56 43q12 6 13 3q1 -2 -6.5 -7t-37 -29t-64.5 -60q-2 -4 -3 -7q-3 -6 -7 -5q-10 2 2 20q14 40 41 115q-31 -48 -49 -69q-41 -46 -63 -46q-28 0 -28 26q0 34 35 118q15 35 55 107q-8 -2 -14 -2q-8 1 -16 4
q2 1 20 5q36 9 48 17q4 2 6 1q1 -1 0 -5q-38 -72 -61 -127q-26 -62 -34 -95q-7 -27 4 -31q11 -3 40 30t67 98q4 5 6 14q22 52 37.5 82.5t36 43t25.5 7.5zM338 447q-23 -22 -43.5 -42t-52.5 -33q-49 -22 -80 -1q-26 18 3 62q10 17 20 14l-4 -13q-6 -23 13 -35q11 -7 28 -5
t35 9.5t35.5 17.5t29.5 17.5t17 11t-1 -2.5z" />
    <glyph glyph-name="afii10076" unicode="&#x43a;" horiz-adv-x="263" 
d="M432 -84q-2 -29 -32.5 -45.5t-70.5 -15.5q-52 1 -101 52q-45 46 -77 123q-39 93 -45 177q-46 -125 -88 -193q-5 -8 -14 -20q-6 -8 -14 -7q-10 3 -10 21q0 41 18 84q23 56 69 108q18 50 39 95q38 83 78.5 137t83.5 82q29 18 34 13l-22 -22q-35 -35 -70 -90
q-32 -50 -71 -131q-7 -16 -24 -54q63 60 123 60q40 0 40 -25q0 -22 -32 -38.5t-72 -17.5q-24 0 -36 3q9 -73 46 -171q66 -176 153 -179q71 -2 82 79l5 -1q9 -11 8 -24zM238 257q0 16 -23 16q-43 0 -98 -50q26 -7 57 -5q26 2 45 13.5t19 25.5zM61 184q-31 -39 -50.5 -86.5
t-19.5 -95.5q13 21 38 93q16 44 32 89z" />
    <glyph glyph-name="afii10077" unicode="&#x43b;" horiz-adv-x="256" 
d="M-19 13q0 22 17 51q24 41 91 114q39 36 102 110q7 9 12 8q15 -2 15 -16q0 -18 -12 -34q-8 -15 -18 -46q-28 -85 -30 -140q-2 -40 26 -40q9 0 18 5q19 11 21 5.5t-29 -18.5q-27 -11 -40 -11q-39 0 -36 56q3 52 43 154q11 29 22 48q-25 -27 -75 -83q-83 -104 -107 -167
q0 -1 -1.5 -13t-3.5 -12q-4 0 -9.5 8.5t-5.5 20.5z" />
    <glyph glyph-name="afii10078" unicode="&#x43c;" horiz-adv-x="318" 
d="M-29 21q0 27 21 68q20 36 59 83q34 36 95 100q5 13 18 11q9 -2 9 -11q0 -15 -13 -32q-8 -29 -13 -86q-5 -61 -10 -80q16 35 58 87q38 44 96 116q8 12 17 9q13 -6 12 -16q0 -11 -14 -34q-8 -14 -20 -46q-29 -82 -36 -141q-4 -39 24 -40q8 0 19 5q4 2 11 7.5t8 3.5
q2 -6 -20 -19.5t-46 -13.5q-41 0 -36 54q6 60 49 154q7 21 24 52q-30 -35 -86 -104q-35 -45 -61 -94q-10 -19 -19 -31q-14 -19 -30 -19q-4 0 -6.5 1.5t-2.5 4.5q0 10 18 33q3 30 12 109q6 54 23 92q-42 -45 -65 -76q-62 -83 -76 -161q-2 -9 0 -17q2 -5 0 -5q-19 0 -19 36z
" />
    <glyph glyph-name="afii10079" unicode="&#x43d;" horiz-adv-x="239" 
d="M136 116l16 45l1 3h-16q-11 0 -26.5 -0.5t-31.5 -0.5q-8 -22 -15 -43.5t-15 -41.5q-10 -15 -21.5 -33t-25.5 -38q-6 -9 -12 -9q-8 0 -8 10q0 3 3 11l53 141q-6 -1 -14 -2t-13 -1q-8 0 -8 4q0 8 41 13l32 85q1 2 1 5q0 5 -5 5q-6 0 -23 -10q-3 -3 -5 -3t-2 2q0 6 8 12.5
t18.5 11.5t20 8.5t12.5 3.5q8 0 13 -2.5t5 -11.5q0 -6 -1 -9q-7 -15 -15 -40.5t-19 -54.5q22 -1 40.5 -3t30.5 -4q20 46 34 74q16 31 36.5 43.5t25.5 7.5q1 -1 -3 -10q-32 -50 -66 -141q-12 -33 -40 -100q27 27 56 43q12 6 13 3q1 -2 -6.5 -7t-37 -29t-64.5 -60q-2 -4 -3 -7
q-3 -6 -7 -5q-10 2 2 20q14 40 41 115z" />
    <glyph glyph-name="afii10080" unicode="&#x43e;" horiz-adv-x="208" 
d="M222 259q1 -2 -9 -7t-20 -5q-11 0 -22 6q12 -23 12 -56q0 -37 -16 -74q-25 -56 -69 -93.5t-71 -30.5q-37 10 -37 64q0 28 12 61q31 90 110 129q18 9 20 7l-12 -12q-61 -64 -90 -164q-9 -31 -9 -49q0 -26 17 -26q23 0 58 52q39 57 57 123q7 25 7 42q0 27 -18 44
q-13 12 -15 17q-4 10 7 15q10 5 17 -8.5t18 -24.5q8 -9 24 -12q9 -1 19 1t10 1z" />
    <glyph glyph-name="afii10081" unicode="&#x43f;" horiz-adv-x="234" 
d="M226 252q-17 -40 -52 -126q-14 -34 -37 -108q-3 -13 1 -15q6 -3 24 14q8 7 9 6q2 -2 -5 -10q-31 -36 -52 -33q-18 2 -14 30q7 45 39 123q14 32 40 95q4 10 1 12q-4 2 -12 -6q-41 -41 -76 -84q-19 -23 -79 -122q-5 -6 -16 -21q-7 -11 -15 -8q-8 4 -2 20l91 240q4 10 -4 10
q-5 0 -23 -10q-5 -5 -7 -2q-1 2 4 7q30 27 55 30q13 1 17 -6q3 -6 0 -17q-22 -54 -62 -159q29 38 64 79q42 48 74 75q21 17 34 12q12 -5 3 -26z" />
    <glyph glyph-name="afii10082" unicode="&#x440;" horiz-adv-x="252" 
d="M232 248q-9 -73 -63 -175q7 1 22.5 4t16.5 2q1 -4 -16 -10q-6 -2 -28 -7q-16 -26 -52 -62q-9 -11 -17 -11q-15 0 -13 26q3 13 8 45l5 4q27 0 42 5q14 32 35 100q19 63 21 94q-32 -13 -119 -157q-37 -62 -70 -138q-23 -57 -69 -162q-28 -58 -65 -114q-15 -23 -25 -20
q-3 1 2 28q9 52 32 111q31 82 92 171q13 34 46 124q19 53 49 151q-10 3 -27 7q30 6 73 24q2 -1 5 -5q0 1 -6 -16q-29 -81 -83 -224q45 85 90 152q61 90 98 87q20 -1 16 -34zM131 58q-4 -1 -16 -3t-17 -4q0 -22 4 -42q12 12 29 49zM-37 -48q-46 -72 -75 -145
q-14 -34 -29 -107q17 37 47 104q3 6 57 148z" />
    <glyph glyph-name="afii10083" unicode="&#x441;" horiz-adv-x="177" 
d="M196 268q1 -15 -16 -27q-10 -5 -11 -2q-1 1 2 9.5t3 16.5q0 10 -7 11q-29 4 -72 -57.5t-62 -130.5q-9 -34 -9 -52q0 -25 18 -25q23 0 56 42q24 29 40 62q11 22 10 22q6 -1 -4 -27q-19 -49 -57 -85q-28 -27 -55 -27q-44 0 -45 50q-1 45 25 98q29 58 73 97.5t83 40.5
q27 0 28 -16z" />
    <glyph glyph-name="afii10084" unicode="&#x442;" horiz-adv-x="353" 
d="M344 252q-17 -40 -52 -126q-14 -35 -38 -108q-3 -13 2 -15q8 -1 23 14q7 7 9 6q3 -3 -4 -10q-33 -36 -53 -33q-17 2 -14 30q4 31 40 123q12 30 39 95q5 13 2 14q-3 2 -13 -8q-45 -45 -75 -82.5t-81 -125.5q-3 -5 -14.5 -17.5t-19.5 -10.5q-5 2 4 25q12 33 42 110
q13 31 38 95q4 12 2 13q-4 2 -13 -7q-41 -41 -76 -84q-24 -29 -79 -120q-5 -6 -16 -21q-6 -12 -15 -9q-9 4 -2 21q11 28 49 127l42 111q4 10 -4 10q-5 0 -23 -10q-6 -4 -7 -2t4 7q30 27 55 30q13 1 17 -6q3 -6 0 -17q-7 -25 -27 -74q-27 -62 -35 -85q29 38 64 79
q42 48 74 75q21 17 34 12q11 -5 3 -26q-8 -20 -57 -139q31 41 63 78q41 47 74 75q21 17 34 12t4 -26z" />
    <glyph glyph-name="afii10085" unicode="&#x443;" horiz-adv-x="251" 
d="M240 256q0 -14 -5 -31q-17 -57 -46 -123q-57 -130 -124 -213q-70 -86 -160 -141q-93 -57 -166 -57q-29 0 -48 19q-12 14 -5 19q-1 -1 9 -8q17 -12 49 -12q79 0 144.5 42.5t146.5 146.5q67 87 130 236q-21 -32 -70 -77.5t-64 -67.5q-6 -9 -13 -7q-16 4 -10 23q18 43 25 65
q26 88 29 147q2 39 -21 39q-2 0 -14.5 -5.5t-13.5 -4.5q-3 4 14 14q27 15 45 15q33 0 29 -55q-6 -71 -37 -154q-12 -31 -29 -62q33 34 92 97q60 71 93 170q2 7 3 16q0 6 2 6q4 0 9 -9q6 -12 6 -28z" />
    <glyph glyph-name="afii10086" unicode="&#x444;" horiz-adv-x="360" 
d="M210 244q58 145 123.5 211t133.5 66q30 0 30 -23q0 -13 -9 -25.5t-29 -25.5q-9 -6 -12 -6q-2 0 -2 2l9 9q15 15 15 32q0 23 -25 23q-49 0 -92.5 -60t-95.5 -189l-6 -13q-2 -6 -11 -28.5l-21 -52.5q38 55 73 88t61 33q19 -1 20 -23q2 -35 -17 -80.5t-49 -96.5q4 0 11.5 1
t14.5 2t12.5 2t6.5 1q1 -3 -8 -7.5t-42 -9.5q-3 -5 -12.5 -16.5t-20.5 -23.5t-22 -21t-18 -9q-14 0 -17 20q0 6 2.5 17.5t4.5 30.5l6 4q27 0 47 5q6 12 15.5 37.5t18.5 54t15.5 55t6.5 39.5q-14 -5 -49.5 -42.5t-77.5 -103.5q-14 -35 -26 -64.5t-17 -43.5q-32 -75 -71 -135
t-82.5 -101.5t-91 -63.5t-95.5 -22q-12 0 -23.5 3.5t-20.5 9t-14.5 12t-5.5 11.5q0 4 1 4t20 -9.5t46 -9.5q113 0 187 87q23 29 51.5 82t60.5 131q5 14 13 34l16 40q-34 -42 -64 -63.5t-52 -21.5q-19 1 -20 23q-2 35 17 81t49 97q-5 0 -12 -1l-14 -2t-12.5 -2t-6.5 -1
q-1 3 8 6.5t42 9.5q3 5 12 16.5t20.5 23.5t22.5 21t18 9q14 0 17 -20q0 -5 -2.5 -17t-4.5 -31l-6 -4q-27 0 -47 -5q-6 -12 -15.5 -37.5t-18.5 -54t-15.5 -55t-6.5 -39.5q11 4 39.5 27.5t63.5 69.5q5 13 9 24t7 19zM119 216q4 1 17.5 3t18.5 4q-1 22 -6 40q-14 -11 -30 -47z
M264 70q-4 -1 -17 -2.5t-18 -4.5q0 -11 1.5 -20.5t3.5 -19.5q7 6 14.5 17t15.5 30z" />
    <glyph glyph-name="afii10087" unicode="&#x445;" horiz-adv-x="212" 
d="M262 264q-11 4 -28 -2q-21 -7 -47 -28q-42 -34 -71 -63q0 -11 1 -40v-49q0 -40 1 -51q1 -15 8 -15q8 0 22 24q5 8 6 7q2 -1 1 -5q-3 -15 -19 -32.5t-29 -17.5q-21 1 -26 38q-1 7 -1 54v60q-33 -31 -62 -66q-47 -56 -62 -90q-8 -18 -7 -18q-7 0 -1 20q14 47 59 100
q30 35 73 75q-1 16 -4 48q-5 36 -19 43q-8 4 -18 2t-11 0t11 8q18 9 34 8q31 -2 39 -48q3 -17 4 -34q23 24 64 57q31 25 55 29q27 5 27 -14z" />
    </font>
</defs>
</svg>
